<?xml version="1.0" encoding="utf-8"?>
<!-- Generator: Adobe Illustrator 25.0.1, SVG Export Plug-In . SVG Version: 6.00 Build 0)  -->
<svg version="1.1" id="Layer_1" xmlns="http://www.w3.org/2000/svg" xmlns:xlink="http://www.w3.org/1999/xlink" x="0px" y="0px"
	 viewBox="0 0 281.61 286.21" style="enable-background:new 0 0 281.61 286.21;" xml:space="preserve">
<style type="text/css">
	.st0{fill:#FF7BAC;}
	.st1{fill:#BDCCD4;}
	.st2{fill:#EDFFC3;}
</style>
<g>
	<path class="st0" d="M36.41,274.8c-15.07,0-27.32-12.26-27.32-27.32V38.86c0-15.07,12.26-27.32,27.32-27.32h205.75
		c15.07,0,27.32,12.26,27.32,27.32v208.62c0,15.07-12.26,27.32-27.32,27.32H36.41z"/>
	<path d="M242.16,15.54c12.86,0,23.32,10.46,23.32,23.32v208.62c0,12.86-10.46,23.32-23.32,23.32H36.41
		c-12.86,0-23.32-10.46-23.32-23.32V38.86c0-12.86,10.46-23.32,23.32-23.32H242.16 M242.16,7.54H36.41
		c-17.3,0-31.32,14.02-31.32,31.32v208.62c0,17.3,14.02,31.32,31.32,31.32h205.75c17.3,0,31.32-14.02,31.32-31.32V38.86
		C273.48,21.56,259.46,7.54,242.16,7.54L242.16,7.54z"/>
</g>
<g>
	
		<ellipse transform="matrix(0.9925 -0.1222 0.1222 0.9925 -16.2826 17.9397)" class="st1" cx="138.14" cy="141.74" rx="79.05" ry="79.05"/>
	<path class="st2" d="M138.14,66.69c41.38,0,75.05,33.67,75.05,75.05s-33.67,75.05-75.05,75.05s-75.05-33.67-75.05-75.05
		S96.76,66.69,138.14,66.69 M138.14,58.69c-45.87,0-83.05,37.18-83.05,83.05s37.18,83.05,83.05,83.05s83.05-37.18,83.05-83.05
		S184,58.69,138.14,58.69L138.14,58.69z"/>
</g>
<g>
	<g>
		<path d="M149.67,184.77c1.82-9.37,3.78-19.42,9.71-27.18c3.13-4.09,7.35-6.86,11.75-9.41c2.33-1.35,4.69-2.66,6.92-4.16
			c2.07-1.39,4.16-2.91,5.56-5.02c2.75-4.14,0.7-9.22-3.6-11.26c-4.95-2.35-11.01-0.44-15.87,1.26c-2.58,0.9-5.1,1.98-7.53,3.23
			c-1.19,0.61-2.34,1.28-3.5,1.95c-1.08,0.63-2.55,1.61-3.86,1.09c-1.61-0.63-1.73-3.12-1.77-4.55c-0.07-2.65,0.17-5.3,0.11-7.95
			c-0.07-3.03-0.32-6.06-0.72-9.06c-0.31-2.3-0.66-4.57-1.47-6.76c-1.31-3.54-3.74-7.58-7.77-8.33c-4.55-0.84-7.98,2.67-9.33,6.68
			c-1.73,5.12,0.21,10.84-2.2,15.8c-0.97,1.99-2.43,3.77-4.26,5.03c-0.64,0.44-1.84,1.41-2.64,0.94c-0.68-0.4-0.85-1.69-0.95-2.38
			c-0.32-2.35-0.08-4.71-0.49-7.07c-0.43-2.52-1.29-4.98-2.47-7.25c-1.12-2.15-2.61-4.66-4.94-5.63c-2.43-1.01-5.18-0.13-7.26,1.27
			c-3.69,2.49-6.06,6.46-7.14,10.72c-2.78,10.88,2.73,21.3,6.1,31.35c1.87,5.57,3.39,11.26,4.55,17.01
			c0.95,4.67,1.94,9.7,0.91,14.45c-0.47,2.15-1.37,4.1-2.9,5.7c-1.33,1.4,0.78,3.52,2.12,2.12c6.84-7.16,3.84-18.76,1.85-27.26
			c-1.32-5.64-2.98-11.19-4.97-16.63c-1.93-5.28-4.15-10.53-5.07-16.11c-0.73-4.38-0.46-9.13,1.48-13.19
			c0.93-1.95,2.21-3.72,3.9-5.08c1.77-1.42,4.47-2.75,6.36-0.84c1.79,1.8,2.99,4.45,3.77,6.82c0.8,2.46,1.1,4.93,1.1,7.51
			c0,1.83,0.13,3.87,1.06,5.49c1.05,1.83,3.08,2.49,5.04,1.78c4.26-1.54,7.54-6.14,8.61-10.39c1.21-4.85-0.49-10.44,2.03-14.95
			c0.93-1.67,2.46-3.08,4.48-3.03c1.74,0.04,3.15,1.22,4.16,2.55c2.78,3.67,3.3,8.57,3.72,13c0.27,2.86,0.39,5.73,0.36,8.61
			c-0.02,2.28-0.29,4.57,0.01,6.84c0.25,1.9,0.89,3.86,2.53,5.01c2.11,1.49,4.61,0.84,6.71-0.29c2.36-1.27,4.62-2.64,7.08-3.73
			c2.46-1.1,5.02-1.99,7.62-2.71c4.09-1.13,11.31-2.52,13.16,2.85c0.81,2.34-0.89,4.41-2.55,5.86c-1.88,1.64-4.1,2.94-6.25,4.2
			c-4.35,2.56-8.89,4.92-12.6,8.41c-6.95,6.53-10.08,15.93-12.14,24.99c-0.52,2.29-0.98,4.6-1.43,6.91
			C146.41,185.86,149.3,186.67,149.67,184.77L149.67,184.77z"/>
	</g>
</g>
</svg>
