<?xml version="1.0" encoding="utf-8"?>
<!-- Generator: Adobe Illustrator 25.0.1, SVG Export Plug-In . SVG Version: 6.00 Build 0)  -->
<svg version="1.1" id="Layer_1" xmlns="http://www.w3.org/2000/svg" xmlns:xlink="http://www.w3.org/1999/xlink" x="0px" y="0px"
	 viewBox="0 0 255.17 250" style="enable-background:new 0 0 255.17 250;" xml:space="preserve">
<style type="text/css">
	.st0{fill:#00E5FB;stroke:#FF25C2;stroke-miterlimit:10;}
	.st1{fill:#FFB87C;stroke:#FF25C2;stroke-miterlimit:10;}
	.st2{fill:#52A4C1;stroke:#23DF00;stroke-miterlimit:10;}
	.st3{fill:#88FFEF;stroke:#23DF00;stroke-miterlimit:10;}
	.st4{fill:#52A4C1;stroke:#FF430F;stroke-miterlimit:10;}
	.st5{fill:#EDFFC3;stroke:#FF430F;stroke-miterlimit:10;}
	.st6{fill:#FFD7BA;stroke:#E3F500;stroke-width:3;stroke-miterlimit:10;}
</style>
<g>
	<path class="st0" d="M17.99,242.17c-4.41,0-8-3.59-8-8V17.37c0-4.41,3.59-8,8-8h216.8c4.41,0,8,3.59,8,8v216.8c0,4.41-3.59,8-8,8
		H17.99z"/>
	<path class="st1" d="M234.79,13.37c2.17,0,4,1.83,4,4v216.8c0,2.17-1.83,4-4,4H17.99c-2.17,0-4-1.83-4-4V17.37c0-2.17,1.83-4,4-4
		L234.79,13.37 M234.79,5.37H17.99c-6.6,0-12,5.4-12,12v216.8c0,6.6,5.4,12,12,12h216.8c6.6,0,12-5.4,12-12V17.37
		C246.79,10.77,241.39,5.37,234.79,5.37L234.79,5.37z"/>
</g>
<g>
	<polygon class="st2" points="75.61,149.62 24.92,99.93 95.2,89.92 126.79,26.35 158.04,90.1 228.26,100.5 177.28,149.91 
		189.09,219.91 126.35,186.7 63.42,219.55 	"/>
	<path class="st3" d="M126.77,34.5l27.18,55.49l1.66,3.41l3.75,0.56l61.12,9.05l-44.37,43l-2.72,2.64l0.63,3.74l10.27,60.93
		l-54.6-28.91l-3.36-1.78l-3.36,1.75l-54.77,28.59l10.62-60.87l0.66-3.74l-2.71-2.65l-44.12-43.26l61.17-8.72l3.76-0.53l1.69-3.4
		L126.77,34.5 M126.83,18.21L92.82,86.61L17.18,97.39l54.56,53.48l-13.13,75.26l67.72-35.37l67.52,35.74l-12.7-75.34L236.02,98
		l-75.58-11.2L126.83,18.21L126.83,18.21z"/>
</g>
<g>
	<circle class="st4" cx="127.14" cy="132.94" r="79.05"/>
	<path class="st5" d="M127.14,57.9c41.38,0,75.05,33.67,75.05,75.05S168.52,208,127.14,208s-75.05-33.67-75.05-75.05
		S85.76,57.9,127.14,57.9 M127.14,49.9c-45.87,0-83.05,37.18-83.05,83.05S81.27,216,127.14,216s83.05-37.18,83.05-83.05
		S173,49.9,127.14,49.9L127.14,49.9z"/>
</g>
<g>
	<g>
		<path class="st6" d="M113.57,170.73c-1.78-9.17-3.75-18.82-9.13-26.66c-2.8-4.09-6.43-7.25-10.62-9.87
			c-4.28-2.68-9.2-4.79-12.95-8.23c-1.6-1.47-3.07-3.51-2.2-5.76c0.8-2.08,2.99-3.33,5.11-3.66c2.75-0.43,5.58,0.3,8.21,1.04
			c2.6,0.73,5.15,1.63,7.61,2.74c2.52,1.13,4.81,2.62,7.27,3.85c2.06,1.03,4.47,1.49,6.43,0c3.46-2.62,2.47-8.05,2.43-11.77
			c-0.03-2.95,0.1-5.91,0.38-8.84c0.25-2.55,0.52-5.15,1.24-7.61c0.88-3.01,2.9-7.61,6.61-7.7c4.95-0.13,5.84,6.46,5.9,10.07
			c0.05,2.76-0.04,5.58,0.71,8.27c0.6,2.17,1.69,4.16,3.11,5.9c2.27,2.77,7.8,6.97,10.44,2.36c0.96-1.67,1.06-3.76,1.06-5.64
			c-0.01-2.66,0.36-5.24,1.24-7.77c0.78-2.25,1.99-4.91,3.77-6.56c1.93-1.78,4.67-0.32,6.37,1.09c3.32,2.76,5.05,7.08,5.48,11.3
			c0.54,5.25-0.81,10.4-2.51,15.33c-1.84,5.34-3.96,10.56-5.58,15.98c-1.65,5.51-3.01,11.15-3.92,16.83
			c-0.69,4.33-1.07,8.98,0.32,13.23c0.67,2.06,1.76,3.91,3.26,5.48c1.34,1.4,3.46-0.72,2.12-2.12c-3.22-3.37-3.55-8.24-3.19-12.66
			c0.46-5.49,1.84-10.99,3.27-16.3c1.52-5.64,3.49-11.11,5.52-16.58c1.95-5.28,3.8-10.78,3.84-16.47c0.04-4.4-1.01-9.01-3.47-12.71
			c-2.38-3.57-7.31-7.8-11.89-5.71c-2.23,1.01-3.68,3.47-4.76,5.56c-1.25,2.4-2.12,5-2.54,7.68c-0.35,2.26-0.09,4.55-0.44,6.8
			c-0.1,0.65-0.26,1.69-0.83,2.14c-0.8,0.62-2.06-0.39-2.73-0.85c-1.92-1.33-3.47-3.24-4.42-5.37c-1.11-2.47-1.18-5.15-1.2-7.81
			c-0.04-4.69-0.41-10.03-4.55-13.06c-3.41-2.49-7.78-1.37-10.38,1.69c-3.02,3.56-3.97,8.11-4.55,12.61
			c-0.36,2.85-0.59,5.72-0.65,8.59c-0.07,2.7,0.2,5.41,0.11,8.11c-0.05,1.48-0.23,3.94-1.95,4.44c-1.26,0.37-2.63-0.55-3.67-1.15
			c-1.15-0.67-2.31-1.34-3.5-1.95c-4.92-2.53-10.41-4.65-15.92-5.37c-4.74-0.62-10.26,0.82-12.02,5.8c-1.8,5.11,2.95,9,6.69,11.48
			c4.42,2.94,9.34,5.14,13.53,8.43c7.8,6.13,11.09,15.77,13.22,25.11c0.54,2.36,1.01,4.73,1.47,7.1
			C111.04,173.42,113.94,172.62,113.57,170.73L113.57,170.73z"/>
	</g>
</g>
</svg>
