<?xml version="1.0" encoding="utf-8"?>
<!-- Generator: Adobe Illustrator 25.0.1, SVG Export Plug-In . SVG Version: 6.00 Build 0)  -->
<svg version="1.1" id="Layer_1" xmlns="http://www.w3.org/2000/svg" xmlns:xlink="http://www.w3.org/1999/xlink" x="0px" y="0px"
	 viewBox="0 0 215.52 254.6" style="enable-background:new 0 0 215.52 254.6;" xml:space="preserve">
<style type="text/css">
	.st0{fill:#FF2235;stroke:#01A700;stroke-width:10;stroke-miterlimit:10;}
	.st1{fill:#E7BDFF;}
</style>
<ellipse class="st0" cx="109.69" cy="127.37" rx="96.55" ry="116.38"/>
<g>
	<g>
		<path class="st1" d="M87.81,84.26c-3.31-1.9-2.27-6.28,0.07-8.5c2.51-2.38,6.97-3.15,10.26-2.22c3.65,1.04,2.63,5.56,4.43,8.19
			c0.46,0.66,1.03,1.27,1.74,1.66c0.23,0.13,0.82,0.47,1.07,0.42c0.24-0.05,0.03-0.61-0.03-0.61c0.05,0-0.37,0.47-0.41,0.51
			c-0.68,0.61-1.68,1.01-2.5,1.42c-1.01,0.51-2.04,0.99-3.09,1.42c-0.72,0.29-1.81,0.93-2.61,0.85c-0.14-0.02-0.06,0.21-0.1-0.22
			c-0.03-0.29,0.01-0.6,0.02-0.89c0.06-1.47-0.13-3.15-1.86-3.52c-0.48-0.1-1.12-0.04-1.46,0.39c-2.17,2.73-5.67,4.18-9.13,3.49
			c-1.89-0.38-2.69,2.51-0.8,2.89c4.45,0.89,9.19-0.67,12.05-4.26c-0.49,0.13-0.97,0.26-1.46,0.39c-0.53-0.11-0.24-0.73-0.32,0.03
			c-0.04,0.4-0.05,0.81-0.05,1.21c0.01,0.91,0.18,1.88,0.82,2.57c1.66,1.77,4.24,0.58,6.08-0.18c1.29-0.53,2.55-1.11,3.79-1.75
			c1.06-0.56,2.25-1.1,3.05-2.03c0.63-0.73,1.1-1.68,0.9-2.67c-0.27-1.35-1.29-1.49-2.35-1.99c-1.85-0.87-1.76-3.87-2.26-5.54
			c-0.68-2.24-2.2-3.81-4.43-4.55c-4.34-1.44-10.16-0.25-13.48,2.9C82,77.2,81.31,84,86.29,86.85
			C87.97,87.81,89.49,85.22,87.81,84.26L87.81,84.26z"/>
	</g>
</g>
<g>
	<g>
		<path class="st1" d="M122.33,89.38c-0.55-3.19-1.57-6.27-3.03-9.16c-0.75-1.49-1.62-2.92-2.6-4.27c-0.5-0.68-1.01-1.35-1.56-1.99
			c-0.1-0.12-0.52-0.74-0.62-0.72c-0.38,0.43-0.4,0.52-0.05,0.29c0.11-0.05,0.23-0.09,0.34-0.13c5.63-2.23,12.23-1.13,17.07,2.4
			c-0.18-0.68-0.36-1.37-0.54-2.05c-1.83,3.63-6.03,5.1-8.56,8.14c-1.28,1.55-2.27,3.38-2.33,5.43c-0.03,1.07,0.28,2.05,0.61,3.05
			c0.1,0.3,0.55,1.74,0.03,1.72c-1.93-0.08-1.93,2.92,0,3c2.31,0.1,3.51-2.32,3.17-4.34c-0.19-1.11-0.8-2.13-0.81-3.26
			c-0.01-1.07,0.47-2.07,1.07-2.94c2.53-3.72,7.32-5.11,9.42-9.27c0.39-0.78,0.15-1.55-0.54-2.05c-2.93-2.13-6.38-3.39-9.97-3.8
			c-3.39-0.39-7.25-0.03-10.36,1.49c-1.7,0.83-2.06,2.6-0.96,4.11c1.12,1.54,2.38,2.91,3.37,4.54c1.99,3.27,3.3,6.86,3.94,10.63
			C119.77,92.07,122.66,91.27,122.33,89.38L122.33,89.38z"/>
	</g>
</g>
<g>
	<g>
		<path class="st1" d="M97.16,108.21c2.25-2.4,5.05-4.2,8.21-5.13c0.65-0.19,1.34-0.41,2.03-0.42c0.64-0.01,0.65,0.13,0.72,0.74
			c0.1,0.96,0.15,1.92,0.22,2.88c0.06,0.77,0.37,1.95,0.11,2.7c-0.18,0.5-0.8,0.64-1.27,0.77c-0.82,0.23-1.67,0.39-2.49,0.63
			c-1.67,0.47-3.17,1.22-4.43,2.44c-1.13,1.09-1.97,2.48-3.19,3.48c-0.86,0.7-2.32,1.44-3.29,0.54c-0.96-0.89-0.87-2.58-0.58-3.72
			c0.5-1.96,1.49-3.74,1.77-5.76c0.11-0.8-0.19-1.61-1.05-1.85c-0.7-0.19-1.73,0.24-1.85,1.05c-0.3,2.2-1.48,4.13-1.89,6.3
			c-0.34,1.76-0.2,3.75,0.81,5.28c1.14,1.73,3.17,2.43,5.16,1.94c2.07-0.51,3.54-2.07,4.86-3.63c0.6-0.71,1.19-1.46,1.93-2.03
			c0.87-0.67,1.93-1,2.98-1.27c1.89-0.5,4.22-0.77,5.17-2.75c0.46-0.96,0.4-2,0.32-3.03c-0.1-1.32-0.19-2.64-0.31-3.96
			c-0.09-1-0.24-2.02-0.99-2.76c-0.75-0.74-1.82-1.02-2.85-0.98c-2.23,0.09-4.55,1.06-6.51,2.07c-2.14,1.11-4.09,2.6-5.73,4.36
			C93.72,107.49,95.83,109.62,97.16,108.21L97.16,108.21z"/>
	</g>
</g>
<g>
	<g>
		<path class="st1" d="M131.51,102c-0.07-0.01-0.14-0.01-0.2-0.02c0.35,0.15,0.71,0.29,1.06,0.44c0.82,0.78-0.12,0.69,0.36,0.35
			c0.14-0.1,0.26-0.37,0.37-0.51c0.28-0.34,0.61-0.65,0.94-0.95c0.74-0.66,1.56-1.22,2.37-1.79c1.55-1.09,3.15-2.19,4.21-3.79
			c1.34-2.02,0.88-4,0.99-6.27c0.06-1.31,0.84-1.57,2.01-1.85c1.46-0.36,3.05-0.77,4.56-0.54c1.01,0.15,2.12,0.64,2.64,1.57
			c0.49,0.87,0.42,1.99,0.45,2.96c0.07,1.98,0.32,4.06,2.15,5.2c0.62,0.39,1.08,0.25,0.57,0.95c-0.32,0.44-0.66,0.85-1.04,1.24
			c-0.81,0.87-1.71,1.64-2.69,2.3c-1.89,1.27-3.98,2.14-6.21,2.62c-2.47,0.53-5.09,0.5-7.54-0.15c-2.98-0.78-5.59-2.57-8.64-3.1
			c-1.89-0.33-2.7,2.56-0.8,2.89c3.28,0.58,6.09,2.56,9.34,3.27c2.84,0.62,5.78,0.57,8.61-0.06c2.8-0.63,5.48-1.87,7.76-3.62
			c1.88-1.44,5.15-4.11,4.39-6.82c-0.2-0.71-0.73-1.27-1.35-1.65c-0.49-0.3-1-0.4-1.29-0.94c-0.5-0.94-0.26-2.4-0.34-3.42
			c-0.22-3.01-1.84-5.34-4.89-6.06c-1.56-0.37-3.15-0.22-4.71,0.07c-1.62,0.3-3.63,0.6-4.83,1.85c-2.1,2.19-0.29,5.05-1.43,7.47
			c-1.07,2.28-4.01,3.55-5.88,5.07c-0.99,0.8-1.99,1.78-2.58,2.93c-0.75,1.48-0.16,3.2,1.59,3.37
			C133.43,105.18,133.42,102.18,131.51,102L131.51,102z"/>
	</g>
</g>
<g>
	<g>
		<path class="st1" d="M99.92,53.01c1.39-1.19,1.67-3.23,1.03-4.89c-0.73-1.91-2.36-3.18-4.38-3.51c-2.19-0.36-4.39,0.17-6.44,0.93
			c-2.07,0.77-4.05,1.8-5.83,3.1c-1.6,1.17-3.75,2.66-4.14,4.75c-0.5,2.75,2.53,3.6,4.47,4.48c3.89,1.77,8.58,4.74,12.98,3.03
			c2.07-0.81,3.66-2.51,3.8-4.8c0.12-2.11-1.03-3.99-2.99-4.74c-0.76-0.29-1.65,0.32-1.85,1.05c-0.23,0.85,0.29,1.55,1.05,1.85
			c0.67,0.26,0.87,1.25,0.79,1.87c-0.14,1.07-1.12,1.76-2.08,2.06c-3.03,0.93-6.28-1.11-8.94-2.33c-0.72-0.33-1.45-0.66-2.17-0.99
			c-0.41-0.19-0.83-0.38-1.24-0.57c-0.19-0.08-0.38-0.16-0.56-0.26c-0.06-0.03-0.47-0.32-0.34-0.11c0.06,0.1,0.06-0.12,0.17-0.31
			c0.15-0.28,0.37-0.5,0.59-0.72c0.54-0.53,1.13-1.03,1.74-1.49c2.4-1.82,5.31-3.31,8.3-3.82c1.25-0.22,3.02-0.25,3.89,0.87
			c0.57,0.73,0.78,1.78,0.03,2.43C96.33,52.15,98.46,54.26,99.92,53.01L99.92,53.01z"/>
	</g>
</g>
<g>
	<g>
		<path class="st1" d="M113.81,52.67c0.95-2.68,3.76-3.98,6.4-4.38c2.79-0.43,6.05-0.02,8.38,1.68c1.17,0.85,1.9,2.05,1.7,3.53
			c-0.12,0.93-0.53,1.86-0.89,2.72c-0.31,0.75-0.64,1.56-1.15,2.2c-1.19,1.51-3.42,1.24-5.14,1.19c-2.2-0.07-4.38-0.31-6.53-0.75
			c-0.29-0.06-1.1-0.09-1.32-0.32c-0.18-0.18-0.06-0.44-0.01-0.72c0.19-0.95,0.46-1.85,0.38-2.83c-0.17-2.08-1.22-3.83-2.89-5.05
			c-0.66-0.48-1.67-0.11-2.05,0.54c-0.45,0.75-0.11,1.58,0.54,2.05c0.71,0.51,1.17,1.32,1.35,2.17c0.21,0.99-0.15,1.82-0.31,2.78
			c-0.19,1.15-0.08,2.3,0.8,3.16c0.82,0.8,2.02,0.98,3.09,1.19c2.6,0.51,5.26,0.78,7.91,0.8c2.33,0.01,4.7-0.2,6.31-2.09
			c0.72-0.83,1.19-1.8,1.62-2.8c0.47-1.11,0.97-2.25,1.19-3.45c0.39-2.14-0.2-4.18-1.7-5.76c-2.64-2.79-7.08-3.67-10.77-3.31
			c-4.23,0.41-8.31,2.45-9.81,6.65C110.27,53.69,113.17,54.48,113.81,52.67L113.81,52.67z"/>
	</g>
</g>
<g>
	<g>
		<path class="st1" d="M74.83,68.47c2.01-1,1.41-3.74-0.28-4.68c-0.9-0.5-2.02-0.59-3.02-0.68c-1.09-0.09-2.18-0.06-3.27,0.07
			c-2.23,0.28-4.39,0.95-6.34,2.07c-1.68,0.96-3.33,2.47-3.12,4.58c0.1,1,0.58,1.94,1.44,2.48c0.45,0.28,0.94,0.4,1.46,0.44
			c0.37,0.03,0.81-0.06,1.16,0.1c0.61,0.27,1.04,1.19,1.41,1.69c0.6,0.8,1.27,1.48,2.12,2.02c3.17,2.02,8.19,1.85,11.34-0.13
			c1.86-1.17,3-3.09,2.62-5.31c-0.34-1.93-1.9-3.56-3.92-3.54c-1.93,0.02-1.93,3.02,0,3c0.62-0.01,0.94,0.64,1.01,1.25
			c0.12,1.02-0.74,1.76-1.56,2.2c-2.01,1.09-4.93,1.25-7.05,0.41c-1.09-0.43-1.79-1.18-2.46-2.11c-0.74-1.04-1.57-2.1-2.88-2.42
			c-0.65-0.16-2.26,0.24-1.55-0.89c0.61-0.96,2.1-1.56,3.11-1.96c1.57-0.63,3.24-0.97,4.93-1c0.79-0.01,1.59,0.02,2.36,0.15
			c0.19,0.03,0.58,0.23,0.75,0.19c0,0,0.1,0.05,0.09,0.05c0.05-0.04-0.09-0.45,0.15-0.57C71.58,66.74,73.1,69.33,74.83,68.47
			L74.83,68.47z"/>
	</g>
</g>
<g>
	<g>
		<path class="st1" d="M73.31,85.29c-0.74-3.99-5.96-3.67-8.91-3.06c-2.01,0.42-3.97,1.14-5.78,2.11c-1.77,0.94-3.95,2.2-4.73,4.15
			c-0.73,1.83-0.09,3.9,1.22,5.3c1.43,1.53,3.56,2.1,5.57,2.36c4.09,0.54,8.5-0.17,11.61-3.07c1.52-1.42,2.67-3.35,3.01-5.41
			c0.17-1.06,0.23-2.11-0.38-3.05c-0.64-1-1.83-1.42-2.89-0.78c-1.65,1-0.14,3.59,1.51,2.59c-0.01,0.01-0.02,0.02-0.04,0.03
			c-0.27,0-0.53,0-0.8,0c-0.43-0.11-0.19-0.38-0.28-0.01c-0.05,0.21-0.03,0.47-0.07,0.69c-0.11,0.64-0.33,1.26-0.64,1.83
			c-0.56,1.04-1.37,1.95-2.34,2.63c-2.33,1.63-5.31,1.94-8.07,1.63c-1.26-0.14-2.68-0.41-3.7-1.21c-0.79-0.62-1.4-1.81-0.77-2.73
			c0.71-1.05,2.21-1.78,3.3-2.36c1.27-0.67,2.61-1.19,4-1.56c1.33-0.35,2.77-0.66,4.15-0.55c0.87,0.07,1.95,0.3,2.13,1.27
			C70.77,87.98,73.66,87.18,73.31,85.29L73.31,85.29z"/>
	</g>
</g>
<g>
	<g>
		<path class="st1" d="M78.91,105.06c0.18-0.95,0.36-1.89,0.54-2.84c0.19-1.03-0.42-1.8-1.45-1.9c-3.16-0.32-6.46,0.92-8.66,3.21
			c-1.27,1.32-2.25,3.05-1.92,4.94c0.28,1.59,1.5,2.84,2.83,3.67c2.61,1.61,6.03,1.92,8.94,0.99c2.67-0.85,6.43-3.26,5.5-6.58
			c-0.36-1.29-1.32-2.25-2.26-3.14c-0.42-0.4-0.86-0.79-1.22-1.25c0.14,0.18-0.05-0.07-0.08-0.12c-0.09-0.14-0.18-0.29-0.25-0.44
			c0.1,0.22,0.01,0,0-0.04c-0.03-0.09-0.05-0.18-0.07-0.28c0.02,0.16,0.03,0.15,0.01-0.04c-0.06-1.93-3.06-1.93-3,0
			c0.07,2.15,1.66,3.44,3.06,4.84c0.15,0.15,0.29,0.3,0.43,0.45c0.07,0.07,0.13,0.15,0.2,0.23c-0.13-0.18,0.01,0.02,0.03,0.05
			c0.03,0.05,0.29,0.53,0.18,0.27c0.03,0.08,0.06,0.18,0.09,0.26c0.09,0.34,0.05-0.21,0.02,0.16c-0.05,0.83-1.11,1.58-1.86,2.02
			c-1.92,1.14-4.29,1.42-6.43,0.8c-1-0.29-2.04-0.77-2.73-1.57c-0.74-0.85-0.46-1.73,0.18-2.57c1.63-2.14,4.38-3.12,7-2.86
			c-0.48-0.63-0.96-1.27-1.45-1.9c-0.18,0.95-0.36,1.89-0.54,2.84c-0.15,0.8,0.22,1.62,1.05,1.85
			C77.8,106.31,78.76,105.86,78.91,105.06L78.91,105.06z"/>
	</g>
</g>
<g>
	<g>
		<path class="st1" d="M128.53,108.79c-3.52-0.79-7.64-0.23-10.47,2.13c-1.24,1.03-2.28,2.6-2.22,4.27c0.06,1.75,1.2,3.16,2.76,3.86
			c3.38,1.53,7.77,1,11.06-0.5c2.73-1.25,5.42-4.21,4.15-7.4c-1.16-2.94-5.16-4.71-7.92-2.78c-0.66,0.47-0.97,1.31-0.54,2.05
			c0.38,0.65,1.39,1.01,2.05,0.54c0.64-0.45,1.11-0.47,1.83-0.28c0.6,0.16,1.29,0.67,1.6,1.18c0.34,0.56,0.42,1.14,0.02,1.9
			c-0.48,0.93-1.4,1.54-2.3,2c-2.23,1.13-5.11,1.47-7.55,0.94c-0.75-0.16-1.87-0.46-2.12-1.3c-0.25-0.84,0.54-1.7,1.12-2.21
			c1.99-1.74,5.24-2.07,7.73-1.51C129.61,112.1,130.42,109.21,128.53,108.79L128.53,108.79z"/>
	</g>
</g>
<g>
	<g>
		<path class="st1" d="M42.61,142.28c-2.45,0.44-4.46,2.57-5,4.97c-0.64,2.89,0.85,5.39,3.1,7.1c2.08,1.59,5.12,3.19,7.58,1.46
			c1.99-1.4,2.82-4.05,2.77-6.4c-0.07-3.31-1.31-6.66-3.26-9.31c-0.48-0.65-1.3-0.98-2.05-0.54c-0.64,0.38-1.02,1.4-0.54,2.05
			c1.34,1.81,2.24,3.84,2.66,6.06c0.31,1.68,0.29,3.43-0.54,4.84c-0.35,0.6-0.69,0.93-1.29,1.05c-0.03,0.01-0.23,0.03-0.44,0.01
			c-0.22-0.03-0.46-0.11-0.67-0.18c-0.5-0.19-0.98-0.48-1.44-0.75c-1.46-0.88-3.07-2.24-3.06-3.98c0.01-1.66,1.28-3.17,2.96-3.47
			c0.8-0.14,1.25-1.12,1.05-1.85C44.23,142.49,43.41,142.14,42.61,142.28L42.61,142.28z"/>
	</g>
</g>
<g>
	<g>
		<path class="st1" d="M65.69,142.4c-1.26-0.79-2.8-0.7-4.11-0.09c-1.23,0.58-2.13,1.69-2.69,2.91c-0.58,1.27-1.09,2.71-1.23,4.1
			c-0.16,1.54,0.59,2.87,1.9,3.65c1.12,0.67,2.52,1.11,3.77,1.45c1.4,0.38,2.89,0.54,4.32,0.19c2.73-0.69,4.63-3.19,3.93-6.03
			c-0.79-3.25-4-4.61-6.86-5.57c-0.77-0.26-1.64,0.3-1.85,1.05c-0.22,0.82,0.28,1.59,1.05,1.85c0.95,0.32,1.79,0.59,2.62,1.05
			c0.79,0.43,1.41,0.93,1.81,1.6c0.23,0.39,0.27,0.5,0.37,0.98c0.07,0.32,0.01,0.13,0.01,0.07c0.01,0.1,0,0.21,0.01,0.31
			c0.01,0.26-0.01,0.16,0.01,0.07c-0.02,0.16-0.07,0.31-0.12,0.46c0.02-0.06,0.12-0.22-0.02,0.04c-0.05,0.08-0.1,0.17-0.14,0.25
			c-0.14,0.24-0.07,0.1-0.02,0.04c-0.06,0.07-0.13,0.14-0.2,0.21c-0.07,0.07-0.14,0.13-0.21,0.2c0.17-0.15-0.01,0.01-0.05,0.03
			c-0.21,0.13-0.42,0.26-0.65,0.36c0.22-0.1-0.3,0.09-0.34,0.11c-0.19,0.05-0.39,0.1-0.59,0.13c0.25-0.04,0,0-0.05,0
			c-0.11,0-0.23,0.01-0.34,0.01c-0.24,0-0.58-0.01-0.76-0.04c-1.09-0.14-2.16-0.56-3.18-0.94c-0.2-0.08-0.41-0.15-0.61-0.24
			c0.2,0.09-0.3-0.16-0.34-0.18c-0.09-0.05-0.18-0.1-0.26-0.16c0.05,0.03,0.2,0.14-0.05-0.04c-0.03-0.02-0.19-0.21-0.05-0.03
			c-0.03-0.04-0.15-0.28-0.14-0.24c0.04,0.1-0.02-0.3-0.01-0.09c-0.01-0.11,0-0.24,0.01-0.35c-0.01,0.07,0.08-0.4,0.1-0.48
			c0.12-0.48,0.27-0.96,0.43-1.43c0.28-0.87,0.68-1.8,1.28-2.31c-0.11,0.09,0.14-0.1,0.16-0.11c0.11-0.07,0.22-0.13,0.34-0.19
			c0.29-0.15,0.13-0.05,0.07-0.03c0.14-0.05,0.29-0.09,0.44-0.12c-0.27,0.05,0.54,0.04,0.24-0.01c0.1,0.02,0.19,0.04,0.29,0.07
			c-0.23-0.07,0.13,0.08,0.18,0.11c0.69,0.43,1.65,0.15,2.05-0.54C66.65,143.73,66.38,142.83,65.69,142.4L65.69,142.4z"/>
	</g>
</g>
<g>
	<g>
		<path class="st1" d="M85.63,143.13c-2.34-0.28-4.87,0.76-6.4,2.53c-0.92,1.07-1.55,2.34-1.66,3.76c-0.12,1.43,0.58,2.8,1.7,3.66
			c1.87,1.45,4.42,1.68,6.58,0.77c2.21-0.93,3.69-3.17,3.13-5.6c-0.56-2.4-3.29-4.63-5.8-3.58c-0.72,0.3-1.32,1.01-1.05,1.85
			c0.22,0.69,1.07,1.37,1.85,1.05c0.17-0.07,0.35-0.1,0.52-0.16c0.18-0.07-0.37,0-0.06,0.02c0.03,0,0.26,0.03,0.28,0.01
			c-0.03,0.02-0.37-0.08-0.12-0.01c0.09,0.03,0.18,0.05,0.28,0.08c0.27,0.07-0.1-0.02-0.09-0.04c0-0.01,0.32,0.17,0.34,0.18
			c0.06,0.04,0.29,0.11,0.09,0.05c-0.18-0.06,0.01,0.01,0.08,0.07c0.13,0.11,0.24,0.24,0.35,0.36c0.24,0.25-0.16-0.27,0.02,0.02
			c0.04,0.06,0.08,0.11,0.11,0.17c0.05,0.09,0.1,0.18,0.15,0.27c0.03,0.06,0.06,0.12,0.09,0.19c-0.02-0.06-0.05-0.11-0.07-0.17
			c0.08,0.03,0.13,0.46,0.15,0.54c0.08,0.31-0.03-0.05,0-0.05c0.01,0,0.01,0.28,0.01,0.3c0,0.03-0.01,0.2-0.01,0.2
			c-0.02,0,0.08-0.36-0.01,0c-0.02,0.07-0.04,0.13-0.06,0.2c-0.06,0.15-0.04,0.13,0.04-0.07c-0.03,0.06-0.06,0.13-0.09,0.19
			c-0.03,0.06-0.19,0.42-0.27,0.43c0.04-0.05,0.07-0.09,0.11-0.14c-0.04,0.05-0.09,0.1-0.13,0.15c-0.04,0.05-0.09,0.1-0.14,0.15
			c-0.07,0.07-0.15,0.14-0.22,0.21c-0.21,0.19,0.06-0.04,0.06-0.05c-0.05,0.12-0.4,0.26-0.52,0.33c-0.05,0.03-0.22,0.14-0.28,0.14
			c0.19,0.02,0.22-0.08,0.02-0.01c-0.18,0.06-0.36,0.12-0.55,0.17c-0.07,0.02-0.14,0.03-0.21,0.05c-0.13,0.03-0.36,0.15-0.02,0.01
			c-0.17,0.07-0.46,0.04-0.64,0.04c-0.18,0-0.35-0.01-0.53-0.02c-0.36-0.02,0.33,0.08-0.02,0c-0.07-0.02-0.14-0.03-0.21-0.04
			c-0.17-0.04-0.34-0.09-0.51-0.14c-0.06-0.02-0.38-0.16-0.06-0.02c-0.11-0.05-0.22-0.1-0.33-0.16c-0.11-0.06-0.21-0.12-0.32-0.19
			c-0.01,0-0.31-0.25-0.15-0.1c0.17,0.15-0.12-0.12-0.12-0.12c-0.09-0.08-0.17-0.17-0.24-0.27c0.26,0.33-0.19-0.48-0.04-0.06
			c-0.03-0.08-0.06-0.17-0.08-0.26c-0.02-0.09-0.04-0.17-0.06-0.26c0.03,0.18,0.03,0.18,0.02,0c0-0.09,0.01-0.18,0.01-0.27
			c0-0.4-0.09,0.25,0.02-0.14c0.06-0.22,0.12-0.44,0.2-0.65c-0.11,0.3,0.05-0.1,0.07-0.14c0.04-0.07,0.07-0.14,0.11-0.21
			c0.06-0.1,0.12-0.21,0.19-0.3c0.07-0.11,0.21-0.28,0.05-0.08c0.15-0.19,0.31-0.36,0.48-0.53c0.08-0.08,0.17-0.17,0.26-0.24
			c0.1-0.09,0.27-0.22,0.07-0.07c0.39-0.29,0.8-0.53,1.24-0.72c-0.34,0.15,0.03,0,0.09-0.03c0.13-0.05,0.26-0.09,0.4-0.13
			c0.23-0.06,0.46-0.11,0.7-0.15c0.23-0.04-0.37,0.02,0.02,0c0.14,0,0.28-0.02,0.42-0.02c0.26,0,0.52,0.01,0.77,0.05
			c0.78,0.09,1.53-0.76,1.5-1.5C87.09,143.74,86.46,143.23,85.63,143.13L85.63,143.13z"/>
	</g>
</g>
<g>
	<g>
		<path class="st1" d="M98.07,144.7c-2.1,1.07-2.86,3.7-2.29,5.87c0.63,2.43,2.83,3.98,5.05,4.83c2.48,0.95,5.55,1.16,7.66-0.72
			c1.96-1.74,2.13-4.74,0.17-6.54c-0.98-0.91-2.23-1.45-3.52-1.75c-1.3-0.3-2.76-0.42-3.88-1.06c-0.7-0.4-1.64-0.17-2.05,0.54
			c-0.41,0.69-0.17,1.65,0.54,2.05c1.79,1.01,3.82,0.98,5.7,1.68c0.47,0.17,1.24,0.69,1.43,1.03c0.04,0.06,0.07,0.13,0.11,0.19
			c0.11,0.21-0.05-0.18,0.02,0.05c0.03,0.09,0.08,0.48,0.07,0.28c0.01,0.34-0.04,0.51-0.2,0.79c-0.01,0.02-0.18,0.29-0.1,0.17
			c0.08-0.12-0.11,0.13-0.13,0.15c-0.04,0.04-0.37,0.36-0.23,0.24c-0.38,0.31-0.68,0.41-1.1,0.51c-0.79,0.19-1.7,0.06-2.52-0.16
			c-1.58-0.41-3.15-1.18-3.9-2.53c-0.05-0.09-0.1-0.18-0.14-0.27c0.09,0.19,0,0-0.03-0.1c-0.06-0.2-0.12-0.41-0.14-0.62
			c0.04,0.29,0-0.22,0.01-0.31c0-0.09,0.01-0.19,0.01-0.28c0.02-0.39-0.08,0.21,0.03-0.16c0.05-0.18,0.09-0.36,0.16-0.53
			c-0.09,0.24-0.01,0.03,0.01-0.02c0.06-0.1,0.11-0.19,0.17-0.29c0.11-0.2-0.14,0.15,0.01-0.02c0.07-0.08,0.15-0.16,0.23-0.24
			c0.19-0.2,0.07-0.06,0.01-0.02c0.12-0.08,0.23-0.14,0.36-0.21c0.72-0.37,0.93-1.38,0.54-2.05
			C99.69,144.51,98.79,144.33,98.07,144.7L98.07,144.7z"/>
	</g>
</g>
<g>
	<g>
		<path class="st1" d="M129.67,146c-2.52-0.57-5.19,0.01-7.19,1.67c-0.96,0.8-1.7,2.02-1.68,3.29c0.02,1.49,1.1,2.58,2.44,3.04
			c1.12,0.39,2.44,0.44,3.62,0.49c1.4,0.07,2.82-0.08,4.1-0.65c2.18-0.96,3.84-3.41,3.09-5.84c-0.79-2.55-3.51-3.73-5.98-3.95
			c-0.81-0.07-1.5,0.74-1.5,1.5c0,0.87,0.69,1.43,1.5,1.5c0.09,0.01,0.18,0.02,0.27,0.03c-0.07-0.01-0.28-0.06,0.01,0.01
			c0.18,0.04,0.36,0.07,0.55,0.12c0.16,0.04,0.32,0.09,0.47,0.14c0.09,0.03,0.18,0.06,0.26,0.1c0.23,0.09-0.29-0.16,0.09,0.04
			c0.14,0.08,0.29,0.15,0.42,0.23c0.08,0.05,0.15,0.1,0.23,0.15c0.03,0.02,0.26,0.19,0.12,0.08c-0.14-0.11,0.07,0.07,0.1,0.09
			c0.05,0.05,0.1,0.09,0.14,0.13c0.06,0.06,0.12,0.13,0.18,0.19c0.26,0.28-0.08-0.13,0.04,0.05c0.04,0.07,0.09,0.14,0.13,0.22
			c0.02,0.04,0.13,0.28,0.06,0.11c-0.06-0.14,0.06,0.24,0.08,0.31c0.08,0.27,0,0.06,0-0.01c0,0.1,0,0.2,0.01,0.29
			c0,0.06-0.05,0.28,0,0.03c-0.02,0.12-0.06,0.23-0.09,0.35c-0.05,0.16,0.01,0.01,0.02-0.02c-0.04,0.09-0.09,0.18-0.13,0.26
			c-0.03,0.05-0.34,0.47-0.19,0.3c-0.13,0.15-0.27,0.29-0.42,0.43c0,0-0.19,0.15-0.08,0.07c0.11-0.08-0.19,0.13-0.22,0.14
			c-0.17,0.11-0.35,0.21-0.53,0.29c0.07-0.03,0.21-0.06-0.06,0.02c-0.12,0.04-0.24,0.08-0.36,0.11c-0.47,0.13-0.8,0.17-1.27,0.19
			c-0.97,0.04-1.95-0.07-2.91-0.17c-0.24-0.03,0.22,0.04-0.03,0c-0.1-0.02-0.19-0.03-0.29-0.05c-0.17-0.03-0.33-0.08-0.49-0.12
			c-0.26-0.06-0.12-0.03-0.04,0c-0.09-0.04-0.16-0.09-0.24-0.13c-0.09-0.05-0.2-0.05-0.02-0.01c-0.03-0.03-0.06-0.06-0.09-0.1
			c0.08,0.11,0.09,0.12,0.03,0.03c-0.1-0.2,0.02,0.19-0.01-0.04c-0.03-0.18-0.01,0.03,0,0.05c-0.07-0.09,0.02-0.21-0.01-0.03
			c0.02-0.09,0.05-0.19,0.08-0.28c-0.02,0.07-0.12,0.2,0.03-0.05c0.05-0.09,0.1-0.18,0.16-0.26c0,0,0.15-0.19,0.07-0.1
			c-0.07,0.09,0.17-0.17,0.19-0.2c1.12-1.1,3.07-1.49,4.56-1.15c0.79,0.18,1.62-0.24,1.85-1.05
			C130.92,147.09,130.46,146.18,129.67,146L129.67,146z"/>
	</g>
</g>
<g>
	<g>
		<path class="st1" d="M147.75,145.29c-1.72,0.89-2.56,3.17-1.85,4.96c0.87,2.19,3.34,2.97,5.5,3.14c2.19,0.17,4.37-0.62,5.71-2.4
			c1.23-1.65,1.39-4,0.06-5.63c-0.6-0.74-1.54-1.3-2.49-1.45c-1.21-0.2-2.28,0.06-3.22,0.85c-0.6,0.51-0.56,1.61,0,2.12
			c0.64,0.59,1.48,0.54,2.12,0c-0.23,0.19,0,0.05,0.09-0.03c0.12-0.12-0.24,0.05-0.07,0.03c0.04,0,0.11-0.03,0.15-0.04
			c0.24-0.09-0.12,0.04-0.09,0c0.01-0.01,0.14-0.01,0.16-0.01c0.07,0,0.14,0,0.21,0c0.1,0,0.21,0.07,0.06,0
			c-0.19-0.09-0.01,0,0.06,0.02c0.05,0.02,0.1,0.03,0.16,0.04c0.07,0.02,0.14,0.05,0.2,0.07c-0.03-0.01-0.23-0.13-0.11-0.04
			c0.09,0.07,0.23,0.13,0.33,0.19c0.22,0.14-0.01,0-0.05-0.04c0.05,0.05,0.11,0.1,0.16,0.15c0.05,0.05,0.1,0.11,0.15,0.16
			c-0.04-0.04-0.16-0.26-0.04-0.04c0.05,0.09,0.11,0.19,0.15,0.28c-0.18-0.34,0,0.09,0.03,0.2c0.01,0.04,0.01,0.23,0.01,0.04
			c0-0.22-0.01,0.16-0.01,0.17c0,0.06-0.01,0.12-0.01,0.18c0.01,0.22,0.06-0.24,0.01-0.03c-0.04,0.14-0.06,0.28-0.11,0.42
			c-0.02,0.06-0.04,0.12-0.06,0.18c-0.06,0.21,0.12-0.2,0-0.01c-0.09,0.14-0.16,0.3-0.25,0.44c-0.03,0.05-0.07,0.1-0.11,0.16
			c0.16-0.23,0.04-0.05,0-0.01c-0.1,0.11-0.2,0.22-0.31,0.32c-0.05,0.04-0.1,0.08-0.14,0.12c0.2-0.18,0.06-0.04,0-0.01
			c-0.16,0.1-0.31,0.19-0.47,0.27c-0.04,0.02-0.26,0.11-0.04,0.03c-0.07,0.03-0.14,0.05-0.21,0.07c-0.16,0.05-0.33,0.1-0.49,0.14
			c-0.1,0.02-0.19,0.04-0.29,0.06c-0.01,0-0.25,0.03-0.09,0.01c0.18-0.02-0.13,0.01-0.17,0.01c-0.1,0.01-0.2,0.01-0.3,0.01
			c-0.17,0-0.35,0-0.52-0.01c-0.1-0.01-0.2-0.01-0.3-0.02c-0.01,0-0.25-0.03-0.1-0.01c0.17,0.02-0.13-0.02-0.17-0.03
			c-0.07-0.01-0.15-0.03-0.22-0.04c-0.19-0.04-0.38-0.09-0.57-0.14c-0.18-0.05-0.36-0.11-0.53-0.17c-0.26-0.09,0.08,0.06-0.15-0.07
			c-0.16-0.09-0.32-0.18-0.48-0.28c0.02,0.02,0.16,0.14,0.03,0.02c-0.09-0.08-0.17-0.15-0.24-0.24c-0.01-0.02-0.13-0.19-0.05-0.06
			c0.09,0.14-0.06-0.13-0.08-0.15c0.01,0.02,0.07,0.26,0.04,0.1c-0.02-0.09-0.05-0.18-0.08-0.27c-0.07-0.2-0.05,0.01,0,0.07
			c-0.03-0.03-0.01-0.18-0.01-0.22c0-0.07,0.01-0.15,0.01-0.22c0,0.11-0.05,0.25,0,0.06c0.04-0.15,0.08-0.29,0.13-0.43
			c-0.13,0.35,0.09-0.1,0.14-0.19c0.07-0.14-0.05,0.07-0.06,0.08c0.06-0.05,0.15-0.13,0.2-0.2c0.09-0.12-0.05,0.04-0.09,0.06
			c0.1-0.05,0.19-0.12,0.29-0.17c0.7-0.36,0.96-1.4,0.54-2.05C149.34,145.11,148.49,144.9,147.75,145.29L147.75,145.29z"/>
	</g>
</g>
<g>
	<g>
		<path class="st1" d="M173.33,143.94c-2.68-0.51-5.25,1.07-6.24,3.58c-0.21,0.54-0.33,1.13-0.34,1.72
			c-0.02,0.93,0.23,1.71,1.08,2.17c0.97,0.54,2.04,0.89,3.14,1.04c2.26,0.32,4.55-0.09,6.56-1.16c0.96-0.52,1.88-1.21,2.6-2.03
			c0.88-0.99,1.91-2.38,1.59-3.79c-0.38-1.71-2.37-2.21-3.86-2.49c-1.79-0.34-3.56-0.34-5.35-0.03c-0.8,0.14-1.25,1.12-1.05,1.85
			c0.23,0.85,1.04,1.18,1.85,1.05c1.01-0.17,2.06-0.18,3.08-0.07c0.44,0.05,0.88,0.14,1.32,0.25c0.28,0.07,0.56,0.15,0.84,0.24
			c0.06,0.02,0.47,0.11,0.29,0.1c0.15,0.1,0.18,0.11,0.08,0.03c-0.07-0.1-0.12-0.2-0.13-0.32c-0.07-0.05-0.04,0.06-0.11,0.13
			c-0.13,0.14-0.22,0.36-0.33,0.53c-0.06,0.08-0.12,0.17-0.18,0.25c0.08-0.1,0.06-0.08-0.06,0.06c-0.48,0.55-0.98,0.99-1.43,1.28
			c-0.3,0.2-0.62,0.38-0.94,0.54c-0.09,0.05-0.19,0.09-0.28,0.13c0.12-0.05,0.1-0.04-0.07,0.03c-0.14,0.06-0.29,0.11-0.44,0.16
			c-0.81,0.27-1.38,0.37-2.04,0.4c-1.42,0.07-2.64-0.19-3.83-0.9c0.23,0.3,0.46,0.6,0.69,0.9c0.04,0.2-0.01-0.12-0.01-0.16
			c0-0.13,0-0.27,0.01-0.4c-0.02,0.2,0.02-0.08,0.04-0.15c0.03-0.13,0.07-0.26,0.12-0.38c-0.06,0.14,0.02-0.04,0.04-0.08
			c0.06-0.12,0.13-0.24,0.2-0.35c0.13-0.21,0.14-0.22,0.38-0.45c0.19-0.19,0.25-0.24,0.39-0.33c0.11-0.07,0.23-0.14,0.35-0.2
			c0.05-0.03,0.33-0.14,0.15-0.08c0.12-0.05,0.25-0.08,0.38-0.12c0.04-0.01,0.37-0.06,0.15-0.04c0.11-0.01,0.21-0.01,0.32-0.01
			c0.38-0.02-0.14-0.05,0.24,0.02c0.8,0.15,1.62-0.22,1.85-1.05C174.58,145.05,174.13,144.09,173.33,143.94L173.33,143.94z"/>
	</g>
</g>
<g>
	<g>
		<path class="st1" d="M54.61,162.8c-1.04,0.94-1.96,1.98-2.79,3.11c-0.86,1.16-1.52,2.57-0.63,3.93c0.69,1.06,2.1,1.64,3.25,2.06
			c1.05,0.38,2.16,0.58,3.27,0.64c2.23,0.13,4.5-0.39,6.47-1.42c1.89-1,4.5-3.02,4.42-5.39c-0.05-1.56-1.25-2.8-2.66-3.31
			c-1.6-0.58-3.31-0.03-4.81,0.58c-0.75,0.3-1.28,1-1.05,1.85c0.2,0.71,1.09,1.35,1.85,1.05c0.88-0.36,2.29-1.09,3.24-0.55
			c0.73,0.42,0.31,0.89-0.16,1.4c-1.26,1.38-2.94,2.25-4.76,2.64c-1.71,0.37-3.6,0.23-5.22-0.44c-0.19-0.08-0.37-0.17-0.55-0.26
			c-0.1-0.05-0.65-0.45-0.73-0.42c-0.07-0.08-0.08-0.07-0.02,0.05c0,0.14,0.01,0.18,0.04,0.1c0.12-0.07,0.33-0.52,0.41-0.65
			c0.73-1.04,1.61-1.97,2.55-2.82C58.16,163.62,56.04,161.51,54.61,162.8L54.61,162.8z"/>
	</g>
</g>
<g>
	<g>
		<path class="st1" d="M93.04,163.08c-3.13-0.08-6.09,1.54-7.8,4.14c-0.36,0.55-0.22,1.36,0.23,1.82c2.74,2.75,7.03,3.42,10.54,1.84
			c0.9-0.41,1.82-1.02,2.35-1.88c0.59-0.98,0.61-2.14,0.12-3.16c-0.89-1.86-3.07-2.65-4.98-2.89c-2.45-0.31-4.99,0.02-7.28,0.95
			c-0.75,0.31-1.28,1-1.05,1.85c0.2,0.71,1.09,1.36,1.85,1.05c1.6-0.65,3.18-0.98,4.87-0.96c0.78,0.01,1.47,0.05,2.19,0.25
			c0.17,0.05,0.33,0.1,0.49,0.16c0.16,0.06,0.02,0.01-0.01-0.01c0.09,0.04,0.18,0.09,0.27,0.13c0.13,0.07,0.26,0.15,0.39,0.23
			c0,0,0.2,0.14,0.09,0.05c-0.12-0.09,0.16,0.13,0.18,0.16c0.1,0.09,0.2,0.19,0.28,0.3c-0.23-0.29,0.13,0.27,0.03,0.07
			c-0.06-0.13,0.02,0.39,0.03,0.02c0,0.03,0.02,0.16,0,0.19c-0.12,0.14,0.13-0.18-0.01-0.02c0.03-0.04-0.07,0.14-0.02,0.07
			c-0.09,0.12-0.23,0.24-0.35,0.33c0.14-0.11-0.08,0.04-0.09,0.05c-0.07,0.04-0.13,0.08-0.2,0.12c-0.17,0.1-0.35,0.2-0.53,0.28
			c-0.07,0.03-0.14,0.07-0.21,0.09c0.03-0.01,0.17-0.07,0.01-0.01c-0.17,0.06-0.33,0.12-0.5,0.17c-0.34,0.1-0.68,0.18-1.03,0.23
			c0.24-0.04-0.21,0.01-0.27,0.02c-0.15,0.01-0.3,0.02-0.45,0.02c-0.18,0-0.35,0-0.53-0.01c-0.08,0-0.15-0.01-0.23-0.02
			c-0.05,0-0.38-0.04-0.13-0.01c-0.37-0.05-0.74-0.14-1.1-0.24c-0.19-0.06-0.38-0.12-0.57-0.19c-0.07-0.03-0.14-0.05-0.21-0.08
			c0.15,0.06,0.01,0-0.05-0.03c-0.36-0.19-0.7-0.38-1.04-0.6c0,0-0.2-0.14-0.09-0.06c0.09,0.07-0.12-0.1-0.14-0.12
			c-0.17-0.15-0.34-0.3-0.5-0.46c0.08,0.61,0.16,1.21,0.23,1.82c0.18-0.28,0.23-0.34,0.39-0.53c0.19-0.22,0.4-0.43,0.62-0.63
			c0.37-0.34,0.72-0.57,1.27-0.86c0.89-0.46,1.86-0.68,2.94-0.65c0.81,0.02,1.5-0.7,1.5-1.5C94.54,163.75,93.85,163.1,93.04,163.08
			L93.04,163.08z"/>
	</g>
</g>
<g>
	<g>
		<path class="st1" d="M120.06,164.55c-1.59-0.44-3.64-0.71-5.09,0.31c-0.89,0.63-1.51,1.65-1.46,2.77
			c0.04,1.05,0.56,2.06,1.36,2.74c0.91,0.77,2.03,1.18,3.22,1.1c1.21-0.08,2.31-0.5,3.39-1.02c0.95-0.46,2-0.96,2.5-1.94
			c0.5-1,0.39-2.19-0.19-3.13c-0.7-1.13-1.79-1.74-3.09-1.88c-1.29-0.15-2.56,0.33-3.72,0.82c-0.38,0.16-0.68,0.32-0.9,0.69
			c-0.19,0.32-0.27,0.8-0.15,1.16c0.22,0.69,1.07,1.37,1.85,1.05c0.37-0.16,0.74-0.31,1.13-0.44c0.17-0.06,0.34-0.11,0.51-0.16
			c0.11-0.03,0.21-0.06,0.32-0.08c0.05-0.01,0.45-0.06,0.25-0.05c-0.2,0.01,0.08,0,0.13,0c0.11,0,0.22,0,0.32,0
			c0.07,0,0.28,0.04-0.01-0.01c0.09,0.02,0.17,0.03,0.26,0.05c-0.01,0,0.18,0.06,0.18,0.06c-0.06,0.06-0.31-0.18-0.06-0.02
			c0.07,0.04,0.14,0.08,0.2,0.12c0.22,0.13-0.12-0.16-0.04-0.03c0.03,0.06,0.12,0.12,0.17,0.17c0.16,0.15-0.1-0.02-0.05-0.08
			c0,0,0.18,0.3,0.2,0.32c0.15,0.25-0.04-0.24-0.03-0.06c0,0.06,0.04,0.15,0.06,0.22c0.06,0.19-0.09-0.02-0.02-0.14
			c0,0.03,0,0.06,0,0.09c-0.01,0.16,0,0.12,0.03-0.14c-0.02,0.02-0.04,0.15-0.04,0.17c-0.05,0.23,0.03-0.08,0.05-0.11
			c-0.11,0.23,0.06-0.05,0.07-0.06c-0.02,0.07-0.15,0.15-0.2,0.2c-0.14,0.14,0.29-0.15-0.02,0c-0.07,0.03-0.13,0.08-0.2,0.12
			c-0.18,0.1-0.36,0.19-0.54,0.28c-0.16,0.08-0.32,0.16-0.48,0.24c-0.1,0.05-0.2,0.1-0.3,0.14c-0.07,0.03-0.34,0.15-0.07,0.04
			c-0.37,0.15-0.74,0.28-1.13,0.37c-0.11,0.02-0.21,0.04-0.32,0.06c-0.22,0.05,0.24,0,0.01-0.01c-0.19,0-0.39,0.01-0.58,0
			c-0.35-0.01,0.02-0.02,0.04,0.01c0-0.01-0.17-0.04-0.2-0.05c-0.08-0.02-0.16-0.05-0.24-0.08c-0.1-0.04-0.06-0.02,0.12,0.05
			c-0.05-0.02-0.09-0.05-0.14-0.07c-0.06-0.03-0.12-0.07-0.18-0.11c-0.01-0.01-0.03-0.02-0.04-0.03c-0.13-0.09-0.11-0.08,0.06,0.05
			c-0.09-0.01-0.23-0.22-0.3-0.28c-0.22-0.21,0.05,0.07,0.04,0.07c-0.04-0.01-0.11-0.17-0.14-0.21c-0.01-0.02-0.12-0.21-0.11-0.22
			c0,0,0.15,0.35,0.04,0.04c-0.09-0.25,0.09-0.06-0.01,0.07c0.01-0.01-0.01-0.19-0.01-0.19c-0.03-0.27,0.02,0.1-0.03,0.12
			c0,0,0.04-0.17,0.05-0.19c0.06-0.29-0.13,0.16-0.02,0.05c0.02-0.02,0.11-0.16,0.11-0.19c0,0.04-0.25,0.26-0.08,0.11
			c0.05-0.05,0.15-0.11,0.18-0.17c-0.02,0.04-0.3,0.19-0.1,0.09c0.04-0.02,0.19-0.09,0.22-0.12c-0.02,0.03-0.35,0.12-0.12,0.06
			c0.08-0.02,0.16-0.05,0.25-0.07c0.06-0.01,0.12-0.02,0.17-0.04c0.31-0.07-0.36,0.02-0.04,0c0.16-0.01,0.31-0.02,0.47-0.02
			c0.16,0,0.32,0.01,0.48,0.02c0.07,0.01,0.31,0.09,0.09,0.01c-0.23-0.08,0.02,0,0.09,0.02c0.35,0.06,0.69,0.14,1.02,0.23
			c0.76,0.21,1.67-0.26,1.85-1.05C121.29,165.6,120.87,164.77,120.06,164.55L120.06,164.55z"/>
	</g>
</g>
<g>
	<g>
		<path class="st1" d="M140.71,164.76c-2.04-0.26-3.24,2.17-2.77,3.89c0.54,1.95,2.72,2.62,4.49,2.86c3.27,0.44,7.14-0.21,8.94-3.29
			c0.43-0.74,0.13-1.59-0.54-2.05c-2.35-1.63-5.42-2.09-8.16-1.31c-0.78,0.22-1.26,1.06-1.05,1.85c0.21,0.78,1.06,1.27,1.85,1.05
			c0.59-0.17,0.94-0.24,1.45-0.26c0.28-0.01,0.57-0.01,0.85,0c0.14,0.01,0.28,0.02,0.43,0.03c0.3,0.03-0.33-0.07,0.19,0.03
			c1.16,0.22,1.97,0.54,2.93,1.21c-0.18-0.68-0.36-1.37-0.54-2.05c-0.07,0.12-0.15,0.24-0.22,0.36c-0.18,0.27,0.11-0.08-0.11,0.13
			c-0.1,0.09-0.19,0.2-0.29,0.29c-0.02,0.02-0.36,0.29-0.11,0.11c-0.22,0.16-0.45,0.3-0.69,0.43c-0.12,0.06-0.25,0.12-0.37,0.18
			c0.24-0.1-0.1,0.03-0.16,0.05c-0.27,0.09-0.54,0.17-0.82,0.23c-0.14,0.03-0.28,0.05-0.42,0.08c-0.28,0.05,0.06,0-0.11,0.02
			c-0.58,0.06-1.17,0.08-1.76,0.06c-0.27-0.01-0.53-0.04-0.8-0.06c-0.36-0.03,0.16,0.03-0.17-0.02c-0.15-0.03-0.3-0.05-0.44-0.08
			c-0.3-0.06-0.59-0.14-0.88-0.24c-0.37-0.13,0.14,0.11-0.19-0.09c-0.01-0.01-0.38-0.26-0.18-0.09c-0.01-0.01-0.32-0.32-0.16-0.12
			c-0.03-0.04-0.05-0.08-0.08-0.12c-0.08-0.15-0.08-0.14,0.01,0.04c-0.01-0.32-0.02,0.29-0.01-0.06c0-0.3-0.11,0.24,0.01-0.07
			c0.11-0.28-0.17,0.19,0.02-0.07c0.17-0.23-0.13,0.12,0-0.01c0.08-0.08,0.05-0.06-0.1,0.06c0.12-0.07,0.12-0.07,0.01-0.02
			c-0.23,0.07-0.36,0.03-0.05,0.07c0.8,0.1,1.5-0.76,1.5-1.5C142.21,165.37,141.51,164.87,140.71,164.76L140.71,164.76z"/>
	</g>
</g>
<g>
	<g>
		<path class="st1" d="M174.51,162.65c-3.37-0.57-6.9,0.52-9.19,3.1c-0.66,0.74-0.54,1.81,0.3,2.36c1.73,1.11,3.69,1.73,5.72,1.92
			c1.87,0.18,4.12,0,5.74-1.04c0.82-0.53,1.54-1.29,1.76-2.27c0.23-0.99-0.08-2.06-0.81-2.78c-1.26-1.24-3.29-1.16-4.89-0.83
			c-0.79,0.16-1.25,1.1-1.05,1.85c0.23,0.82,1.05,1.21,1.85,1.05c0.13-0.03,0.26-0.05,0.39-0.07c-0.32,0.05,0.08-0.01,0.15-0.01
			c0.28-0.02,0.55-0.01,0.83-0.01c0.39,0-0.24-0.08,0.13,0.01c0.12,0.03,0.25,0.06,0.37,0.09c0.35,0.09-0.22-0.13,0.08,0.04
			c0.27,0.15-0.21-0.15,0.06,0.04c-0.17-0.12-0.07-0.12,0.02,0.07c-0.02-0.04-0.04-0.09-0.07-0.13c0.04,0.16,0.04,0.16,0.01,0.01
			c0.01-0.04,0.02-0.08,0.03-0.13c-0.05,0.17-0.04,0.17,0.02,0.03c-0.01,0.03-0.21,0.32-0.11,0.2c0.14-0.18-0.29,0.27-0.14,0.14
			c0.06-0.05-0.23,0.15-0.29,0.19c-0.06,0.04-0.37,0.2-0.31,0.17c0.06-0.03-0.26,0.09-0.33,0.11c-2.54,0.76-5.41,0.2-7.66-1.25
			c0.1,0.79,0.2,1.57,0.3,2.36c0.45-0.5,0.85-0.88,1.33-1.2c0.53-0.35,1.03-0.61,1.52-0.78c0.29-0.1,0.59-0.19,0.89-0.26
			c0.32-0.07,0.59-0.12,0.76-0.14c0.34-0.03,0.67-0.04,1.01-0.03c0.14,0,0.28,0.01,0.42,0.02c0.27,0.02,0.14,0.01,0.35,0.04
			c0.8,0.14,1.62-0.21,1.85-1.05C175.75,163.78,175.31,162.79,174.51,162.65L174.51,162.65z"/>
	</g>
</g>
<g>
	<g>
		<path class="st1" d="M76.78,177.24c-3.05-0.84-6.89,0.14-8.21,3.27c-1.24,2.92,0.17,6.58,3.47,7.2c1.71,0.32,3.55,0.16,5.26-0.07
			c1.78-0.24,3.51-0.78,4.91-1.94c2.35-1.94,3.22-6,0.69-8.17c-1.48-1.27-3.47-1.57-5.36-1.53c-2.13,0.04-4.25,0.46-6.23,1.25
			c-0.75,0.3-1.28,1-1.05,1.85c0.2,0.72,1.09,1.35,1.85,1.05c1.28-0.51,2.64-0.91,4.02-1.06c1.24-0.13,2.56-0.18,3.64,0.12
			c0.43,0.12,0.86,0.31,1.13,0.56c0.36,0.33,0.45,0.51,0.54,1.02c0.04,0.25,0.03-0.31,0,0.13c-0.01,0.1,0,0.21,0,0.3
			c0,0.42,0.07-0.2-0.03,0.21c-0.02,0.1-0.05,0.2-0.07,0.3c-0.13,0.45-0.31,0.82-0.59,1.19c-0.26,0.34-0.59,0.61-0.93,0.82
			c-0.53,0.33-1.07,0.53-1.68,0.69c-1.21,0.32-2.43,0.38-3.69,0.42c-0.57,0.02-1.16,0.05-1.71-0.06c-0.27-0.05-0.52-0.12-0.75-0.25
			c-0.08-0.04-0.17-0.1-0.25-0.16c0.21,0.16-0.13-0.15-0.18-0.19c-0.17-0.18,0.15,0.28-0.07-0.09c-0.05-0.08-0.09-0.17-0.15-0.24
			c-0.21-0.33,0.04,0.21-0.08-0.16c-0.03-0.09-0.06-0.18-0.08-0.28c-0.03-0.12-0.06-0.24-0.08-0.35c-0.04-0.25-0.01,0.33,0-0.11
			c0-0.12,0-0.25,0-0.37c0-0.07,0.01-0.15,0.01-0.22c-0.03,0.15-0.02,0.14,0.01-0.04c0.05-0.24,0.11-0.48,0.2-0.71
			c-0.11,0.26,0.35-0.55,0.2-0.35c0.38-0.49,0.72-0.72,1.28-0.99c0.3-0.14,1.01-0.31,1.37-0.33c0.74-0.05,1.11-0.01,1.81,0.19
			C77.85,180.64,78.65,177.75,76.78,177.24L76.78,177.24z"/>
	</g>
</g>
<g>
	<g>
		<path class="st1" d="M100.71,180.65c-0.58-2.43-3.88-2.81-5.51-1.22c-2.01,1.96-0.6,5.33,1.62,6.43c1.29,0.64,2.75,0.76,4.16,0.61
			c1.31-0.14,2.59-0.37,3.79-0.91c2.16-0.97,3.61-3.38,2.67-5.72c-0.56-1.4-1.86-2.35-3.41-2.2c-1.57,0.16-2.78,1.24-3.75,2.41
			c-0.52,0.62-0.61,1.51,0,2.12c0.53,0.53,1.6,0.63,2.12,0c0.26-0.31,0.53-0.62,0.82-0.9c0.03-0.03,0.46-0.39,0.28-0.26
			c0.19-0.14,0.4-0.28,0.63-0.37c-0.29,0.13,0.42-0.04,0.04-0.01c0.09-0.01,0.18-0.01,0.27,0c-0.08,0-0.26-0.06,0.02,0.02
			c0.14,0.04,0.11,0.11-0.06-0.03c0.05,0.04,0.13,0.08,0.18,0.11c-0.04-0.02-0.25-0.22-0.06-0.03c0.19,0.19-0.07-0.18,0-0.02
			c0.02,0.06,0.07,0.14,0.11,0.18c0.12,0.14-0.06-0.25-0.02-0.06c0.03,0.13,0.07,0.29,0.11,0.42c0.06,0.19,0.01-0.35-0.01-0.01
			c0,0.07,0,0.15,0,0.23c0,0.08-0.01,0.15-0.02,0.23c0.01-0.19,0.04-0.19-0.01-0.01c-0.02,0.07-0.06,0.15-0.06,0.22
			c-0.02,0.19,0.13-0.21,0.03-0.04c-0.03,0.05-0.24,0.41-0.16,0.29c0.11-0.16-0.07,0.07-0.1,0.11c-0.06,0.07-0.13,0.13-0.2,0.2
			c-0.03,0.02-0.25,0.21-0.12,0.1c0.14-0.1-0.17,0.1-0.19,0.12c-0.16,0.1-0.33,0.18-0.5,0.27c-0.27,0.13-0.1,0.04-0.04,0.02
			c-0.09,0.03-0.18,0.07-0.27,0.1c-0.41,0.14-0.84,0.24-1.27,0.32c-0.72,0.14-1.53,0.23-2.42,0.17c-0.29-0.02-0.14,0-0.42-0.06
			c-0.21-0.05-0.43-0.1-0.63-0.18c-0.25-0.09,0.14,0.08-0.09-0.04c-0.08-0.04-0.16-0.09-0.24-0.14c-0.04-0.02-0.26-0.18-0.12-0.07
			c0.15,0.11-0.12-0.12-0.15-0.14c-0.06-0.06-0.12-0.13-0.18-0.19c0.17,0.19,0.03,0.04-0.01-0.01c-0.09-0.15-0.19-0.3-0.26-0.46
			c0.13,0.28-0.04-0.23-0.07-0.31c0-0.02-0.01-0.04-0.01-0.06c0.02,0.17,0.03,0.2,0.02,0.09c-0.03-0.01,0.02-0.34-0.03-0.04
			c0.01-0.08,0.04-0.16,0.06-0.25c0.07-0.37-0.09,0.19,0.04-0.09c0.06-0.13,0.15-0.08-0.06,0.07c0.04-0.03,0.26-0.22,0.06-0.08
			c-0.18,0.13,0,0.01,0.05-0.02c0.2-0.11,0.09-0.03-0.05,0.01c0.06-0.02,0.13-0.04,0.19-0.06c0.35-0.09,0,0.03-0.01-0.01
			c0,0,0.21-0.01,0.2-0.01c0.09,0,0.29-0.06,0.09,0c-0.16,0.05-0.09-0.02,0.04,0.02c0.22,0.07,0.08,0.02-0.05-0.04
			c0.04,0.02,0.12,0.06,0.16,0.09c-0.35-0.31-0.07-0.06-0.03,0c-0.02-0.03-0.18-0.3-0.08-0.08c-0.09-0.19-0.07-0.22-0.02,0
			c0.18,0.76,1.09,1.29,1.85,1.05C100.45,182.24,100.9,181.47,100.71,180.65L100.71,180.65z"/>
	</g>
</g>
<g>
	<g>
		<path class="st1" d="M126.7,178.4c-2.23-1.39-5.21-1.29-7.44,0.04c-1.21,0.72-2.22,1.81-2.73,3.14c-0.27,0.69-0.36,1.49-0.15,2.22
			c0.28,1.02,1.09,1.67,2.04,2.04c1.54,0.6,3.33,0.8,4.96,0.9c1.42,0.09,2.93,0.07,4.28-0.42c1.45-0.53,2.64-1.53,3.15-3.01
			c0.44-1.28,0.26-2.79-0.42-3.96c-1.73-2.99-6.12-2.77-7.93,0c-0.44,0.68-0.14,1.66,0.54,2.05c0.73,0.43,1.61,0.14,2.05-0.54
			c0.24-0.36-0.12,0.11,0.06-0.08c0.06-0.07,0.13-0.13,0.19-0.2c0.17-0.17-0.28,0.16,0.07-0.06c0.08-0.05,0.15-0.1,0.24-0.14
			c0.08-0.04,0.16-0.09,0.25-0.12c-0.24,0.1-0.01,0.01,0.03,0c0.11-0.02,0.22-0.06,0.34-0.09c0.11-0.02,0.09-0.02-0.06,0
			c0.07-0.01,0.14-0.01,0.21-0.01c0.09,0,0.18,0,0.28,0c0.09,0,0.37,0.06,0.08,0c0.18,0.04,0.36,0.08,0.53,0.15
			c-0.31-0.13,0.33,0.24,0.21,0.14c-0.16-0.13,0.17,0.18,0.16,0.16c0.19,0.17-0.02-0.05,0.06,0.07c0.06,0.1,0.12,0.2,0.18,0.3
			c0.03,0.05,0.11,0.26,0.02,0.02c0.06,0.17,0.11,0.35,0.15,0.53c0.1,0.41,0-0.17,0.01,0.08c0,0.12,0,0.23,0,0.35
			c0,0.06-0.04,0.29,0.01,0.01c-0.02,0.14-0.07,0.27-0.1,0.4c-0.01,0.05-0.1,0.27,0,0.03c-0.04,0.08-0.08,0.17-0.13,0.24
			c-0.04,0.08-0.1,0.16-0.15,0.23c0.15-0.19-0.07,0.05-0.11,0.09c-0.04,0.04-0.29,0.24-0.11,0.11c-0.08,0.06-0.17,0.11-0.26,0.17
			c-0.09,0.05-0.18,0.1-0.27,0.15c-0.36,0.18,0.18-0.03-0.22,0.08c-0.99,0.28-1.6,0.33-2.71,0.29c-1.23-0.04-2.45-0.2-3.65-0.49
			c-0.28-0.07-0.55-0.14-0.83-0.22c-0.09-0.03-0.29-0.11-0.22-0.06c-0.52-0.29-0.03-0.07-0.07-0.07c0.09,0-0.02,0.31,0.03,0.08
			c0.01-0.05,0.05-0.38,0-0.16c0.01-0.05,0.11-0.37,0.08-0.29c0.03-0.07,0.2-0.35,0.29-0.5c0.14-0.23,0.06-0.09,0.01-0.03
			c0.06-0.07,0.12-0.14,0.18-0.21c0.16-0.17,0.33-0.33,0.5-0.48c0.04-0.03,0.22-0.17,0.03-0.02c0.11-0.08,0.23-0.16,0.35-0.23
			c0.2-0.12,0.41-0.23,0.62-0.33c-0.06,0.03-0.25,0.09,0.03-0.01c0.13-0.05,0.26-0.09,0.4-0.13c0.23-0.07,0.45-0.11,0.68-0.16
			c0.29-0.06,0.08-0.01,0.02-0.01c0.14-0.01,0.28-0.03,0.42-0.03c0.23-0.01,0.47,0.01,0.7,0.02c0.44,0.02-0.17-0.04,0.09,0.01
			c0.11,0.02,0.23,0.04,0.34,0.07c0.11,0.03,0.22,0.06,0.34,0.09c0.05,0.01,0.41,0.15,0.28,0.09c-0.16-0.07,0.1,0.05,0.14,0.07
			c0.15,0.08,0.29,0.16,0.43,0.24c0.69,0.43,1.65,0.15,2.05-0.54C127.65,179.74,127.39,178.83,126.7,178.4L126.7,178.4z"/>
	</g>
</g>
<g>
	<g>
		<path class="st1" d="M145.41,179.75c-1.4-1.8-4.41-1.56-5.88,0.02c-1.74,1.86-1.27,4.83,0.4,6.57c1.82,1.89,4.73,2.14,7.16,1.56
			c1.2-0.29,2.38-0.8,3.4-1.49c1.05-0.7,2.18-1.61,2.46-2.91c0.36-1.69-0.79-3.19-2.32-3.79c-1.48-0.58-3.07-0.07-4.46,0.52
			c-0.75,0.31-1.28,0.99-1.05,1.85c0.19,0.7,1.09,1.36,1.85,1.05c0.75-0.31,1.64-0.77,2.45-0.66c0.1,0.01,0.33,0.12,0.45,0.21
			c0.06,0.04,0.06,0.04,0.13,0.16c-0.01-0.03-0.08-0.16,0-0.01c0.02,0.09,0.03,0.1,0.02,0.02c0-0.08-0.01-0.07,0,0.03
			c-0.03,0.02-0.04,0.1,0.02-0.04c0.04-0.11-0.07,0.12-0.06,0.11c-0.11,0.16-0.07,0.1-0.24,0.27c-0.27,0.26-0.52,0.44-0.83,0.65
			c-0.7,0.46-1.37,0.78-2.16,1.01c-1.36,0.4-2.89,0.48-4.07-0.2c-0.35-0.2-0.42-0.26-0.67-0.53c-0.05-0.06-0.11-0.12-0.16-0.18
			c0.11,0.15-0.03-0.07-0.04-0.08c-0.04-0.07-0.08-0.14-0.12-0.21c-0.02-0.03-0.15-0.33-0.08-0.14c-0.06-0.15-0.09-0.3-0.14-0.45
			c0,0-0.05-0.25-0.03-0.11c0.03,0.16-0.01-0.15-0.01-0.19c0-0.08,0.01-0.42,0-0.34c-0.01,0.1,0.13-0.42,0.1-0.36
			c-0.05,0.13,0.06-0.1,0.06-0.1c0.14-0.32-0.09,0.07,0.03-0.07c0.04-0.05,0.09-0.09,0.13-0.14c0.17-0.2-0.08,0.03,0.05-0.05
			c0.08-0.05,0.42-0.22,0.17-0.12c0.16-0.07,0.33-0.11,0.5-0.14c-0.29,0.07,0.12,0.01,0.25,0.01c0.03,0,0.24,0.03,0.05,0
			c-0.21-0.03,0.17,0.05,0.17,0.05c0.03,0.01,0.21,0.09,0.05,0.02c-0.16-0.08,0.07,0.05,0.1,0.07c0.17,0.14-0.15-0.17-0.01,0
			c0.07,0.08,0.14,0.16,0.21,0.24c0.5,0.64,1.6,0.52,2.12,0C146.04,181.24,145.91,180.39,145.41,179.75L145.41,179.75z"/>
	</g>
</g>
<g>
	<g>
		<path class="st1" d="M164.29,179.43c-2.48-0.07-4.89,1.09-6.4,3.05c-0.45,0.58-0.77,1.25-0.74,2c0.04,0.85,0.5,1.53,1.17,2.01
			c0.96,0.7,2.22,0.78,3.36,0.9c2.47,0.26,5.15-0.16,6.56-2.43c0.6-0.96,0.85-2.17,0.58-3.28c-0.31-1.27-1.36-2.21-2.58-2.58
			c-1.29-0.39-2.68-0.13-3.89,0.41c-1.21,0.54-2.24,1.41-3.45,1.96c-0.71,0.33-0.95,1.42-0.54,2.05c0.47,0.74,1.29,0.89,2.05,0.54
			c0.86-0.4,1.63-0.95,2.45-1.44c0.18-0.11,0.37-0.21,0.56-0.31c0.1-0.05,0.21-0.1,0.32-0.16c0.06-0.03,0.28-0.09,0.01,0
			c0.19-0.06,0.37-0.13,0.56-0.17c0.08-0.02,0.15-0.03,0.23-0.05c0.34-0.07-0.25,0,0.07-0.01c0.2,0,0.38-0.01,0.58,0
			c0.31,0.01-0.05-0.02-0.06-0.01c0.06-0.02,0.21,0.05,0.27,0.06c0.08,0.02,0.19,0.04,0.26,0.09c-0.3-0.2-0.11-0.05-0.06-0.01
			c0.01,0.01,0.32,0.21,0.12,0.06c-0.18-0.13,0.14,0.15,0.17,0.18c-0.26-0.27,0.09,0.05,0.06,0.14c-0.02-0.06-0.05-0.11-0.07-0.17
			c0.02,0.06,0.04,0.13,0.06,0.2c0.09,0.24-0.07-0.12,0-0.1c0.03,0.01,0.01,0.5,0,0.51c-0.01,0.01,0.09-0.39,0-0.09
			c-0.03,0.1-0.06,0.21-0.09,0.31c-0.09,0.32,0.13-0.16,0.01-0.01c-0.05,0.07-0.08,0.17-0.13,0.24c-0.04,0.06-0.08,0.12-0.12,0.19
			c-0.17,0.29,0.15-0.13,0,0.01c-0.12,0.1-0.24,0.24-0.35,0.36c-0.23,0.24,0.18-0.08,0,0.01c-0.1,0.05-0.18,0.12-0.28,0.18
			c-0.09,0.05-0.18,0.1-0.27,0.14c0.23-0.1,0.01-0.01-0.04,0c-0.23,0.06-0.45,0.13-0.68,0.18c-0.29,0.07-0.09,0.02-0.02,0.01
			c-0.12,0.02-0.23,0.02-0.35,0.03c-0.26,0.02-0.52,0.02-0.79,0.02c-0.43-0.01-0.87-0.05-1.3-0.09c-0.24-0.03-0.48-0.05-0.71-0.09
			c0.32,0.05,0.11,0.02,0.05,0c-0.13-0.03-0.25-0.05-0.38-0.08c-0.09-0.02-0.18-0.06-0.27-0.08c-0.09-0.02-0.25-0.02,0.05,0.03
			c-0.12-0.02-0.54-0.37-0.22-0.09c-0.08-0.07-0.13-0.19,0.05,0.09c-0.17-0.27,0.07,0.26,0.01,0.06c-0.05-0.17,0,0.26,0,0.28
			c0.01-0.04,0.03-0.09,0.04-0.13c-0.06,0.15-0.04,0.15,0.04-0.01c0.18-0.23,0.04-0.08,0.01-0.03c0.08-0.1,0.17-0.2,0.25-0.3
			c0.18-0.19,0.37-0.36,0.56-0.54c0.04-0.04,0.22-0.17,0-0.01c0.1-0.08,0.21-0.15,0.32-0.22c0.22-0.14,0.44-0.27,0.68-0.39
			c0.08-0.04,0.16-0.07,0.24-0.11c-0.3,0.14,0.09-0.03,0.13-0.04c0.22-0.08,0.45-0.15,0.69-0.2c0.11-0.02,0.21-0.04,0.32-0.07
			c0.41-0.08-0.3,0.01,0.12-0.02c0.26-0.02,0.52-0.03,0.78-0.02c0.79,0.02,1.54-0.71,1.5-1.5
			C165.76,180.1,165.13,179.46,164.29,179.43L164.29,179.43z"/>
	</g>
</g>
<g>
	<g>
		<path class="st1" d="M83.63,197.75c-2.62-1.33-5.8-0.91-8,1.04c-1.15,1.02-2.07,2.63-1.54,4.19c0.5,1.47,2.01,2.19,3.41,2.57
			c3.14,0.85,6.61,0.7,9.65-0.47c1.35-0.52,2.78-1.17,3.75-2.29c1.07-1.24,1.37-2.95,0.53-4.4c-0.83-1.43-2.57-2.31-4.2-2.27
			c-1.92,0.05-3.58,1.09-5.1,2.15c-0.66,0.46-0.97,1.31-0.54,2.05c0.38,0.66,1.39,1,2.05,0.54c1.26-0.88,3.34-2.52,4.87-1.33
			c1.38,1.08-1.15,2.24-2.04,2.61c-2.03,0.83-4.28,1.13-6.45,0.86c-0.87-0.11-1.87-0.27-2.65-0.67c-0.15-0.08-0.43-0.27-0.44-0.33
			c-0.03-0.23,0.32-0.58,0.46-0.74c1.14-1.28,3.19-1.71,4.73-0.93C83.84,201.21,85.36,198.62,83.63,197.75L83.63,197.75z"/>
	</g>
</g>
<g>
	<g>
		<path class="st1" d="M109.81,197.02c-2.07-1.82-5.2-1.99-7.53-0.52c-1.18,0.74-2.11,1.87-2.5,3.22c-0.51,1.77,0.27,3.51,1.88,4.36
			c1.49,0.79,3.31,0.98,4.97,1.03c1.77,0.05,3.58-0.18,5.28-0.67c1.58-0.46,3.03-1.25,3.99-2.62c0.94-1.32,1.03-3.14-0.19-4.33
			c-1.17-1.15-3.22-1.62-4.81-1.76c-1.68-0.15-3.29,0.4-4.23,1.86c-1.05,1.63,1.55,3.13,2.59,1.51c0.12-0.18,0.26-0.26,0.42-0.31
			c0.39-0.12,0.63-0.11,1.13-0.07c0.65,0.05,1.7,0.32,2.4,0.66c0.13,0.06,0.27,0.16,0.38,0.23c0.11,0.07,0.08,0.21,0.04,0
			c0.03,0.16,0.03,0.12-0.02,0.2c-0.01,0.02-0.21,0.37-0.25,0.41c-0.57,0.74-1.41,1.08-2.26,1.33c-2.28,0.66-4.83,0.81-7.14,0.21
			c-0.38-0.1-0.73-0.2-1.03-0.42c-0.23-0.16-0.35-0.25-0.32-0.58c0.03-0.35,0.21-0.67,0.4-0.96c0.09-0.14,0.03-0.05,0-0.02
			c0.06-0.08,0.14-0.16,0.21-0.24c0.07-0.07,0.39-0.36,0.3-0.29c0.4-0.31,0.73-0.46,1.08-0.57c0.21-0.07,0.42-0.12,0.63-0.16
			c0.32-0.06,0.15-0.02,0.08-0.01c0.13-0.01,0.27-0.02,0.4-0.02c0.15,0,0.52,0.02,0.52,0.02c-0.16-0.02,0.17,0.03,0.2,0.04
			c0.13,0.03,0.26,0.06,0.39,0.1c0.28,0.09,0.66,0.31,0.86,0.48c0.61,0.53,1.52,0.6,2.12,0
			C110.35,198.59,110.42,197.55,109.81,197.02L109.81,197.02z"/>
	</g>
</g>
<g>
	<g>
		<path class="st1" d="M129.08,196.22c-1.82,0.22-3.95,0.66-5.23,2.11c-0.68,0.78-1.1,1.77-1.01,2.81c0.11,1.3,0.84,2.35,1.89,3.1
			c1,0.71,2.29,0.96,3.5,0.91c1.11-0.05,2.31-0.24,3.35-0.65c1.91-0.75,4.24-2.55,3.38-4.9c-0.49-1.35-1.68-2.07-3.07-2.15
			c-1.15-0.07-2.28,0.34-3.32,0.78c-0.72,0.31-0.94,1.43-0.54,2.05c0.48,0.75,1.28,0.87,2.05,0.54c-0.33,0.14,0.1-0.04,0.2-0.07
			c0.15-0.06,0.31-0.11,0.47-0.15c0.16-0.05,0.32-0.08,0.48-0.12c0.08-0.02,0.16-0.03,0.24-0.04c-0.2,0.03-0.16,0.01,0.02,0.01
			c0.14,0,0.27,0,0.4,0c0.32,0-0.08-0.01-0.07-0.01c0.02-0.02,0.17,0.04,0.21,0.05c0.24,0.05-0.01-0.01-0.07-0.04
			c0.05,0.03,0.13,0.08,0.18,0.1c-0.19-0.07-0.18-0.11-0.06-0.04c0.28,0.16-0.16-0.12,0,0c0.05,0.03,0.12,0.28,0.05,0.08
			c-0.07-0.2,0,0.03,0.01,0.08c0.04,0.21-0.02-0.3-0.02-0.1c0,0.2,0.1-0.28,0.02-0.1c-0.02,0.06-0.04,0.13-0.05,0.19
			c-0.03,0.17,0.16-0.18,0.02-0.07c-0.03,0.02-0.06,0.11-0.08,0.14c-0.16,0.29,0.2-0.19-0.04,0.05c-0.11,0.11-0.22,0.22-0.34,0.33
			c-0.05,0.05-0.22,0.14,0.01-0.01c-0.07,0.04-0.14,0.1-0.21,0.14c-0.13,0.08-0.26,0.16-0.39,0.23c-0.08,0.04-0.15,0.08-0.23,0.12
			c-0.11,0.06-0.26,0.11-0.06,0.03c-0.31,0.12-0.63,0.22-0.96,0.3c-0.22,0.05-0.44,0.09-0.66,0.13c-0.11,0.02-0.22,0.04-0.33,0.06
			c-0.06,0.01-0.11,0.02-0.17,0.03c0.09-0.01,0.09-0.02-0.02,0c-0.41,0.04-0.84,0.06-1.25,0.01c0.19,0.02-0.07-0.01-0.09-0.02
			c-0.11-0.02-0.22-0.05-0.32-0.08c-0.08-0.02-0.16-0.05-0.24-0.08c0.2,0.07,0.07,0.03-0.05-0.03c-0.08-0.04-0.15-0.08-0.22-0.13
			c-0.04-0.02-0.26-0.18-0.11-0.07c0.15,0.11-0.06-0.06-0.1-0.09c-0.06-0.06-0.11-0.13-0.18-0.18c-0.16-0.13,0.11,0.19,0,0.01
			c-0.03-0.05-0.07-0.1-0.1-0.16c-0.04-0.07-0.08-0.15-0.12-0.22c0.15,0.28,0.01-0.03-0.01-0.11c-0.03-0.12,0.02-0.21,0,0.03
			c0.01-0.07,0-0.17,0-0.24c-0.01-0.27-0.07,0.26,0.02-0.07c0.09-0.34-0.14,0.19,0.04-0.11c0.03-0.06,0.08-0.11,0.1-0.17
			c0.06-0.15-0.2,0.21-0.02,0.02c0.11-0.11,0.24-0.21,0.34-0.32c0.13-0.14-0.22,0.13-0.05,0.04c0.08-0.04,0.15-0.1,0.23-0.15
			c0.16-0.1,0.33-0.18,0.5-0.26c0.07-0.03,0.26-0.09-0.04,0.01c0.07-0.03,0.15-0.06,0.22-0.08c0.36-0.13,0.72-0.23,1.09-0.31
			c0.17-0.04,0.35-0.07,0.52-0.1c0.08-0.01,0.15-0.02,0.23-0.04c0.32-0.06-0.29,0.03,0.05-0.01c0.78-0.09,1.54-0.62,1.5-1.5
			C130.55,196.99,129.91,196.12,129.08,196.22L129.08,196.22z"/>
	</g>
</g>
<g>
	<g>
		<path class="st1" d="M151.47,196.32c-2.38-0.36-4.68,0.26-6.55,1.78c-0.91,0.74-1.76,1.78-2.1,2.92c-0.46,1.58,0.42,2.94,1.87,3.5
			c0.4,0.16,0.81,0.23,1.23,0.3c0.73,0.11,1.47,0.23,2.21,0.28c1.32,0.09,2.67-0.05,3.88-0.62c2.14-0.99,3.72-3.66,2.55-5.94
			c-0.5-0.97-1.56-1.73-2.63-1.92c-1.36-0.25-2.55,0.18-3.37,1.31c-0.46,0.64-0.13,1.7,0.54,2.05c0.78,0.41,1.56,0.14,2.05-0.54
			c-0.2,0.28-0.11,0.14-0.05,0.08c0.19-0.2-0.07,0.07-0.09,0.06c-0.02-0.02,0.16-0.07,0.16-0.09c-0.02,0.13-0.31,0.09-0.1,0.05
			c0.4-0.06-0.19-0.04,0.06-0.01c0.02,0,0.19,0.01,0.19,0.01c-0.02,0.04-0.38-0.09-0.06,0c0.06,0.02,0.13,0.04,0.19,0.05
			c0.09,0.03,0.19,0.13,0.05,0.01c-0.15-0.13-0.01,0,0.05,0.03c0.06,0.03,0.11,0.08,0.17,0.11c0.17,0.07-0.19-0.19-0.06-0.05
			c0.04,0.05,0.1,0.09,0.15,0.14c0.04,0.04,0.18,0.21,0.05,0.04c-0.14-0.19,0.02,0.05,0.05,0.1c0.17,0.25-0.06-0.09-0.03-0.09
			c0.01,0,0.06,0.2,0.06,0.19c0.03,0.1-0.02,0.18,0-0.04c-0.01,0.08,0,0.18,0,0.26c0,0.1-0.06,0.24,0.01-0.02
			c-0.02,0.08-0.04,0.17-0.06,0.25c-0.02,0.08-0.05,0.16-0.08,0.24c0.08-0.2,0.02-0.06-0.05,0.05c-0.04,0.08-0.1,0.15-0.14,0.22
			c-0.1,0.19,0.15-0.15-0.01,0.01c-0.12,0.13-0.24,0.26-0.37,0.38c-0.03,0.03-0.25,0.2-0.11,0.1c0.13-0.09-0.05,0.03-0.07,0.04
			c-0.19,0.12-0.38,0.23-0.59,0.33c0.28-0.13-0.26,0.07-0.33,0.09c-0.11,0.03-0.21,0.05-0.32,0.07c-0.02,0.01-0.29,0.05-0.08,0.02
			c-0.46,0.07-0.93,0.06-1.39,0.04c-0.87-0.04-1.42-0.1-2.3-0.3c-0.16-0.04-0.32-0.09-0.47-0.14c0.05,0.02,0.29,0.12,0.03,0
			c-0.13-0.06-0.1-0.14,0.02,0.04c-0.02-0.02-0.16-0.16-0.03-0.01c0.15,0.17-0.03-0.16,0.02,0.02c0.01,0.04,0.03,0.19,0.04,0.2
			c-0.02,0.1-0.01,0.07,0.03-0.1c0.02-0.05,0.03-0.1,0.05-0.15c-0.08,0.18,0.04-0.05,0.05-0.07c0.05-0.08,0.1-0.17,0.15-0.25
			c0.04-0.06,0.35-0.46,0.16-0.24c0.27-0.31,0.55-0.59,0.85-0.85c-0.2,0.17,0.15-0.11,0.24-0.16c0.19-0.12,0.38-0.24,0.58-0.34
			c0.08-0.04,0.16-0.08,0.24-0.12c0.25-0.13-0.09,0.02,0.07-0.04c0.19-0.07,0.38-0.14,0.57-0.2c0.21-0.06,0.43-0.12,0.65-0.16
			c0.07-0.01,0.13-0.02,0.2-0.03c0.18-0.03-0.22,0.01,0.07,0c0.22-0.01,0.45-0.02,0.67-0.02c0.09,0,0.18,0.01,0.27,0.01
			c0.07,0.01,0.47,0.06,0.13,0.01c0.77,0.12,1.65-0.19,1.85-1.05C152.68,197.45,152.3,196.45,151.47,196.32L151.47,196.32z"/>
	</g>
</g>
<g>
	<g>
		<path class="st1" d="M72.5,131.04c-2.35,0.59-4.88,1.78-5.01,4.55c-0.12,2.86,2.91,3.59,5.09,4.21c2.36,0.67,4.83,1.09,7.27,0.64
			c2.28-0.43,5.35-2.08,4.56-4.87c-0.37-1.29-1.61-2.35-2.91-2.6c-1.64-0.31-3.16,0.33-4.62,1.02c-0.73,0.35-0.92,1.4-0.54,2.05
			c0.44,0.75,1.32,0.89,2.05,0.54c0.74-0.35,1.82-0.95,2.66-0.64c0.21,0.08,0.37,0.25,0.48,0.45c-0.04-0.09-0.03-0.05,0.03,0.13
			c-0.02-0.04-0.03-0.08-0.02-0.12c0.03-0.05-0.09,0.12-0.12,0.14c-1.54,1.09-3.42,1.24-5.26,0.98c-1.02-0.14-2.03-0.4-3.01-0.69
			c-0.81-0.24-1.85-0.42-2.56-0.89c-0.18-0.11-0.13-0.2-0.11-0.34c0.03-0.21,0.17-0.48,0.33-0.66c0.6-0.65,1.66-0.83,2.47-1.03
			C75.17,133.46,74.37,130.57,72.5,131.04L72.5,131.04z"/>
	</g>
</g>
<g>
	<g>
		<path class="st1" d="M118.34,126.89c-2.68-0.18-5.45,0.57-7.69,2.05c-2.02,1.34-5.82,4.77-3.52,7.35
			c0.91,1.02,2.57,1.43,3.87,1.69c1.43,0.28,2.89,0.37,4.34,0.2c1.55-0.18,3.05-0.58,4.46-1.26c1.64-0.8,2.41-2.66,1.15-4.17
			c-1.03-1.23-2.87-1.7-4.4-1.8c-1.63-0.1-3.32,0.36-4.69,1.24c-0.68,0.44-0.96,1.33-0.54,2.05c0.4,0.68,1.37,0.98,2.05,0.54
			c1.44-0.94,3.33-1.17,4.86-0.39c0.12,0.06,0.37,0.27,0.43,0.28c0.12,0.02,0,0.15-0.01-0.11c0-0.11,0.06-0.33,0.04-0.42
			c0,0,0.04-0.07,0.06-0.06c-0.01,0-0.26,0.15-0.31,0.18c-0.21,0.11-0.42,0.2-0.64,0.28c-0.91,0.34-1.89,0.6-2.86,0.69
			c-1.01,0.09-2.04,0.07-3.04-0.11c-0.5-0.09-0.99-0.22-1.48-0.38c-0.13-0.04-1.12-0.4-1.08-0.45c0.03-0.04,0.13,0.24,0.08,0.18
			c0.13,0.17-0.05,0.11,0.03-0.04c0.02-0.04,0.11-0.24,0.16-0.33c0.24-0.43,0.51-0.73,0.83-1.08c0.62-0.67,1.26-1.2,2.02-1.67
			c1.81-1.11,3.77-1.59,5.87-1.44c0.81,0.06,1.5-0.73,1.5-1.5C119.84,127.53,119.15,126.94,118.34,126.89L118.34,126.89z"/>
	</g>
</g>
<g>
	<g>
		<path class="st1" d="M146.85,132.61c-2.19-0.46-4.41-0.24-6.47,0.65c-1.86,0.8-4.21,2.44-4.01,4.75c0.21,2.34,2.99,3.16,4.97,3.32
			c1.77,0.15,3.61-0.31,5.16-1.16c1.83-1,3.19-2.58,3.96-4.51c0.38-0.95-0.57-1.86-1.45-1.9c-1.42-0.06-2.84-0.12-4.26-0.18
			c-0.81-0.03-1.5,0.71-1.5,1.5c0,0.84,0.69,1.47,1.5,1.5c1.42,0.06,2.84,0.12,4.26,0.18c-0.48-0.63-0.96-1.27-1.45-1.9
			c-0.01,0.02-0.11,0.2-0.03,0.08c0.09-0.14-0.05,0.1-0.07,0.14c-0.07,0.12-0.13,0.25-0.2,0.37c-0.08,0.14-0.18,0.27-0.26,0.41
			c-0.01,0.01-0.14,0.2-0.05,0.07c0.09-0.12-0.08,0.1-0.1,0.12c-0.2,0.23-0.4,0.45-0.63,0.66c-0.12,0.11-0.24,0.22-0.37,0.32
			c-0.13,0.11,0,0,0.03-0.02c-0.08,0.05-0.15,0.11-0.23,0.16c-0.25,0.17-0.51,0.33-0.78,0.47c-0.15,0.08-0.29,0.15-0.44,0.22
			c0.23-0.1-0.16,0.06-0.23,0.08c-0.29,0.1-0.58,0.19-0.88,0.26c-0.16,0.04-0.32,0.07-0.48,0.1c-0.17,0.03,0.02,0,0.05,0
			c-0.09,0.01-0.19,0.02-0.28,0.03c-0.3,0.03-0.61,0.03-0.91,0.02c-0.16-0.01-0.32-0.02-0.49-0.03c0.28,0.03-0.13-0.02-0.22-0.04
			c-0.3-0.06-0.59-0.14-0.88-0.24c-0.09-0.03-0.18-0.06-0.26-0.1c0.03,0.01,0.19,0.09,0.04,0.01c-0.16-0.08-0.33-0.16-0.48-0.25
			c-0.17-0.1-0.1-0.12-0.05,0.02c0.02,0.05,0,0.09,0.01,0.14c-0.01-0.02,0.02-0.24,0-0.1c-0.03,0.18,0.09-0.2,0.03-0.07
			c-0.06,0.11,0.07-0.13,0.07-0.12c0.1-0.15,0.17-0.25,0.22-0.31c0.47-0.5,1.07-0.86,1.75-1.19c1.39-0.68,3.16-0.87,4.63-0.56
			c0.79,0.17,1.62-0.23,1.85-1.05C148.1,133.71,147.65,132.78,146.85,132.61L146.85,132.61z"/>
	</g>
</g>
<g>
	<g>
		<path class="st1" d="M140.1,69.65c-0.31-2.46,0.18-4.8,1.03-7.11c0.8-2.16,1.78-4.44,3.02-6.39c1.2-1.88,2.99-2.54,5.17-2.27
			c1,0.13,2.02,0.42,2.96,0.78c1.07,0.41,1.63,0.89,1.88,2.04c0.43,2.02,0.57,3.82,1.67,5.65c1.02,1.7,2.41,3.15,3.73,4.63
			c0.62,0.7,1.16,1.46,1.77,2.16c0.58,0.67,0.09,0.29,0.18,0.16c-0.08,0.12-0.51,0.27-0.65,0.34c-0.56,0.28-1.13,0.53-1.72,0.75
			c-2.05,0.79-4.21,1.34-6.39,1.56c-5.02,0.52-10.11-0.38-14.59-2.73c-1.71-0.9-3.23,1.69-1.51,2.59c4.87,2.56,10.42,3.68,15.9,3.16
			c2.74-0.26,5.42-0.88,7.97-1.92c2.18-0.89,5.2-2.27,3.6-5.13c-1.2-2.16-3.26-3.82-4.77-5.76c-0.69-0.88-1.33-1.86-1.68-2.93
			c-0.41-1.26-0.35-2.61-0.74-3.88c-0.8-2.57-3.25-3.57-5.68-4.15c-2.42-0.58-5.18-0.62-7.31,0.86c-2.49,1.72-3.69,4.94-4.85,7.61
			c-1.37,3.15-2.42,6.5-1.98,9.97C137.34,71.54,140.34,71.56,140.1,69.65L140.1,69.65z"/>
	</g>
</g>
<g>
	<g>
		<path class="st1" d="M98.51,215.51c-3.5-1.34-7.63,0.17-9.67,3.24c-0.39,0.58-0.19,1.34,0.23,1.82c2.15,2.45,5.95,2.29,8.82,1.46
			c1.67-0.49,3.43-1.63,3.44-3.57c0.01-1.78-1.59-3.5-3.44-2.97c-0.75,0.22-1.3,1.07-1.05,1.85c0.25,0.77,1.04,1.28,1.85,1.05
			c0.23-0.07-0.21-0.01-0.3-0.03c0.33,0.08-0.33-0.12,0,0c-0.05-0.04-0.1-0.07-0.15-0.11c0.11,0.12,0.1,0.1-0.03-0.07
			c0.05,0.08,0.09,0.16,0.14,0.23c0.05,0.1,0.03,0.07-0.05-0.1c0.02,0.05,0.03,0.11,0.04,0.16c0.04,0.19-0.02-0.3-0.01-0.01
			c0.01,0.34,0.05-0.27-0.01,0.03c0.06-0.3,0.02-0.06-0.07,0.08c0.16-0.24-0.08,0.06-0.11,0.1c-0.2,0.2,0.16-0.05-0.12,0.09
			c-0.1,0.05-0.2,0.11-0.3,0.17c-0.06,0.03-0.12,0.06-0.19,0.09c0.12-0.05,0.13-0.06,0.03-0.02c-0.5,0.18-1.02,0.31-1.54,0.41
			c-0.14,0.03-0.27,0.05-0.41,0.07c-0.04,0.01-0.41,0.06-0.21,0.03c0.17-0.02-0.24,0.02-0.29,0.03c-0.12,0.01-0.23,0.02-0.35,0.03
			c-0.28,0.02-0.56,0.02-0.83,0.01c-0.14,0-0.27-0.01-0.41-0.02c-0.07-0.01-0.47-0.06-0.14-0.01c-0.24-0.04-0.48-0.09-0.71-0.15
			c-0.11-0.03-0.21-0.07-0.31-0.1c-0.33-0.09,0.16,0.1-0.12-0.05c-0.23-0.12-0.45-0.24-0.66-0.4c0.21,0.15-0.03-0.04-0.1-0.1
			c-0.1-0.09-0.19-0.19-0.27-0.29c0.08,0.61,0.16,1.21,0.23,1.82c0.03-0.05,0.36-0.47,0.15-0.22c0.11-0.13,0.23-0.26,0.35-0.39
			c0.12-0.12,0.25-0.24,0.38-0.36c0.07-0.06,0.13-0.11,0.2-0.17c-0.13,0.1-0.13,0.1,0.01,0c0.29-0.19,0.58-0.38,0.9-0.54
			c0.06-0.03,0.56-0.23,0.24-0.12c0.16-0.06,0.33-0.12,0.5-0.17c0.33-0.1,0.68-0.18,1.02-0.23c-0.36,0.06,0.18-0.01,0.25-0.01
			c0.17-0.01,0.35-0.01,0.52-0.01c0.17,0,0.35,0.02,0.52,0.03c0.18,0.02,0.17,0.02-0.01,0c0.09,0.01,0.17,0.03,0.26,0.05
			c0.34,0.07,0.68,0.17,1,0.3c0.73,0.28,1.68-0.31,1.85-1.05C99.75,216.5,99.29,215.81,98.51,215.51L98.51,215.51z"/>
	</g>
</g>
<g>
	<g>
		<path class="st1" d="M128.35,212.11c-2.52-1.04-5.53-1.18-8.13-0.3c-1.32,0.44-2.55,1.24-2.98,2.65c-0.39,1.3,0.12,2.69,0.99,3.67
			c1.79,2.02,5.07,1.79,7.47,1.29c2.06-0.43,4.42-1.82,4.21-4.24c-0.23-2.72-4.13-4.26-5.98-2.05c-0.52,0.62-0.61,1.51,0,2.12
			c0.53,0.53,1.6,0.63,2.12,0c0.04-0.05,0.09-0.1,0.14-0.15c0.2-0.26-0.18,0.16-0.03,0.03c0.01-0.01,0.03-0.02,0.04-0.03
			c0.12-0.06,0.11-0.06,0-0.01c-0.03,0.01-0.06,0.03-0.09,0.04c0.06-0.02,0.12-0.04,0.19-0.05c0.24-0.07-0.32,0.04,0.09,0.01
			c0.3-0.02-0.11,0.01-0.1-0.02c0-0.01,0.28,0.07,0.3,0.07c0.07,0.02,0.13,0.05,0.19,0.07c-0.34-0.11-0.16-0.07-0.08-0.02
			c0.03,0.02,0.32,0.16,0.1,0.05c-0.19-0.1-0.01,0.01,0.04,0.04c0.09,0.05,0.2,0.28-0.01-0.05c0.03,0.05,0.07,0.11,0.1,0.16
			c0.14,0.19-0.11-0.07-0.03-0.09c0.02,0.05,0.03,0.09,0.04,0.14c0.03,0.11,0.02,0.06-0.02-0.15c0.01,0,0,0.24,0,0.22
			c-0.04-0.24,0.05-0.21,0.01-0.07c-0.02,0.06-0.04,0.14-0.06,0.2c0.08-0.31,0.06-0.15,0-0.03c-0.02,0.05-0.14,0.24-0.03,0.06
			c0.11-0.18,0,0-0.05,0.05c-0.06,0.06-0.13,0.12-0.19,0.18c0.13-0.13,0.16-0.11,0,0c-0.15,0.09-0.29,0.18-0.44,0.26
			c-0.07,0.04-0.14,0.07-0.21,0.1c0.28-0.13,0.09-0.04,0.02-0.02c-0.37,0.12-0.74,0.24-1.13,0.31c-0.18,0.04-0.36,0.07-0.54,0.09
			c0.34-0.05-0.08,0-0.19,0.01c-0.5,0.05-1,0.08-1.5,0.09c-0.25,0-0.5-0.01-0.75-0.03c-0.27-0.02,0.18,0.04-0.09-0.01
			c-0.13-0.02-0.27-0.05-0.4-0.08c-0.11-0.03-0.21-0.06-0.31-0.09c-0.02-0.01-0.25-0.11-0.1-0.04c-0.08-0.04-0.15-0.09-0.23-0.12
			c-0.31-0.15,0.14,0.16-0.11-0.08c-0.05-0.05-0.38-0.42-0.2-0.18c-0.07-0.09-0.12-0.18-0.18-0.27c-0.02-0.04-0.15-0.28-0.07-0.11
			c0.09,0.2-0.05-0.18-0.05-0.18c-0.03-0.08-0.03-0.28-0.01,0.03c0-0.08-0.01-0.16-0.01-0.24c0.01-0.15,0.01-0.16,0-0.04
			c-0.02,0.12-0.01,0.11,0.02-0.04c0.12-0.2,0,0.01-0.01,0.01c0.08-0.03,0.12-0.17,0-0.03c0.06-0.07,0.13-0.13,0.19-0.19
			c-0.19,0.18,0.02-0.01,0.09-0.05c0.08-0.05,0.16-0.09,0.24-0.14c0.03-0.02,0.3-0.14,0.14-0.07c-0.19,0.08,0.24-0.08,0.22-0.07
			c0.12-0.04,0.25-0.08,0.37-0.11c2.04-0.58,4.09-0.44,6.16,0.42c0.73,0.3,1.68-0.32,1.85-1.05
			C129.6,213.08,129.13,212.44,128.35,212.11L128.35,212.11z"/>
	</g>
</g>
</svg>
