<?xml version="1.0" encoding="utf-8"?>
<!-- Generator: Adobe Illustrator 25.0.1, SVG Export Plug-In . SVG Version: 6.00 Build 0)  -->
<svg version="1.1" id="Layer_1" xmlns="http://www.w3.org/2000/svg" xmlns:xlink="http://www.w3.org/1999/xlink" x="0px" y="0px"
	 viewBox="0 0 100 100" style="enable-background:new 0 0 100 100;" xml:space="preserve">
<style type="text/css">
	.st0{fill:#BDFDFF;stroke:#0A2828;stroke-width:3;stroke-miterlimit:10;}
	.st1{fill:#BDFDFF;stroke:#5EFF79;stroke-miterlimit:10;}
</style>
<g>
	<path class="st0" d="M28.2,87.04c-1.66,0-3-1.35-3-3V15.96c0-1.66,1.35-3,3-3h12.92c1.66,0,3.01,1.35,3.01,3v68.07
		c0,1.66-1.35,3-3.01,3H28.2V87.04z"/>
	<path class="st1" d="M41.13,13.42c1.4,0,2.55,1.14,2.55,2.55v68.07c0,1.4-1.14,2.55-2.55,2.55H28.2c-1.4,0-2.55-1.14-2.55-2.55
		V15.96c0-1.4,1.14-2.55,2.55-2.55h12.93 M41.13,12.5H28.2c-1.91,0-3.46,1.55-3.46,3.46v68.07c0,1.91,1.55,3.46,3.46,3.46h12.92
		c1.91,0,3.46-1.55,3.46-3.46V15.96C44.59,14.05,43.04,12.5,41.13,12.5L41.13,12.5z"/>
</g>
<g>
	<path class="st0" d="M58.87,87.04c-1.66,0-3-1.35-3-3V15.96c0-1.66,1.35-3,3-3h12.92c1.66,0,3.01,1.35,3.01,3v68.07
		c0,1.66-1.35,3-3.01,3H58.87V87.04z"/>
	<path class="st1" d="M71.8,13.42c1.4,0,2.55,1.14,2.55,2.55v68.07c0,1.4-1.14,2.55-2.55,2.55H58.87c-1.4,0-2.55-1.14-2.55-2.55
		V15.96c0-1.4,1.14-2.55,2.55-2.55H71.8 M71.8,12.5H58.87c-1.91,0-3.46,1.55-3.46,3.46v68.07c0,1.91,1.55,3.46,3.46,3.46H71.8
		c1.91,0,3.46-1.55,3.46-3.46V15.96C75.26,14.05,73.71,12.5,71.8,12.5L71.8,12.5z"/>
</g>
</svg>
