<?xml version="1.0" encoding="utf-8"?>
<!-- Generator: Adobe Illustrator 25.0.1, SVG Export Plug-In . SVG Version: 6.00 Build 0)  -->
<svg version="1.1" id="Layer_1" xmlns="http://www.w3.org/2000/svg" xmlns:xlink="http://www.w3.org/1999/xlink" x="0px" y="0px"
	 viewBox="0 0 83.87 94.91" style="enable-background:new 0 0 83.87 94.91;" xml:space="preserve">
<style type="text/css">
	.st0{fill:#9BF8FF;}
	.st1{fill:#006F32;}
	.st2{fill:#DDA1FF;}
	.st3{fill:#8F0086;}
	.st4{fill:#12FFAC;}
	.st5{fill:#0025DC;}
	.st6{fill:#E9FF66;}
	.st7{fill:#FF7409;}
	.st8{fill:#FFD22B;}
	.st9{fill:#A1FFD2;}
	.st10{fill:#92C8FF;}
	.st11{fill:#E1B1FF;}
	.st12{fill:#FFB1C5;}
	.st13{fill:#FFCCC3;}
	.st14{fill:#FFE0B1;}
	.st15{fill:#A0FF9B;}
	.st16{fill:#BDFF6C;}
	.st17{fill:#C0FF18;}
	.st18{fill:#92CCFF;}
	.st19{fill:#9960FF;}
	.st20{fill:#00D2EC;}
	.st21{fill:#E90028;}
	.st22{fill:#255D00;}
	.st23{fill:#794F00;}
	.st24{fill:#2E18FF;}
	.st25{fill:#9C53FF;}
	.st26{fill:#FF8BB1;}
	.st27{fill:#F2C3FF;}
	.st28{fill:#0CE9FF;}
	.st29{fill:#FFABE5;}
	.st30{fill:#FF4198;}
	.st31{fill:#00D36D;}
	.st32{fill:#FF12A3;}
	.st33{fill:#FFD9DF;}
</style>
<g>
	<path class="st0" d="M19.05,84.43c-1.66,0-3-1.35-3-3.01V13.35c0-1.66,1.35-3,3-3h12.92c1.66,0,3.01,1.35,3.01,3v68.07
		c0,1.66-1.35,3.01-3.01,3.01H19.05z"/>
	<path class="st1" d="M31.97,10.8c1.4,0,2.55,1.14,2.55,2.55v68.07c0,1.4-1.14,2.55-2.55,2.55H19.05c-1.4,0-2.55-1.14-2.55-2.55
		V13.35c0-1.4,1.14-2.55,2.55-2.55H31.97 M31.97,9.88H19.05c-1.91,0-3.46,1.55-3.46,3.46v68.07c0,1.91,1.55,3.46,3.46,3.46h12.92
		c1.91,0,3.46-1.55,3.46-3.46V13.35C35.43,11.43,33.88,9.88,31.97,9.88L31.97,9.88z"/>
</g>
<g>
	<path class="st2" d="M49.72,84.43c-1.66,0-3-1.35-3-3.01V13.35c0-1.66,1.35-3,3-3h12.92c1.66,0,3.01,1.35,3.01,3v68.07
		c0,1.66-1.35,3.01-3.01,3.01H49.72z"/>
	<path class="st3" d="M62.64,10.8c1.4,0,2.55,1.14,2.55,2.55v68.07c0,1.4-1.14,2.55-2.55,2.55H49.72c-1.4,0-2.55-1.14-2.55-2.55
		V13.35c0-1.4,1.14-2.55,2.55-2.55H62.64 M62.64,9.88H49.72c-1.91,0-3.46,1.55-3.46,3.46v68.07c0,1.91,1.55,3.46,3.46,3.46h12.92
		c1.91,0,3.46-1.55,3.46-3.46V13.35C66.1,11.43,64.55,9.88,62.64,9.88L62.64,9.88z"/>
</g>
<g>
	<g>
		<path class="st3" d="M13.09,15.07c-0.15-2-2.08-3.54-4.08-2.9c-0.47,0.15-0.89,0.39-1.26,0.73c-0.18,0.16-0.33,0.36-0.47,0.56
			c-0.03,0.05-0.15,0.22-0.14,0.21c-0.09,0.14-0.05-0.04,0.03,0c0.07-0.02,0.05-0.02-0.05,0.01c0.1-0.01,0.11-0.01,0.04,0
			c-0.04,0-0.29-0.02-0.2,0c0.1,0.02-0.16-0.05-0.2-0.06c-0.07-0.02-0.06-0.02,0.01,0.01c-0.04-0.02-0.09-0.04-0.13-0.07
			c-0.04-0.02-0.23-0.15-0.19-0.12c0.1,0.08-0.19-0.22-0.11-0.11c0.08,0.1-0.13-0.25-0.06-0.11c0.02,0.03,0.03,0.07,0.02,0.12
			c0-0.12,0-0.12,0-0.01c0.12-0.53-0.16-1.08-0.7-1.23c-0.51-0.14-1.11,0.17-1.23,0.7c-0.27,1.13,0.47,2.15,1.48,2.6
			c1.08,0.48,2.25,0.36,2.97-0.65c0.06-0.09,0.12-0.18,0.18-0.27C9.05,14.4,9.04,14.41,9,14.47c0.03-0.04,0.06-0.07,0.1-0.1
			c0.03-0.03,0.07-0.07,0.1-0.1c-0.07,0.05-0.07,0.05-0.01,0.01c0.09-0.06,0.19-0.12,0.29-0.17c-0.15,0.08,0.07-0.02,0.12-0.04
			c0.09-0.03,0.18-0.05,0.28-0.06c-0.18,0.03,0.06,0.01,0.11,0.01c0.03,0,0.3,0.04,0.11,0c0.09,0.02,0.18,0.04,0.28,0.07
			c-0.17-0.05,0.08,0.04,0.11,0.06c0.03,0.02,0.24,0.16,0.11,0.06c0.07,0.06,0.14,0.13,0.21,0.2c0.15,0.14-0.02-0.06,0.08,0.1
			c0.05,0.08,0.1,0.16,0.14,0.25c-0.08-0.16,0.04,0.12,0.05,0.16c0.01,0.05,0.02,0.09,0.03,0.14c-0.01-0.11-0.01-0.1,0,0.02
			c0.04,0.54,0.43,1,1,1C12.6,16.07,13.13,15.61,13.09,15.07L13.09,15.07z"/>
	</g>
</g>
<g>
	<g>
		<path class="st3" d="M69.48,68.1c0.02-0.03,0.05-0.06,0.08-0.09c-0.13,0.09-0.15,0.11-0.07,0.05c-0.16,0.06-0.18,0.07-0.08,0.04
			c0.1-0.02,0.07-0.02-0.09,0c0.02,0.01,0.23,0.01,0.25,0C69.4,68.08,69.38,68.07,69.48,68.1c0.05,0.01,0.09,0.02,0.14,0.03
			c0.37,0.09,0.72,0.26,1.09,0.37c0.94,0.29,1.95,0.41,2.92,0.32c0.52-0.04,1.03-0.43,1-1c-0.02-0.5-0.44-1.05-1-1
			c-0.25,0.02-0.5,0.03-0.75,0.03c-0.13,0-0.26-0.01-0.4-0.02c-0.06,0-0.12-0.01-0.18-0.02c-0.1-0.01-0.09-0.01,0,0
			c-0.51-0.07-1.01-0.21-1.49-0.39c-0.87-0.34-2.08-0.61-2.75,0.26c-0.17,0.22-0.29,0.42-0.29,0.71c0,0.25,0.11,0.54,0.29,0.71
			C68.42,68.43,69.14,68.54,69.48,68.1L69.48,68.1z"/>
	</g>
</g>
<g>
	<g>
		<path class="st3" d="M69.7,56.35c0.1-0.12,0.21-0.23,0.34-0.33c-0.07,0.05-0.13,0.1-0.2,0.16c0.15-0.12,0.32-0.21,0.49-0.29
			c-0.08,0.03-0.16,0.07-0.24,0.1c0.19-0.08,0.38-0.13,0.58-0.16c-0.09,0.01-0.18,0.02-0.27,0.04c0.2-0.03,0.4-0.03,0.6,0
			c-0.09-0.01-0.18-0.02-0.27-0.04c0.1,0.01,0.2,0.04,0.29,0.06c0.25,0.07,0.55,0.03,0.77-0.1c0.21-0.12,0.41-0.36,0.46-0.6
			c0.12-0.53-0.16-1.07-0.7-1.23c-1.14-0.33-2.51,0.04-3.27,0.97C68.12,55.14,68,55.36,68,55.64c0,0.25,0.11,0.54,0.29,0.71
			c0.19,0.17,0.44,0.3,0.71,0.29C69.25,56.63,69.54,56.55,69.7,56.35L69.7,56.35z"/>
	</g>
</g>
<g>
	<g>
		<path class="st4" d="M68.39,42.89c1.6-0.15,3.2-0.18,4.8-0.1c0.52,0.03,1.02-0.48,1-1c-0.03-0.57-0.44-0.97-1-1
			c-1.6-0.08-3.2-0.05-4.8,0.1c-0.52,0.05-1.03,0.43-1,1C67.42,42.39,67.84,42.94,68.39,42.89L68.39,42.89z"/>
	</g>
</g>
<g>
	<g>
		<path class="st4" d="M46.91,7.42c-0.29-0.93-0.78-1.77-1.44-2.48C44.81,4.22,44,3.7,43.1,3.32c-0.22-0.09-0.57-0.01-0.77,0.1
			c-0.21,0.12-0.41,0.36-0.46,0.6c-0.06,0.26-0.05,0.54,0.1,0.77c0.15,0.23,0.34,0.35,0.6,0.46c-0.32-0.13,0,0,0.08,0.04
			c0.08,0.04,0.17,0.08,0.25,0.13c0.16,0.09,0.32,0.19,0.47,0.3c0.03,0.02,0.07,0.05,0.1,0.07c0.15,0.11-0.18-0.14-0.04-0.03
			c0.08,0.06,0.16,0.13,0.23,0.2c0.14,0.12,0.27,0.25,0.4,0.39c0.06,0.07,0.12,0.14,0.18,0.21c0.03,0.03,0.05,0.07,0.08,0.1
			c-0.2-0.22-0.08-0.1-0.03-0.04c0.11,0.15,0.21,0.3,0.31,0.46c0.09,0.16,0.18,0.32,0.26,0.49c0.01,0.03,0.03,0.06,0.04,0.09
			c-0.02-0.05-0.04-0.1-0.06-0.15c0,0.03,0.05,0.12,0.06,0.14c0.04,0.09,0.07,0.19,0.1,0.29c0.16,0.5,0.7,0.87,1.23,0.7
			C46.71,8.49,47.08,7.95,46.91,7.42L46.91,7.42z"/>
	</g>
</g>
<g>
	<g>
		<path class="st4" d="M11.24,25.63c-0.92-0.19-1.84-0.35-2.77-0.17c-0.8,0.16-1.52,0.62-1.97,1.3c-0.45,0.66-0.4,1.44-0.62,2.17
			c-0.02,0.08-0.05,0.16-0.08,0.23c0.06-0.16,0.01-0.01-0.03,0.06c-0.08,0.15-0.16,0.29-0.26,0.42c0.1-0.14,0,0-0.05,0.05
			c-0.05,0.05-0.09,0.1-0.14,0.15c-0.02,0.02-0.22,0.19-0.12,0.11c0.09-0.08-0.14,0.1-0.17,0.11c-0.44,0.28-0.66,0.9-0.36,1.37
			c0.28,0.44,0.9,0.66,1.37,0.36c0.6-0.39,1.13-0.92,1.46-1.56c0.17-0.33,0.3-0.67,0.38-1.03c0.07-0.34,0.1-0.69,0.18-1.03
			c0.02-0.07,0.04-0.14,0.06-0.22c0.07-0.23-0.09,0.12,0.04-0.09c0.02-0.02,0.15-0.2,0.06-0.1c-0.09,0.1,0.09-0.08,0.11-0.1
			c0.07-0.08-0.14,0.08,0.02-0.02c0.07-0.04,0.14-0.08,0.21-0.12c0.18-0.11-0.16,0.04,0.06-0.03c0.06-0.02,0.13-0.04,0.19-0.06
			c0.07-0.02,0.13-0.03,0.2-0.05c0.25-0.06-0.24,0,0.08-0.01c0.19-0.01,0.39-0.01,0.58,0c0.09,0.01,0.18,0.01,0.26,0.03
			c-0.17-0.02,0.16,0.03,0.15,0.03c0.21,0.04,0.42,0.08,0.63,0.12c0.51,0.11,1.11-0.15,1.23-0.7
			C12.06,26.36,11.79,25.75,11.24,25.63L11.24,25.63z"/>
	</g>
</g>
<g>
	<g>
		<path class="st4" d="M8.46,52.59c0.02-0.19-0.05,0.24-0.01,0.06c0.01-0.05,0.02-0.1,0.03-0.15c0.02-0.1,0.05-0.19,0.09-0.29
			c0.01-0.03,0.02-0.06,0.04-0.09c-0.02,0.05-0.04,0.1-0.06,0.15c0.01-0.04,0.05-0.1,0.06-0.14c0.05-0.09,0.09-0.18,0.15-0.26
			c0.03-0.04,0.06-0.08,0.08-0.13c0.05-0.08,0.15-0.14-0.03,0.04c0.07-0.07,0.13-0.15,0.2-0.23c0.07-0.07,0.14-0.14,0.22-0.21
			c0.05-0.05,0.21-0.15-0.04,0.03c0.04-0.03,0.08-0.06,0.12-0.09c0.17-0.12,0.35-0.21,0.53-0.3c0.16-0.08-0.23,0.08-0.05,0.02
			c0.05-0.02,0.09-0.03,0.14-0.05c0.1-0.03,0.19-0.06,0.29-0.08c0.05-0.01,0.1-0.02,0.15-0.03c0.17-0.03-0.26,0.02-0.07,0.01
			c0.09-0.01,0.18-0.01,0.28-0.01c0.1,0,0.2,0.01,0.3,0.02c0.11,0-0.28-0.05-0.07-0.01c0.06,0.01,0.12,0.02,0.17,0.04
			c0.51,0.13,1.11-0.16,1.23-0.7c0.12-0.52-0.16-1.09-0.7-1.23c-1.11-0.28-2.33-0.04-3.26,0.62c-0.49,0.35-0.9,0.76-1.23,1.27
			c-0.34,0.53-0.5,1.11-0.57,1.73c-0.03,0.24,0.13,0.54,0.29,0.71c0.17,0.17,0.46,0.3,0.71,0.29C8.05,53.56,8.4,53.15,8.46,52.59
			L8.46,52.59z"/>
	</g>
</g>
<g>
	<g>
		<path class="st5" d="M39.55,8.23c-0.05-0.19-0.1-0.39-0.14-0.59c-0.02-0.11-0.04-0.23-0.06-0.34c0.03,0.23,0-0.03,0-0.08
			c-0.04-0.42-0.04-0.84-0.01-1.25c0.01-0.1,0.02-0.2,0.03-0.3c-0.03,0.24,0.01-0.07,0.02-0.12c0.04-0.2,0.08-0.4,0.13-0.59
			c0.05-0.19,0.11-0.39,0.18-0.58c0.02-0.04,0.13-0.33,0.04-0.12c0.05-0.11,0.09-0.21,0.14-0.31c0.23-0.47,0.14-1.1-0.36-1.37
			c-0.45-0.24-1.12-0.14-1.37,0.36c-0.88,1.81-1.1,3.88-0.55,5.83c0.14,0.5,0.71,0.87,1.23,0.7C39.36,9.3,39.7,8.77,39.55,8.23
			L39.55,8.23z"/>
	</g>
</g>
<g>
	<g>
		<path class="st5" d="M44.12,82.9c-0.67-0.03-1.31,0.32-1.73,0.82c-0.42,0.51-0.64,1.09-0.84,1.71c-0.04,0.12-0.08,0.24-0.12,0.35
			c-0.08,0.22,0.1-0.2,0,0.01c-0.03,0.06-0.06,0.12-0.09,0.18c-0.03,0.06-0.07,0.11-0.11,0.17c-0.1,0.17,0.13-0.15,0,0
			c-0.08,0.08-0.15,0.17-0.23,0.25c-0.47,0.53-0.89,1.21-0.62,1.94c0.18,0.49,0.69,0.87,1.23,0.7c0.48-0.16,0.89-0.7,0.7-1.23
			c-0.01-0.03-0.06-0.21-0.02-0.03c0.01,0.1,0.01,0.11,0.01,0.03c-0.01,0.05-0.01,0.11-0.02,0.16c0.03-0.16-0.09,0.16-0.03,0.06
			c0.03-0.04,0.05-0.08,0.07-0.12c0.09-0.15-0.11,0.13-0.03,0.03c0.03-0.04,0.07-0.08,0.1-0.12c0.07-0.08,0.14-0.15,0.21-0.23
			c0.38-0.44,0.62-0.9,0.81-1.44c0.07-0.2,0.13-0.41,0.2-0.62c0.02-0.05,0.04-0.11,0.06-0.16c0.04-0.12-0.1,0.19-0.01,0.03
			c0.05-0.09,0.09-0.19,0.15-0.28c0.02-0.03,0.13-0.18,0.03-0.05c-0.11,0.13,0.03-0.03,0.04-0.04c0.03-0.03,0.06-0.06,0.09-0.09
			c0.02-0.02,0.04-0.04,0.07-0.06c0.06-0.05,0.03-0.03-0.08,0.06c0.03-0.01,0.07-0.04,0.1-0.06c0.16-0.1-0.15,0.04-0.05,0.02
			c0.03-0.01,0.12-0.02,0.14-0.04c-0.05,0.01-0.1,0.02-0.15,0.02c0.04,0,0.08,0,0.12,0c0.52,0.02,1.02-0.48,1-1
			C45.09,83.34,44.68,82.92,44.12,82.9L44.12,82.9z"/>
	</g>
</g>
<g>
	<g>
		<path class="st6" d="M68.95,36.55c0.19-0.16,0.39-0.32,0.58-0.48c0.05-0.04,0.1-0.08,0.15-0.12c0.24-0.19-0.08,0.06,0.06-0.05
			c0.1-0.08,0.2-0.15,0.3-0.23c0.41-0.31,0.84-0.61,1.27-0.89c0.86-0.57,1.76-1.1,2.68-1.57c0.46-0.24,0.64-0.93,0.36-1.37
			c-0.31-0.47-0.87-0.62-1.37-0.36c-1.94,1.01-3.76,2.24-5.44,3.65c-0.4,0.34-0.37,1.07,0,1.41C67.96,36.95,68.52,36.91,68.95,36.55
			L68.95,36.55z"/>
	</g>
</g>
<g>
	<g>
		<path class="st6" d="M19.8,7.06c0.16-0.93,0.39-1.85,0.69-2.75c0.03-0.07,0.05-0.15,0.08-0.22c0.06-0.17-0.07,0.16-0.02,0.04
			c0.02-0.04,0.03-0.07,0.05-0.11c0.08-0.15,0.19-0.29,0.26-0.44c-0.03,0.07-0.13,0.16-0.03,0.04c0.03-0.03,0.05-0.06,0.08-0.08
			c0.03-0.03,0.06-0.05,0.08-0.08c0.08-0.08-0.19,0.12-0.05,0.04c0.02-0.01,0.08-0.03,0.09-0.05c-0.02,0.03-0.22,0.07-0.09,0.04
			c0.04-0.01,0.2-0.04,0.03-0.02c-0.19,0.02,0,0.01,0.04,0.01c0.52,0,1.02-0.46,1-1c-0.02-0.54-0.44-1-1-1
			c-1.22,0-1.95,0.99-2.36,2.02c-0.39,0.96-0.62,2.01-0.79,3.03c-0.09,0.51,0.14,1.1,0.7,1.23C19.06,7.86,19.71,7.61,19.8,7.06
			L19.8,7.06z"/>
	</g>
</g>
<g>
	<g>
		<path class="st6" d="M25.87,88.5c0,0,0.01,0.01,0.01,0.01c-0.07-0.05-0.13-0.1-0.2-0.16c0.04,0.04,0.08,0.07,0.12,0.12
			c-0.05-0.07-0.1-0.13-0.16-0.2c0.04,0.05,0.07,0.11,0.1,0.17c-0.03-0.08-0.07-0.16-0.1-0.24c0.03,0.08,0.05,0.16,0.06,0.24
			c-0.01-0.09-0.02-0.18-0.04-0.27c0.01,0.09,0.01,0.18,0,0.27c0.01-0.09,0.02-0.18,0.04-0.27c-0.01,0.09-0.04,0.18-0.07,0.26
			c0.03-0.08,0.07-0.16,0.1-0.24c-0.03,0.08-0.07,0.15-0.13,0.21c0.05-0.07,0.1-0.13,0.16-0.2c-0.04,0.05-0.09,0.1-0.14,0.14
			c0.07-0.05,0.13-0.1,0.2-0.16c-0.05,0.04-0.1,0.07-0.16,0.09c0.08-0.03,0.16-0.07,0.24-0.1c-0.03,0.01-0.05,0.02-0.08,0.03
			c-0.25,0.08-0.47,0.24-0.6,0.46c-0.13,0.21-0.18,0.53-0.1,0.77c0.08,0.24,0.23,0.48,0.46,0.6c0.23,0.12,0.51,0.18,0.77,0.1
			c0.16-0.05,0.32-0.11,0.46-0.21c0.09-0.07,0.19-0.14,0.28-0.22c0.09-0.08,0.16-0.19,0.23-0.29c0.05-0.07,0.09-0.14,0.13-0.21
			c0.07-0.15,0.14-0.3,0.17-0.46c0.06-0.33,0.08-0.66-0.03-0.99c-0.05-0.15-0.11-0.31-0.2-0.44c-0.07-0.1-0.14-0.2-0.23-0.29
			c-0.09-0.09-0.19-0.16-0.29-0.23c-0.11-0.07-0.24-0.11-0.37-0.12c-0.13-0.03-0.27-0.02-0.4,0.02c-0.23,0.06-0.48,0.24-0.6,0.46
			c-0.12,0.23-0.18,0.51-0.1,0.77c0.03,0.08,0.07,0.16,0.1,0.24C25.6,88.29,25.72,88.41,25.87,88.5L25.87,88.5z"/>
	</g>
</g>
<g>
	<g>
		<path class="st6" d="M13.32,80.29c-0.32,0.4-0.64,0.8-1,1.17c-0.09,0.09-0.17,0.17-0.26,0.25c-0.05,0.04-0.1,0.09-0.15,0.13
			c-0.02,0.02-0.2,0.15-0.08,0.07c0.11-0.08-0.09,0.06-0.09,0.06c-0.04,0.03-0.09,0.06-0.13,0.09c-0.11,0.07-0.22,0.13-0.34,0.19
			c-0.13,0.07,0.01,0.02,0.03-0.01c-0.01,0.02-0.15,0.05-0.18,0.06c-0.11,0.04-0.22,0.06-0.34,0.08c-0.24,0.05,0.13,0-0.01,0
			c-0.07,0-0.14,0.01-0.21,0.01c-0.13,0-0.25,0-0.38,0c-0.66,0-1.32,0.04-1.9,0.4c-0.45,0.27-0.66,0.91-0.36,1.37
			c0.29,0.45,0.89,0.65,1.37,0.36c0.01,0,0.22-0.12,0.1-0.06c-0.13,0.05,0.08-0.02,0.11-0.03c0.03-0.01,0.25-0.04,0.11-0.02
			c-0.15,0.02,0.11,0,0.11,0c0.27-0.01,0.54,0,0.8-0.01c0.65-0.01,1.26-0.16,1.84-0.46c0.98-0.5,1.72-1.38,2.39-2.23
			c0.32-0.41,0.43-1.02,0-1.41C14.38,79.96,13.67,79.85,13.32,80.29L13.32,80.29z"/>
	</g>
</g>
<g>
	<g>
		<path class="st7" d="M12.71,43.18c-2.82-0.5-5.73-0.25-8.4,0.83c-0.5,0.2-0.85,0.67-0.7,1.23c0.13,0.47,0.73,0.9,1.23,0.7
			c2.32-0.94,4.86-1.26,7.33-0.83c0.53,0.09,1.08-0.14,1.23-0.7C13.54,43.93,13.24,43.28,12.71,43.18L12.71,43.18z"/>
	</g>
</g>
<g>
	<g>
		<path class="st8" d="M59.29,7.81c0.11-0.15-0.06,0.06,0.02-0.03c0.04-0.05,0.09-0.11,0.13-0.16c0.08-0.1,0.16-0.19,0.24-0.28
			c0.17-0.18,0.34-0.36,0.52-0.54c0.19-0.18,0.38-0.36,0.59-0.52c0.05-0.04,0.11-0.09,0.16-0.13c0.11-0.1-0.13,0.09-0.01,0
			c0.11-0.08,0.22-0.16,0.33-0.24c0.42-0.29,0.86-0.55,1.32-0.78c0.11-0.06,0.22-0.11,0.34-0.16c0.06-0.03,0.13-0.06,0.19-0.08
			c-0.08,0.03-0.11,0.04-0.01,0.01c0.26-0.1,0.52-0.19,0.78-0.28c0.5-0.16,0.87-0.7,0.7-1.23c-0.16-0.5-0.7-0.87-1.23-0.7
			c-2.33,0.73-4.32,2.17-5.79,4.11c-0.32,0.42-0.08,1.14,0.36,1.37C58.45,8.45,58.96,8.26,59.29,7.81L59.29,7.81z"/>
	</g>
</g>
<g>
	<g>
		<path class="st8" d="M12.04,35.5c-1.15-0.59-2.55-0.58-3.66,0.1c-0.22,0.13-0.39,0.35-0.46,0.6c-0.07,0.24-0.04,0.56,0.1,0.77
			c0.29,0.45,0.89,0.65,1.37,0.36c0.12-0.07,0.24-0.14,0.37-0.19c-0.08,0.03-0.16,0.07-0.24,0.1c0.22-0.09,0.45-0.15,0.69-0.18
			c-0.09,0.01-0.18,0.02-0.27,0.04c0.24-0.03,0.48-0.03,0.71,0c-0.09-0.01-0.18-0.02-0.27-0.04c0.24,0.03,0.47,0.09,0.69,0.18
			c-0.08-0.03-0.16-0.07-0.24-0.1c0.06,0.03,0.13,0.06,0.19,0.09c0.24,0.12,0.51,0.17,0.77,0.1c0.23-0.06,0.48-0.24,0.6-0.46
			C12.64,36.42,12.53,35.76,12.04,35.5L12.04,35.5z"/>
	</g>
</g>
<g>
	<g>
		<path class="st8" d="M69.08,26.86c2.55-0.86,5.2-1.31,7.9-1.31c1.29,0,1.29-2,0-2c-2.86,0-5.72,0.46-8.43,1.38
			c-0.51,0.17-0.85,0.69-0.7,1.23C67.98,26.66,68.56,27.04,69.08,26.86L69.08,26.86z"/>
	</g>
</g>
<g>
	<g>
		<path class="st9" d="M68.52,20.25c2.38-0.66,4.76-1.32,7.14-1.97c1.24-0.34,0.71-2.27-0.53-1.93c-2.38,0.66-4.76,1.32-7.14,1.97
			C66.75,18.66,67.28,20.59,68.52,20.25L68.52,20.25z"/>
	</g>
</g>
<g>
	<g>
		<path class="st10" d="M12.31,72.49c0,0.47,0,0.94,0,1.41c0.42-0.32,0.84-0.64,1.27-0.96c-2.42-0.51-4.91-0.5-7.33,0.04
			c-0.53,0.12-0.84,0.73-0.7,1.23c0.15,0.54,0.7,0.82,1.23,0.7c2.05-0.46,4.21-0.48,6.26-0.04c0.63,0.13,1.26-0.28,1.27-0.96
			c0-0.47,0-0.94,0-1.41c0-0.54-0.46-1-1-1C12.77,71.49,12.32,71.95,12.31,72.49L12.31,72.49z"/>
	</g>
</g>
<g>
	<g>
		<path class="st11" d="M68.83,60.75c-0.19-0.02,0.14,0.02,0.18,0.02c0.1,0.01,0.2,0.03,0.3,0.04c0.21,0.03,0.43,0.06,0.64,0.1
			c0.41,0.07,0.82,0.14,1.23,0.21c0.83,0.15,1.66,0.33,2.49,0.52c0.51,0.12,1.11-0.16,1.23-0.7c0.12-0.51-0.15-1.1-0.7-1.23
			c-1.77-0.41-3.56-0.72-5.37-0.96c-0.52-0.07-1.02,0.51-1,1C67.86,60.36,68.27,60.68,68.83,60.75L68.83,60.75z"/>
	</g>
</g>
<g>
	<g>
		<path class="st11" d="M12.09,56.09c-1.37,0.65-2.74,1.3-4.11,1.96c-0.47,0.23-0.63,0.94-0.36,1.37c0.31,0.49,0.86,0.6,1.37,0.36
			c1.37-0.65,2.74-1.3,4.11-1.96c0.47-0.23,0.63-0.94,0.36-1.37C13.14,55.96,12.6,55.85,12.09,56.09L12.09,56.09z"/>
	</g>
</g>
<g>
	<g>
		<path class="st12" d="M50.52,6.95c-0.01-0.08-0.02-0.16-0.04-0.23c0.02,0.17,0.03,0.2,0.01,0.09c0-0.04-0.01-0.08-0.01-0.12
			c-0.01-0.16-0.02-0.32-0.01-0.47c0-0.14,0.03-0.28,0.03-0.41c-0.01,0.31-0.01,0.06,0.01-0.03c0.01-0.08,0.03-0.15,0.05-0.23
			c0.04-0.15,0.08-0.3,0.14-0.45c0.02-0.06,0.04-0.11,0.06-0.17c-0.1,0.29-0.01,0.04,0.02-0.03c0.07-0.14,0.15-0.28,0.23-0.41
			c0.04-0.07,0.09-0.13,0.13-0.2c0.02-0.03,0.05-0.06,0.07-0.1c-0.1,0.12-0.11,0.14-0.05,0.06c0.17-0.21,0.29-0.42,0.29-0.71
			c0-0.25-0.11-0.54-0.29-0.71c-0.36-0.33-1.06-0.43-1.41,0c-0.52,0.65-0.92,1.37-1.12,2.18c-0.2,0.82-0.21,1.65-0.05,2.47
			c0.1,0.51,0.74,0.86,1.23,0.7C50.37,8,50.63,7.5,50.52,6.95L50.52,6.95z"/>
	</g>
</g>
<g>
	<g>
		<path class="st12" d="M14.15,8.57c-1.18-1.52-3.06-2.24-4.84-2.79c-2.17-0.67-4.38-1.2-6.62-1.6c-0.53-0.09-1.08,0.14-1.23,0.7
			C1.32,5.36,1.62,6.01,2.16,6.1c2.1,0.37,4.18,0.86,6.22,1.48c1.61,0.49,3.29,1.02,4.36,2.4c0.33,0.43,1.07,0.35,1.41,0
			C14.57,9.56,14.48,9,14.15,8.57L14.15,8.57z"/>
	</g>
</g>
<g>
	<g>
		<path class="st13" d="M10.3,20.82c-2.21-0.98-4.71-1.16-7.01-0.37c-0.49,0.17-0.87,0.69-0.7,1.23c0.16,0.49,0.7,0.88,1.23,0.7
			c1.01-0.35,1.78-0.46,2.82-0.43c0.56,0.02,0.81,0.05,1.34,0.18c0.25,0.06,0.49,0.12,0.73,0.2c0.1,0.03,0.21,0.07,0.31,0.11
			c0.07,0.03,0.14,0.05,0.2,0.08c-0.07-0.03-0.05-0.02,0.06,0.03c0.48,0.21,1.1,0.15,1.37-0.36C10.89,21.76,10.81,21.05,10.3,20.82
			L10.3,20.82z"/>
	</g>
</g>
<g>
	<g>
		<path class="st13" d="M68.66,14.28c4.29-0.69,8.62-1.04,12.96-1.07c1.29-0.01,1.29-2.01,0-2c-4.52,0.04-9.03,0.43-13.5,1.14
			c-0.53,0.09-0.83,0.75-0.7,1.23C67.59,14.15,68.13,14.37,68.66,14.28L68.66,14.28z"/>
	</g>
</g>
<g>
	<g>
		<path class="st14" d="M67.68,9.34c0.07-0.11,0.15-0.21,0.23-0.31c-0.05,0.07-0.1,0.13-0.16,0.2c0.39-0.5,0.84-0.95,1.34-1.33
			c-0.07,0.05-0.13,0.1-0.2,0.16c0.33-0.25,0.68-0.48,1.05-0.67c0.46-0.24,0.64-0.93,0.36-1.37c-0.3-0.47-0.87-0.62-1.37-0.36
			c-1.2,0.63-2.2,1.57-2.97,2.68c-0.14,0.2-0.16,0.54-0.1,0.77c0.06,0.23,0.24,0.48,0.46,0.6c0.23,0.12,0.51,0.18,0.77,0.1
			C67.34,9.71,67.52,9.56,67.68,9.34L67.68,9.34z"/>
	</g>
</g>
<g>
	<g>
		<path class="st14" d="M34.24,87.54c0.29,0.46,0.55,0.94,0.76,1.44c-0.03-0.08-0.07-0.16-0.1-0.24c0.18,0.43,0.33,0.86,0.44,1.31
			c0.13,0.51,0.72,0.86,1.23,0.7c0.52-0.17,0.84-0.69,0.7-1.23c-0.27-1.05-0.72-2.07-1.31-2.99c-0.14-0.22-0.34-0.39-0.6-0.46
			c-0.24-0.07-0.56-0.04-0.77,0.1C34.16,86.45,33.94,87.06,34.24,87.54L34.24,87.54z"/>
	</g>
</g>
<g>
	<g>
		<path class="st15" d="M30.46,87.9c0.17,1.84,0.33,3.68,0.5,5.52c0.05,0.52,0.43,1.03,1,1c0.5-0.02,1.05-0.44,1-1
			c-0.17-1.84-0.33-3.68-0.5-5.52c-0.05-0.52-0.43-1.03-1-1C30.96,86.92,30.41,87.34,30.46,87.9L30.46,87.9z"/>
	</g>
</g>
<g>
	<g>
		<path class="st16" d="M18.82,86.72c-0.26,0.27-0.53,0.53-0.81,0.78c-0.14,0.13-0.29,0.25-0.44,0.37c-0.03,0.03-0.07,0.05-0.1,0.08
			c-0.1,0.08,0.17-0.13,0.02-0.02c-0.08,0.06-0.15,0.12-0.23,0.17c-0.62,0.44-1.27,0.83-1.96,1.16c-0.47,0.23-0.64,0.94-0.36,1.37
			c0.31,0.48,0.86,0.6,1.37,0.36c1.46-0.71,2.8-1.69,3.92-2.86c0.36-0.38,0.4-1.04,0-1.41C19.85,86.36,19.21,86.32,18.82,86.72
			L18.82,86.72z"/>
	</g>
</g>
<g>
	<g>
		<path class="st16" d="M26.66,6.5c0.01-0.08,0.01-0.16,0.02-0.24c0-0.04,0.01-0.08,0.01-0.12c-0.02,0.17-0.03,0.19-0.01,0.09
			c0.03-0.16,0.06-0.32,0.09-0.48c0.04-0.16,0.08-0.31,0.13-0.47c0.03-0.08,0.05-0.15,0.08-0.23c0.01-0.04,0.03-0.08,0.04-0.11
			C27.07,4.84,27.06,4.86,27,5c0.09-0.13,0.14-0.3,0.21-0.44c0.08-0.14,0.16-0.28,0.24-0.42c0.08-0.13,0.21-0.26,0.28-0.4
			c-0.09,0.12-0.11,0.14-0.04,0.06c0.03-0.03,0.05-0.06,0.08-0.09c0.05-0.06,0.11-0.12,0.16-0.18c0.35-0.39,0.41-1.04,0-1.41
			c-0.38-0.35-1.04-0.41-1.41,0c-1.11,1.21-1.75,2.74-1.86,4.38c-0.03,0.52,0.48,1.02,1,1C26.23,7.47,26.62,7.06,26.66,6.5
			L26.66,6.5z"/>
	</g>
</g>
<g>
	<g>
		<path class="st17" d="M9.36,67.49c0.44-0.1,0.87-0.19,1.31-0.29c0.13-0.03,0.24-0.09,0.34-0.18c0.11-0.07,0.19-0.16,0.26-0.28
			c0.07-0.11,0.11-0.24,0.12-0.37c0.03-0.13,0.02-0.27-0.02-0.4c-0.08-0.24-0.23-0.48-0.46-0.6c-0.08-0.03-0.16-0.07-0.24-0.1
			c-0.18-0.05-0.35-0.05-0.53,0c-0.44,0.1-0.87,0.19-1.31,0.29c-0.13,0.03-0.24,0.09-0.34,0.18c-0.11,0.07-0.19,0.16-0.26,0.28
			c-0.07,0.11-0.11,0.24-0.12,0.37c-0.03,0.13-0.02,0.27,0.02,0.4c0.08,0.24,0.23,0.48,0.46,0.6c0.08,0.03,0.16,0.07,0.24,0.1
			C9.01,67.54,9.19,67.54,9.36,67.49L9.36,67.49z"/>
	</g>
</g>
<g>
	<g>
		<path class="st17" d="M69.85,49.76c0.55-0.04,1.09-0.03,1.64,0.04c-0.09-0.01-0.18-0.02-0.27-0.04c0.67,0.09,1.33,0.26,1.96,0.52
			c0.22,0.09,0.57,0.02,0.77-0.1c0.21-0.12,0.41-0.36,0.46-0.6c0.06-0.26,0.05-0.54-0.1-0.77c-0.15-0.23-0.34-0.36-0.6-0.46
			c-1.21-0.49-2.56-0.7-3.87-0.6c-0.52,0.04-1.03,0.43-1,1C68.87,49.26,69.29,49.8,69.85,49.76L69.85,49.76z"/>
	</g>
</g>
<g>
	<g>
		<path class="st18" d="M69.48,74.41c1.26,0.58,2.49,1.23,3.68,1.95c0.45,0.27,1.12,0.11,1.37-0.36c0.26-0.49,0.12-1.08-0.36-1.37
			c-1.19-0.72-2.42-1.37-3.68-1.95c-0.25-0.12-0.5-0.18-0.77-0.1c-0.23,0.06-0.48,0.24-0.6,0.46
			C68.89,73.48,68.97,74.18,69.48,74.41L69.48,74.41z"/>
	</g>
</g>
<g>
	<g>
		<path class="st19" d="M50.88,86.94c-1.09,1.08-1.9,2.41-2.4,3.86c-0.17,0.5,0.19,1.12,0.7,1.23c0.56,0.13,1.05-0.17,1.23-0.7
			c0.05-0.15,0.11-0.31,0.17-0.46c0.02-0.06,0.1-0.21-0.02,0.05c0.02-0.03,0.03-0.07,0.05-0.11c0.03-0.07,0.06-0.14,0.1-0.21
			c0.14-0.3,0.31-0.6,0.48-0.88c0.09-0.14,0.18-0.27,0.27-0.41c0.04-0.06,0.09-0.12,0.13-0.19c0.02-0.03,0.05-0.06,0.07-0.09
			c-0.17,0.23-0.07,0.09-0.03,0.04c0.21-0.26,0.43-0.51,0.67-0.74c0.37-0.37,0.4-1.05,0-1.41C51.89,86.58,51.27,86.55,50.88,86.94
			L50.88,86.94z"/>
	</g>
</g>
<g>
	<g>
		<path class="st19" d="M33.58,6.53c-0.01-0.04-0.02-0.09-0.02-0.13c0.02,0.15,0.02,0.17,0.01,0.06c-0.01-0.09-0.02-0.18-0.02-0.27
			c-0.01-0.16-0.01-0.32-0.01-0.48c0-0.09,0.01-0.18,0.01-0.27c0-0.03,0-0.26,0.03-0.27c-0.01,0.04-0.01,0.09-0.02,0.13
			c0.01-0.05,0.01-0.09,0.02-0.13c0.02-0.09,0.03-0.18,0.05-0.27c0.03-0.16,0.07-0.31,0.12-0.46c0.03-0.09,0.06-0.17,0.09-0.26
			c0.02-0.06,0.09-0.35,0.02-0.08c0.04-0.14,0.14-0.3,0.21-0.43c0.09-0.16,0.18-0.32,0.28-0.47c0.29-0.44,0.1-1.13-0.36-1.37
			c-0.5-0.27-1.06-0.11-1.37,0.36c-0.95,1.44-1.26,3.19-0.97,4.87c0.09,0.52,0.75,0.85,1.23,0.7C33.43,7.58,33.67,7.08,33.58,6.53
			L33.58,6.53z"/>
	</g>
</g>
<g>
	<g>
		<path class="st20" d="M67.32,85.85c0.04,0.03,0.09,0.06,0.13,0.09c0.03,0.02,0.14,0.11,0.02,0.02c-0.13-0.1,0.02,0.02,0.04,0.04
			c0.03,0.03,0.06,0.05,0.09,0.08c0.14,0.12,0.27,0.26,0.39,0.4c0.03,0.04,0.07,0.08,0.1,0.12c0.02,0.02,0.11,0.14,0.02,0.02
			c-0.1-0.13,0.01,0.02,0.03,0.05c0.02,0.03,0.05,0.07,0.07,0.1c0.11,0.16,0.21,0.33,0.3,0.51c0.04,0.08,0.08,0.17,0.12,0.25
			c0.06,0.13-0.03-0.03-0.03-0.07c0,0.04,0.04,0.11,0.06,0.14c0.07,0.17,0.12,0.35,0.17,0.53c0.02,0.09,0.04,0.18,0.06,0.27
			c0.01,0.04,0.01,0.08,0.02,0.12c0.04,0.21-0.02-0.18-0.01-0.05c0.02,0.2,0.03,0.39,0.03,0.59c-0.01,0.52,0.46,1.02,1,1
			c0.55-0.02,0.99-0.44,1-1c0.02-1.97-1-3.83-2.62-4.94c-0.43-0.3-1.13-0.1-1.37,0.36C66.69,84.99,66.85,85.53,67.32,85.85
			L67.32,85.85z"/>
	</g>
</g>
<g>
	<g>
		<path class="st21" d="M12.81,4.16c0.16,0.07,0.3,0.16,0.44,0.26c-0.07-0.05-0.13-0.1-0.2-0.16c0.14,0.11,0.27,0.24,0.38,0.38
			c-0.05-0.07-0.1-0.13-0.16-0.2c0.11,0.14,0.2,0.3,0.27,0.46c-0.03-0.08-0.07-0.16-0.1-0.24c0.05,0.11,0.08,0.23,0.11,0.35
			c0.05,0.24,0.25,0.48,0.46,0.6c0.11,0.07,0.24,0.11,0.37,0.12c0.13,0.03,0.27,0.02,0.4-0.02c0.24-0.08,0.48-0.23,0.6-0.46
			c0.13-0.24,0.16-0.5,0.1-0.77c-0.05-0.24-0.15-0.47-0.26-0.69c-0.11-0.22-0.26-0.42-0.42-0.61c-0.16-0.19-0.34-0.34-0.54-0.49
			c-0.14-0.1-0.28-0.19-0.44-0.26c-0.11-0.07-0.24-0.11-0.37-0.12c-0.13-0.03-0.27-0.02-0.4,0.02c-0.23,0.06-0.48,0.24-0.6,0.46
			c-0.12,0.23-0.18,0.51-0.1,0.77c0.03,0.08,0.07,0.16,0.1,0.24C12.54,3.95,12.66,4.07,12.81,4.16L12.81,4.16z"/>
	</g>
</g>
<g>
	<g>
		<path class="st21" d="M68.45,81.35c0.35,0.07,0.69,0.16,1.03,0.27c0.16,0.05,0.32,0.11,0.48,0.17c0.08,0.03,0.16,0.06,0.24,0.09
			c-0.15-0.06,0.13,0.06,0.13,0.06c0.63,0.29,1.23,0.64,1.79,1.06c0.02,0.01,0.19,0.15,0.08,0.06c0.07,0.05,0.13,0.11,0.2,0.16
			c0.13,0.11,0.26,0.22,0.38,0.34c0.26,0.24,0.51,0.5,0.74,0.77c0.11,0.13,0.22,0.26,0.32,0.39c-0.09-0.11,0.04,0.06,0.06,0.08
			c0.05,0.07,0.1,0.14,0.15,0.21c0.21,0.31,0.4,0.63,0.57,0.96c0.25,0.48,0.92,0.62,1.37,0.36c0.48-0.28,0.61-0.89,0.36-1.37
			c-1.48-2.8-4.26-4.89-7.36-5.52c-0.53-0.11-1.08,0.15-1.23,0.7C67.61,80.61,67.91,81.24,68.45,81.35L68.45,81.35z"/>
	</g>
</g>
<g>
	<g>
		<path class="st22" d="M46.61,86.17c-1.09,1.13-1.91,2.46-2.45,3.93c-0.09,0.23-0.02,0.57,0.1,0.77c0.12,0.21,0.36,0.41,0.6,0.46
			c0.57,0.13,1.03-0.17,1.23-0.7c0.03-0.07,0.06-0.15,0.09-0.22c0.01-0.02,0.09-0.21,0.02-0.05c-0.06,0.15-0.01,0.01,0.01-0.02
			c0.07-0.15,0.14-0.31,0.21-0.46c0.15-0.3,0.31-0.59,0.49-0.88c0.08-0.13,0.17-0.27,0.26-0.4c0.05-0.07,0.1-0.15,0.16-0.22
			c0.02-0.03,0.05-0.06,0.07-0.09c0.08-0.1-0.13,0.16-0.05,0.06c0.22-0.27,0.44-0.53,0.68-0.78c0.36-0.38,0.4-1.04,0-1.41
			C47.63,85.8,47,85.76,46.61,86.17L46.61,86.17z"/>
	</g>
</g>
<g>
	<g>
		<path class="st23" d="M62.01,89.49c0.09,0.1,0.18,0.19,0.26,0.29c0.12,0.14-0.13-0.19-0.02-0.02c0.03,0.05,0.07,0.09,0.1,0.14
			c0.14,0.2,0.26,0.41,0.36,0.63c0.02,0.05,0.05,0.1,0.07,0.15c-0.13-0.26-0.04-0.1-0.02-0.03c0.05,0.12,0.09,0.25,0.13,0.37
			c0.07,0.23,0.12,0.47,0.15,0.71c-0.01-0.09-0.02-0.18-0.04-0.27c0.03,0.26,0.05,0.52,0.04,0.78c-0.01,0.52,0.47,1.02,1,1
			c0.55-0.02,0.99-0.44,1-1c0.04-1.54-0.57-3.06-1.63-4.18c-0.36-0.38-1.06-0.39-1.41,0C61.63,88.48,61.62,89.08,62.01,89.49
			L62.01,89.49z"/>
	</g>
</g>
<g>
	<g>
		<path class="st24" d="M57.22,87.61c0.07,1.21,0.03,2.43-0.12,3.64c-0.03,0.24,0.13,0.55,0.29,0.71c0.17,0.17,0.46,0.3,0.71,0.29
			c0.26-0.01,0.53-0.1,0.71-0.29c0.19-0.21,0.26-0.43,0.29-0.71c0.15-1.21,0.19-2.42,0.12-3.64c-0.03-0.52-0.44-1.03-1-1
			C57.7,86.63,57.18,87.05,57.22,87.61L57.22,87.61z"/>
	</g>
</g>
<g>
	<g>
		<path class="st25" d="M53.02,88.35c-0.28,1.19-0.46,2.4-0.56,3.62c-0.04,0.52,0.49,1.02,1,1c0.58-0.03,0.96-0.44,1-1
			c0.03-0.41,0.07-0.82,0.13-1.23c-0.01,0.09-0.02,0.18-0.04,0.27c0.1-0.71,0.23-1.42,0.39-2.12c0.12-0.51-0.16-1.11-0.7-1.23
			C53.74,87.54,53.15,87.81,53.02,88.35L53.02,88.35z"/>
	</g>
</g>
<g>
	<g>
		<path class="st25" d="M71.8,38.73c0.16-0.1,0.33-0.19,0.5-0.28c0.06-0.03,0.13-0.06,0.19-0.09c0.1-0.04,0.09-0.04-0.04,0.02
			c0.04-0.02,0.09-0.04,0.13-0.05c0.32-0.12,0.65-0.22,0.99-0.28c0.08-0.02,0.16-0.03,0.24-0.04c0.11-0.02,0.09-0.01-0.06,0.01
			C73.8,38,73.85,38,73.89,37.99c0.16-0.02,0.33-0.03,0.5-0.03c0.17,0,0.33,0,0.5,0.01c0.09,0.01,0.19,0.02,0.28,0.03
			c0.11,0.01,0.09,0.01-0.05-0.01c0.05,0.01,0.09,0.01,0.14,0.02c0.27,0.05,0.52,0.04,0.77-0.1c0.21-0.12,0.41-0.36,0.46-0.6
			c0.11-0.48-0.15-1.14-0.7-1.23c-1.72-0.29-3.5,0-5,0.92c-0.45,0.27-0.66,0.91-0.36,1.37C70.72,38.82,71.32,39.03,71.8,38.73
			L71.8,38.73z"/>
	</g>
</g>
<g>
	<g>
		<path class="st26" d="M11.42,39.42c-3.3-0.33-6.64-0.12-9.88,0.6c-1.26,0.28-0.72,2.21,0.53,1.93c3.07-0.68,6.22-0.85,9.34-0.53
			c0.54,0.05,1-0.5,1-1C12.42,39.84,11.96,39.48,11.42,39.42L11.42,39.42z"/>
	</g>
</g>
<g>
	<g>
		<path class="st26" d="M55.27,6.66c-0.01-0.13-0.01-0.26,0-0.39c0-0.01,0.01-0.15,0.01-0.15c-0.02,0.13-0.02,0.15-0.01,0.08
			c0-0.03,0.01-0.05,0.01-0.08c0.02-0.11,0.05-0.23,0.08-0.34c0.02-0.06,0.04-0.12,0.06-0.18c0.04-0.11,0.03-0.14,0-0.01
			c0.06-0.22,0.23-0.46,0.36-0.65c0.04-0.05,0.07-0.11,0.11-0.16c0.07-0.09,0.02-0.05-0.01,0.02c0.05-0.1,0.18-0.21,0.26-0.29
			c0.17-0.18,0.35-0.34,0.53-0.5c0.05-0.04,0.11-0.09,0.16-0.13c0.09-0.08-0.13,0.09,0.02-0.02c0.1-0.07,0.2-0.14,0.3-0.21
			c0.44-0.3,0.9-0.57,1.35-0.84c0.45-0.27,0.65-0.91,0.36-1.37c-0.29-0.45-0.89-0.64-1.37-0.36c-1.02,0.6-2.08,1.23-2.88,2.13
			c-0.84,0.94-1.44,2.17-1.36,3.45c0.03,0.52,0.44,1.03,1,1C54.78,7.63,55.31,7.21,55.27,6.66L55.27,6.66z"/>
	</g>
</g>
<g>
	<g>
		<path class="st27" d="M11.13,61.29c-2.43,0.3-4.85,0.7-7.25,1.2c-0.53,0.11-0.84,0.73-0.7,1.23c0.15,0.55,0.7,0.81,1.23,0.7
			c2.22-0.46,4.46-0.85,6.71-1.13c0.54-0.07,1-0.41,1-1C12.13,61.8,11.67,61.22,11.13,61.29L11.13,61.29z"/>
	</g>
</g>
<g>
	<g>
		<path class="st28" d="M2.84,36.43C3.56,36.21,4.28,36,5,35.78c0.24-0.07,0.47-0.24,0.6-0.46c0.13-0.21,0.18-0.53,0.1-0.77
			c-0.08-0.24-0.23-0.48-0.46-0.6c-0.24-0.12-0.51-0.18-0.77-0.1c-0.72,0.22-1.44,0.43-2.16,0.65c-0.24,0.07-0.47,0.24-0.6,0.46
			c-0.13,0.21-0.18,0.53-0.1,0.77c0.08,0.24,0.23,0.48,0.46,0.6C2.3,36.45,2.57,36.51,2.84,36.43L2.84,36.43z"/>
	</g>
</g>
<g>
	<g>
		<path class="st28" d="M12.01,76.98c-1.56,0.61-3.08,1.3-4.56,2.07c-0.46,0.24-0.64,0.93-0.36,1.37c0.3,0.47,0.87,0.62,1.37,0.36
			c0.69-0.36,1.39-0.71,2.1-1.03c0.35-0.16,0.7-0.31,1.05-0.46c0.07-0.03,0.05-0.02-0.05,0.02c0.05-0.02,0.1-0.04,0.15-0.06
			c0.09-0.04,0.18-0.07,0.27-0.11c0.19-0.08,0.38-0.15,0.57-0.23c0.25-0.1,0.46-0.22,0.6-0.46c0.13-0.21,0.18-0.53,0.1-0.77
			C13.08,77.21,12.53,76.78,12.01,76.98L12.01,76.98z"/>
	</g>
</g>
<g>
	<g>
		<path class="st28" d="M22.27,87.72c-0.28,0.64-0.61,1.26-0.99,1.85c-0.09,0.14-0.18,0.27-0.28,0.41
			c-0.05,0.08-0.11,0.15-0.16,0.23c-0.02,0.03-0.05,0.07-0.07,0.1c-0.02,0.03-0.11,0.14-0.02,0.02c0.1-0.13-0.02,0.03-0.04,0.04
			c-0.03,0.03-0.05,0.06-0.08,0.1c-0.05,0.06-0.1,0.13-0.16,0.19c-0.12,0.14-0.24,0.28-0.37,0.42c-0.35,0.39-0.41,1.04,0,1.41
			c0.38,0.35,1.04,0.41,1.41,0c1.02-1.11,1.86-2.37,2.47-3.75c0.11-0.26,0.18-0.49,0.1-0.77c-0.06-0.23-0.24-0.48-0.46-0.6
			C23.21,87.13,22.5,87.21,22.27,87.72L22.27,87.72z"/>
	</g>
</g>
<g>
	<g>
		<path class="st29" d="M13.82,85.14c-1.31,0.68-2.62,1.36-3.92,2.04c-0.47,0.24-0.64,0.93-0.36,1.37c0.31,0.47,0.87,0.62,1.37,0.36
			c1.31-0.68,2.62-1.36,3.92-2.04c0.47-0.24,0.64-0.93,0.36-1.37C14.89,85.02,14.32,84.88,13.82,85.14L13.82,85.14z"/>
	</g>
</g>
<g>
	<g>
		<path class="st30" d="M71.95,10.99c0.11-0.06,0.21-0.11,0.33-0.16c-0.08,0.03-0.16,0.07-0.24,0.1c0.27-0.11,0.56-0.19,0.85-0.23
			c-0.09,0.01-0.18,0.02-0.27,0.04c0.09-0.01,0.19-0.02,0.28-0.03c0.26-0.01,0.52-0.1,0.71-0.29c0.17-0.17,0.3-0.46,0.29-0.71
			C73.9,9.45,73.81,9.18,73.61,9c-0.19-0.17-0.44-0.31-0.71-0.29c-0.69,0.04-1.36,0.22-1.96,0.56c-0.22,0.12-0.39,0.36-0.46,0.6
			c-0.04,0.13-0.05,0.27-0.02,0.4c0.01,0.13,0.05,0.26,0.12,0.37c0.14,0.21,0.34,0.4,0.6,0.46C71.45,11.15,71.71,11.12,71.95,10.99
			L71.95,10.99z"/>
	</g>
</g>
<g>
	<g>
		<path class="st30" d="M68.84,64.17c0.31,0,0.62,0.01,0.92,0.04c0.17,0.01,0.33,0.03,0.49,0.05c0.25,0.03-0.23-0.04,0.02,0
			c0.08,0.01,0.16,0.02,0.25,0.04c0.62,0.1,1.23,0.26,1.83,0.46c0.5,0.17,1.11-0.19,1.23-0.7c0.13-0.55-0.17-1.05-0.7-1.23
			c-1.3-0.43-2.67-0.65-4.04-0.66c-0.52,0-1.02,0.46-1,1C67.86,63.72,68.28,64.17,68.84,64.17L68.84,64.17z"/>
	</g>
</g>
<g>
	<g>
		<path class="st30" d="M69.86,45.39c1,0.01,1.7,0.08,2.59,0.27c0.91,0.19,1.79,0.46,2.65,0.8c0.49,0.2,1.12-0.21,1.23-0.7
			c0.13-0.58-0.18-1.02-0.7-1.23c-1.83-0.74-3.8-1.12-5.77-1.14c-0.52-0.01-1.02,0.46-1,1C68.88,44.94,69.29,45.39,69.86,45.39
			L69.86,45.39z"/>
	</g>
</g>
<g>
	<g>
		<path class="st30" d="M11.16,53.2c-0.29,0.1-0.58,0.2-0.87,0.29c-0.13,0.03-0.24,0.09-0.34,0.18c-0.11,0.07-0.19,0.16-0.26,0.28
			c-0.07,0.11-0.11,0.24-0.12,0.37c-0.03,0.13-0.02,0.27,0.02,0.4c0.03,0.08,0.07,0.16,0.1,0.24c0.09,0.15,0.21,0.27,0.36,0.36
			c0.08,0.03,0.16,0.07,0.24,0.1c0.18,0.05,0.35,0.05,0.53,0c0.29-0.1,0.58-0.2,0.87-0.29c0.13-0.03,0.24-0.09,0.34-0.18
			c0.11-0.07,0.19-0.16,0.26-0.28c0.07-0.11,0.11-0.24,0.12-0.37c0.03-0.13,0.02-0.27-0.02-0.4c-0.03-0.08-0.07-0.16-0.1-0.24
			c-0.09-0.15-0.21-0.27-0.36-0.36c-0.08-0.03-0.16-0.07-0.24-0.1C11.51,53.15,11.33,53.15,11.16,53.2L11.16,53.2z"/>
	</g>
</g>
<g>
	<g>
		<path class="st30" d="M10.7,32.35c1.29,0,1.29-2,0-2C9.41,30.35,9.41,32.35,10.7,32.35L10.7,32.35z"/>
	</g>
</g>
<g>
	<g>
		<path class="st31" d="M70.25,31.04c0.08-0.07,0.15-0.14,0.23-0.21c-0.18,0.15,0.02,0,0.05-0.03c0.09-0.06,0.18-0.11,0.27-0.16
			c0.05-0.03,0.25-0.15,0.05-0.03c0.15-0.09,0.36-0.13,0.53-0.17c0.09-0.02,0.18-0.03,0.27-0.06c0.08-0.01,0.05-0.01-0.07,0.01
			c0.05-0.01,0.11-0.01,0.16-0.02c0.44-0.04,0.88-0.01,1.32,0.04c0.32,0.04-0.19-0.03,0.12,0.02c0.13,0.02,0.26,0.04,0.38,0.06
			c0.22,0.04,0.45,0.08,0.67,0.13c0.51,0.1,1.1-0.15,1.23-0.7c0.11-0.5-0.15-1.12-0.7-1.23c-1.04-0.2-2.12-0.42-3.18-0.3
			c-1.03,0.12-2.02,0.48-2.76,1.23c-0.37,0.37-0.4,1.05,0,1.41C69.24,31.41,69.86,31.43,70.25,31.04L70.25,31.04z"/>
	</g>
</g>
<g>
	<g>
		<path class="st31" d="M65.49,88.17c1.29,0,1.29-2,0-2C64.21,86.17,64.21,88.17,65.49,88.17L65.49,88.17z"/>
	</g>
</g>
<g>
	<g>
		<path class="st32" d="M70,23.2c1.29,0,1.29-2,0-2C68.71,21.2,68.71,23.2,70,23.2L70,23.2z"/>
	</g>
</g>
<g>
	<g>
		<path class="st33" d="M68.55,17.24c1.29,0,1.29-2,0-2C67.26,15.24,67.26,17.24,68.55,17.24L68.55,17.24z"/>
	</g>
</g>
<g>
	<g>
		<path class="st33" d="M10.7,19.13c1.29,0,1.29-2,0-2C9.41,17.13,9.41,19.13,10.7,19.13L10.7,19.13z"/>
	</g>
</g>
<g>
	<g>
		<path class="st33" d="M11.72,71.16c1.29,0,1.29-2,0-2C10.43,69.16,10.43,71.16,11.72,71.16L11.72,71.16z"/>
	</g>
</g>
</svg>
