<?xml version="1.0" encoding="utf-8"?>
<!-- Generator: Adobe Illustrator 25.0.1, SVG Export Plug-In . SVG Version: 6.00 Build 0)  -->
<svg version="1.1" id="Layer_1" xmlns="http://www.w3.org/2000/svg" xmlns:xlink="http://www.w3.org/1999/xlink" x="0px" y="0px"
	 viewBox="0 0 38.82 39.85" style="enable-background:new 0 0 38.82 39.85;" xml:space="preserve">
<style type="text/css">
	.st0{fill:#A1BBFF;stroke:#FFC91B;stroke-miterlimit:10;}
	.st1{fill:#FFC91B;}
	.st2{fill:#0C8200;}
</style>
<polygon class="st0" points="37.4,2.83 18.45,36.99 1.28,2.83 "/>
<g>
	<g>
		<path class="st1" d="M23.52,9c0,0.05,0,0.11,0,0.16c-0.01,0.21,0.04,0.4,0.13,0.58c0.06,0.19,0.16,0.35,0.31,0.48
			c0.14,0.15,0.3,0.25,0.48,0.31c0.18,0.09,0.37,0.14,0.58,0.13c0.13-0.02,0.27-0.04,0.4-0.05c0.25-0.07,0.47-0.2,0.66-0.39
			c0.08-0.1,0.16-0.2,0.23-0.3c0.14-0.23,0.2-0.49,0.2-0.76c0-0.05,0-0.11,0-0.16c0.01-0.21-0.04-0.4-0.13-0.58
			c-0.06-0.19-0.16-0.35-0.31-0.48c-0.14-0.15-0.3-0.25-0.48-0.31c-0.18-0.09-0.37-0.14-0.58-0.13c-0.13,0.02-0.27,0.04-0.4,0.05
			c-0.25,0.07-0.47,0.2-0.66,0.39c-0.08,0.1-0.16,0.2-0.23,0.3C23.59,8.48,23.52,8.73,23.52,9L23.52,9z"/>
	</g>
</g>
<g>
	<g>
		<path class="st1" d="M17.1,28.43c0,0.11,0,0.21,0,0.32c-0.01,0.21,0.04,0.4,0.13,0.58c0.06,0.19,0.16,0.35,0.31,0.48
			c0.14,0.15,0.3,0.25,0.48,0.31c0.18,0.09,0.37,0.14,0.58,0.13c0.13-0.02,0.27-0.04,0.4-0.05c0.25-0.07,0.47-0.2,0.66-0.39
			c0.08-0.1,0.16-0.2,0.23-0.3c0.14-0.23,0.2-0.49,0.2-0.76c0-0.11,0-0.21,0-0.32c0.01-0.21-0.04-0.4-0.13-0.58
			c-0.06-0.19-0.16-0.35-0.31-0.48c-0.14-0.15-0.3-0.25-0.48-0.31c-0.18-0.09-0.37-0.14-0.58-0.13c-0.13,0.02-0.27,0.04-0.4,0.05
			c-0.25,0.07-0.47,0.2-0.66,0.39c-0.08,0.1-0.16,0.2-0.23,0.3C17.17,27.91,17.1,28.16,17.1,28.43L17.1,28.43z"/>
	</g>
</g>
<g>
	<g>
		<path class="st1" d="M10.25,9.76c0.03,0.05,0.05,0.11,0.08,0.16c0.09,0.17,0.22,0.32,0.39,0.42c0.14,0.13,0.31,0.22,0.51,0.27
			c0.2,0.06,0.4,0.07,0.6,0.03c0.2-0.01,0.39-0.07,0.56-0.18c0.1-0.08,0.2-0.16,0.3-0.23c0.19-0.19,0.31-0.41,0.39-0.66
			c0.02-0.13,0.04-0.27,0.05-0.4c0-0.27-0.07-0.52-0.2-0.76c-0.03-0.05-0.05-0.11-0.08-0.16c-0.09-0.17-0.22-0.32-0.39-0.42
			c-0.14-0.13-0.31-0.22-0.51-0.27c-0.2-0.06-0.4-0.07-0.6-0.03c-0.2,0.01-0.39,0.07-0.56,0.18c-0.1,0.08-0.2,0.16-0.3,0.23
			c-0.19,0.19-0.31,0.41-0.39,0.66c-0.02,0.13-0.04,0.27-0.05,0.4C10.04,9.28,10.11,9.53,10.25,9.76L10.25,9.76z"/>
	</g>
</g>
<g>
	<g>
		<path class="st2" d="M17.33,7.19c-0.31,5.17-0.37,10.36-0.18,15.54c0.07,1.92,3.07,1.93,3,0c-0.19-5.18-0.13-10.36,0.18-15.54
			C20.44,5.26,17.44,5.26,17.33,7.19L17.33,7.19z"/>
	</g>
</g>
<g>
	<g>
		<path class="st2" d="M25.65,14.14c-4.79-0.52-9.61-0.81-14.43-0.86c-1.93-0.02-1.93,2.98,0,3c4.82,0.06,9.63,0.35,14.43,0.86
			c0.81,0.09,1.5-0.75,1.5-1.5C27.15,14.75,26.46,14.22,25.65,14.14L25.65,14.14z"/>
	</g>
</g>
</svg>
