<?xml version="1.0" encoding="utf-8"?>
<!-- Generator: Adobe Illustrator 25.0.1, SVG Export Plug-In . SVG Version: 6.00 Build 0)  -->
<svg version="1.1" id="Layer_1" xmlns="http://www.w3.org/2000/svg" xmlns:xlink="http://www.w3.org/1999/xlink" x="0px" y="0px"
	 viewBox="0 0 70.78 77.76" style="enable-background:new 0 0 70.78 77.76;" xml:space="preserve">
<style type="text/css">
	.st0{fill:#A3BEC6;}
	.st1{fill:#BDD36C;}
	.st2{fill:#FF2274;}
	.st3{fill:#0CFFAF;}
	.st4{fill:#D6FFC7;}
	.st5{fill:#FFC94A;}
	.st6{fill:#EAFFAE;stroke:#000000;stroke-width:0.25;stroke-miterlimit:10;}
</style>
<g>
	<path class="st0" d="M6.81,76.19c-1.99,0-3.61-1.62-3.61-3.61V5.91c0-1.99,1.62-3.61,3.61-3.61h20.36c1.99,0,3.61,1.62,3.61,3.61
		v66.67c0,1.99-1.62,3.61-3.61,3.61H6.81z"/>
	<path class="st1" d="M27.17,2.85c1.69,0,3.06,1.37,3.06,3.06v66.67c0,1.69-1.37,3.06-3.06,3.06H6.81c-1.69,0-3.06-1.37-3.06-3.06
		V5.91c0-1.69,1.37-3.06,3.06-3.06H27.17 M27.17,1.74H6.81c-2.3,0-4.16,1.86-4.16,4.16v66.67c0,2.3,1.86,4.16,4.16,4.16h20.36
		c2.3,0,4.16-1.86,4.16-4.16V5.91C31.34,3.61,29.47,1.74,27.17,1.74L27.17,1.74z"/>
</g>
<g>
	<path class="st2" d="M36.78,76.29c-1.66,0-3-1.35-3-3.01V5.21c0-1.66,1.35-3,3-3H49.7c1.66,0,3.01,1.35,3.01,3v68.07
		c0,1.66-1.35,3.01-3.01,3.01H36.78z"/>
	<path class="st3" d="M49.7,2.66c1.4,0,2.55,1.14,2.55,2.55v68.07c0,1.4-1.14,2.55-2.55,2.55H36.78c-1.4,0-2.55-1.14-2.55-2.55V5.21
		c0-1.4,1.14-2.55,2.55-2.55H49.7 M49.7,1.74H36.78c-1.91,0-3.46,1.55-3.46,3.46v68.07c0,1.91,1.55,3.46,3.46,3.46H49.7
		c1.91,0,3.46-1.55,3.46-3.46V5.21C53.17,3.29,51.62,1.74,49.7,1.74L49.7,1.74z"/>
</g>
<g>
	<path class="st4" d="M58.91,76.54c-1.26,0-2.28-1.02-2.28-2.28V4.51c0-1.26,1.02-2.28,2.28-2.28h6.14c1.26,0,2.28,1.02,2.28,2.28
		v69.75c0,1.26-1.02,2.28-2.28,2.28H58.91z"/>
	<path class="st5" d="M65.05,2.58c1.06,0,1.93,0.87,1.93,1.93v69.75c0,1.06-0.87,1.93-1.93,1.93h-6.14c-1.06,0-1.93-0.87-1.93-1.93
		V4.51c0-1.06,0.87-1.93,1.93-1.93H65.05 M65.05,1.89h-6.14c-1.45,0-2.62,1.17-2.62,2.62v69.75c0,1.45,1.17,2.62,2.62,2.62h6.14
		c1.45,0,2.62-1.17,2.62-2.62V4.51C67.67,3.06,66.5,1.89,65.05,1.89L65.05,1.89z"/>
</g>
<g>
	<g>
		<path d="M10.65,71.28c0.64-0.51,2.06,0.15,2.67,0.37c1.29,0.47,2.57,0.8,3.94,0.52c1.22-0.25,2.3-0.92,3.52-1.19
			c1.22-0.27,2.46-0.14,3.64,0.22c1.85,0.57,2.64-2.32,0.8-2.89c-1.49-0.46-3.04-0.56-4.58-0.34c-0.7,0.1-1.38,0.29-2.04,0.55
			c-0.69,0.27-1.39,0.65-2.13,0.76c-1.28,0.18-2.55-0.71-3.77-0.96c-1.53-0.32-2.92-0.13-4.17,0.85c-0.64,0.5-0.53,1.6,0,2.12
			C9.16,71.91,10.02,71.78,10.65,71.28L10.65,71.28z"/>
	</g>
</g>
<g>
	<g>
		<path d="M10.09,65.47c0.66-0.56,1.7-0.54,2.51-0.43c1.22,0.16,2.39,0.62,3.61,0.81c1.34,0.21,2.65,0.15,3.95-0.28
			c1.18-0.39,2.29-0.98,3.44-1.43c0.75-0.29,1.28-1.01,1.05-1.85c-0.2-0.72-1.09-1.34-1.85-1.05c-1.19,0.46-2.33,1.09-3.56,1.47
			c-1.29,0.41-2.46,0.24-3.76-0.09c-2.59-0.66-5.31-1.17-7.52,0.72c-0.62,0.53-0.54,1.58,0,2.12C8.58,66.08,9.47,66,10.09,65.47
			L10.09,65.47z"/>
	</g>
</g>
<g>
	<g>
		<path d="M9.71,59.67c2.67-1.28,5.4-0.73,8.21-0.42c1.43,0.16,2.96,0.22,4.35-0.18c0.75-0.22,1.41-0.63,1.69-1.38
			c0.33-0.87,0.01-1.93-0.86-2.36c-0.72-0.36-1.62-0.19-2.05,0.54c-0.39,0.66-0.19,1.69,0.54,2.05c0.04,0.02,0.09,0.04,0.13,0.06
			c-0.18-0.18-0.36-0.36-0.54-0.54c-0.03-0.11-0.06-0.22-0.09-0.34c0.07-0.25,0.14-0.5,0.2-0.76c0.44-0.23,0.5-0.29,0.18-0.18
			c-0.16,0.04-0.31,0.08-0.47,0.11c-0.19,0.03-0.37,0.05-0.55,0.07c-0.56,0.04-1.12,0.02-1.68-0.02c-1.18-0.08-2.35-0.29-3.53-0.42
			c-2.46-0.26-4.81,0.1-7.05,1.17c-0.73,0.35-0.92,1.39-0.54,2.05C8.1,59.88,8.98,60.03,9.71,59.67L9.71,59.67z"/>
	</g>
</g>
<g>
	<g>
		<path d="M10.1,54.61c2.73-1.15,5.75-0.26,8.58-0.11c1.46,0.08,3-0.03,4.38-0.56c0.99-0.39,2.01-1.09,1.72-2.33
			c-0.27-1.18-1.49-1.63-2.53-1.12c-0.73,0.36-0.93,1.39-0.54,2.05c0.43,0.74,1.32,0.9,2.05,0.54c0.03-0.02,0.07-0.03,0.1-0.05
			c-0.39,0.05-0.77,0.1-1.16,0.15c0.04,0.01,0.08,0.03,0.12,0.04c-0.22-0.13-0.44-0.26-0.66-0.39c0.03,0.03,0.06,0.07,0.09,0.1
			c-0.13-0.22-0.26-0.44-0.39-0.66c0.01,0.04,0.01,0.09,0.02,0.13c0.05-0.39,0.1-0.77,0.15-1.16c0.18-0.15,0.23-0.21,0.13-0.17
			c-0.13,0.05-0.26,0.09-0.39,0.13c-0.26,0.08-0.53,0.15-0.8,0.2c-0.48,0.09-0.97,0.11-1.45,0.11c-1.14,0-2.28-0.14-3.41-0.26
			c-2.27-0.25-4.65-0.45-6.82,0.46c-0.75,0.31-1.28,0.99-1.05,1.85C8.45,54.27,9.35,54.93,10.1,54.61L10.1,54.61z"/>
	</g>
</g>
<g>
	<g>
		<path d="M38.81,10.55c0.04-0.02,0.08-0.04,0.13-0.06c-0.08,0.03-0.16,0.07-0.24,0.1c0.27-0.11,0.55-0.18,0.83-0.22
			c-0.09,0.01-0.18,0.02-0.27,0.04c0.26-0.03,0.53-0.04,0.8-0.01c-0.09-0.01-0.18-0.02-0.27-0.04c0.03,0,0.06,0.01,0.1,0.02
			c-0.08-0.03-0.16-0.07-0.24-0.1c0.01,0.01,0.03,0.01,0.04,0.02c-0.07-0.05-0.13-0.1-0.2-0.16c0.01,0.01,0.02,0.02,0.03,0.03
			c-0.05-0.07-0.1-0.13-0.16-0.2c0,0.01,0.01,0.01,0.01,0.02c-0.03-0.08-0.07-0.16-0.1-0.24c0,0.01,0,0.01,0,0.02
			c-0.01-0.09-0.02-0.18-0.04-0.27c0,0,0,0.01,0,0.01c0.01-0.09,0.02-0.18,0.04-0.27c0,0,0,0.01,0,0.01
			c0.09-0.15,0.17-0.29,0.26-0.44c0,0-0.01,0.01-0.01,0.01c0.07-0.05,0.13-0.1,0.2-0.16c0,0-0.01,0-0.01,0.01
			c0.08-0.03,0.16-0.07,0.24-0.1c-0.01,0-0.02,0.01-0.03,0.01c0.09-0.01,0.18-0.02,0.27-0.04c-0.01,0-0.02,0-0.03,0
			c0.09,0.01,0.18,0.02,0.27,0.04c-0.01,0-0.02,0-0.02-0.01c0.08,0.03,0.16,0.07,0.24,0.1c0,0-0.01,0-0.01-0.01
			c0.07,0.05,0.13,0.1,0.2,0.16c0,0,0,0-0.01-0.01c0.09,0.15,0.17,0.29,0.26,0.44c0,0,0-0.01,0-0.01c0,0.18,0,0.35,0,0.53
			c0,0,0-0.01,0-0.01c-0.03,0.08-0.07,0.16-0.1,0.24c0,0,0-0.01,0.01-0.01c0.13-0.22,0.17-0.53,0.1-0.77
			c-0.06-0.23-0.24-0.48-0.46-0.6c-0.23-0.12-0.51-0.18-0.77-0.1c-0.25,0.08-0.46,0.23-0.6,0.46c-0.17,0.28-0.18,0.62-0.06,0.92
			c0.12,0.29,0.36,0.51,0.67,0.59c0.19,0.05,0.4,0.05,0.59,0c0.25-0.07,0.51-0.25,0.63-0.48c0.14-0.26,0.17-0.53,0.1-0.82
			c-0.06-0.26-0.27-0.52-0.5-0.65c-0.25-0.14-0.51-0.18-0.8-0.2c-0.73-0.05-1.45,0.13-2.11,0.44c-0.21,0.1-0.4,0.38-0.46,0.6
			c-0.07,0.24-0.04,0.56,0.1,0.77c0.14,0.21,0.34,0.4,0.6,0.46c0.09,0.01,0.18,0.02,0.27,0.04C38.49,10.68,38.66,10.64,38.81,10.55
			L38.81,10.55z"/>
	</g>
</g>
<g>
	<g>
		<path d="M44.25,10.08c0.25-0.1,0.5-0.17,0.77-0.21c-0.09,0.01-0.18,0.02-0.27,0.04c0.28-0.04,0.56-0.03,0.84,0
			c-0.09-0.01-0.18-0.02-0.27-0.04c0.27,0.04,0.52,0.11,0.77,0.21c-0.08-0.03-0.16-0.07-0.24-0.1c0.12,0.05,0.24,0.11,0.36,0.18
			c0.45,0.27,1.12,0.12,1.37-0.36c0.25-0.48,0.12-1.08-0.36-1.37c-1.03-0.61-2.4-0.76-3.51-0.29c-0.25,0.11-0.45,0.21-0.6,0.46
			c-0.13,0.21-0.18,0.53-0.1,0.77c0.08,0.24,0.23,0.48,0.46,0.6C43.7,10.09,44.01,10.18,44.25,10.08L44.25,10.08z"/>
	</g>
</g>
<g>
	<g>
		<path d="M41.36,12.48c0.11-0.02,0.23-0.04,0.34-0.06c-0.09,0.01-0.18,0.02-0.27,0.04c0.42-0.05,0.85-0.05,1.27,0
			c-0.09-0.01-0.18-0.02-0.27-0.04c0.14,0.02,0.28,0.04,0.42,0.08c0.26,0.06,0.54,0.04,0.77-0.1c0.21-0.12,0.41-0.36,0.46-0.6
			c0.06-0.26,0.05-0.54-0.1-0.77c-0.14-0.21-0.34-0.4-0.6-0.46c-0.85-0.19-1.71-0.19-2.56-0.02c-0.24,0.05-0.48,0.26-0.6,0.46
			c-0.13,0.21-0.18,0.53-0.1,0.77c0.08,0.24,0.23,0.48,0.46,0.6C40.83,12.51,41.08,12.54,41.36,12.48L41.36,12.48z"/>
	</g>
</g>
<g>
	<g>
		<path d="M39.02,14.28c0.11-0.07,0.23-0.13,0.35-0.18c-0.08,0.03-0.16,0.07-0.24,0.1c0.23-0.09,0.47-0.16,0.72-0.19
			c-0.09,0.01-0.18,0.02-0.27,0.04c0.25-0.03,0.5-0.03,0.75,0c-0.09-0.01-0.18-0.02-0.27-0.04c0.25,0.03,0.49,0.1,0.72,0.19
			c-0.08-0.03-0.16-0.07-0.24-0.1c0.08,0.03,0.16,0.07,0.24,0.11c0.46,0.24,1.11,0.13,1.37-0.36c0.24-0.46,0.14-1.11-0.36-1.37
			c-1.18-0.62-2.63-0.62-3.79,0.07c-0.45,0.27-0.65,0.91-0.36,1.37C37.94,14.38,38.54,14.57,39.02,14.28L39.02,14.28z"/>
	</g>
</g>
<g>
	<g>
		<path d="M45.28,14.7c0.71-0.09,1.42-0.12,2.13-0.07c-0.09-0.01-0.18-0.02-0.27-0.04c0.03,0,0.05,0.01,0.08,0.02
			c-0.08-0.03-0.16-0.07-0.24-0.1c0.03,0.01,0.05,0.03,0.07,0.04c-0.07-0.05-0.13-0.1-0.2-0.16c0.02,0.02,0.04,0.03,0.06,0.06
			c-0.05-0.07-0.1-0.13-0.16-0.2c0.01,0.01,0.02,0.03,0.03,0.04c-0.03-0.08-0.07-0.16-0.1-0.24c0.01,0.01,0.01,0.02,0.01,0.04
			c-0.01-0.09-0.02-0.18-0.04-0.27c0,0.01,0,0.01,0,0.02c0.01-0.09,0.02-0.18,0.04-0.27c0,0.01,0,0.01-0.01,0.02
			c0.03-0.08,0.07-0.16,0.1-0.24c0,0-0.01,0.01-0.01,0.01c0.12-0.12,0.24-0.24,0.36-0.36c-0.01,0-0.01,0.01-0.02,0.01
			c0.08-0.03,0.16-0.07,0.24-0.1c-0.01,0-0.01,0.01-0.02,0.01c-0.25,0.1-0.45,0.22-0.6,0.46c-0.13,0.21-0.18,0.53-0.1,0.77
			c0.08,0.24,0.23,0.48,0.46,0.6c0.22,0.12,0.53,0.2,0.77,0.1c0.26-0.11,0.49-0.22,0.64-0.48c0.09-0.17,0.15-0.35,0.15-0.54
			c0-0.31-0.14-0.62-0.37-0.83c-0.21-0.2-0.46-0.32-0.75-0.35c-0.18-0.02-0.36-0.03-0.54-0.04c-0.58-0.02-1.15,0.01-1.72,0.09
			c-0.14-0.01-0.27,0.02-0.39,0.09c-0.12,0.04-0.23,0.11-0.32,0.21c-0.17,0.17-0.3,0.46-0.29,0.71c0.01,0.26,0.1,0.53,0.29,0.71
			C44.75,14.57,45.03,14.73,45.28,14.7L45.28,14.7z"/>
	</g>
</g>
<g>
	<g>
		<path d="M41.22,17.03c0.05-0.01,0.1-0.02,0.16-0.02c-0.09,0.01-0.18,0.02-0.27,0.04c0.61-0.08,1.22-0.08,1.83,0
			c-0.09-0.01-0.18-0.02-0.27-0.04c0.26,0.04,0.52,0.09,0.77,0.15c0.51,0.13,1.11-0.16,1.23-0.7c0.12-0.52-0.16-1.09-0.7-1.23
			c-1.09-0.28-2.18-0.3-3.28-0.13c-0.23,0.04-0.48,0.27-0.6,0.46c-0.13,0.21-0.18,0.53-0.1,0.77c0.08,0.24,0.23,0.48,0.46,0.6
			c0.08,0.03,0.16,0.07,0.24,0.1C40.86,17.08,41.04,17.08,41.22,17.03L41.22,17.03z"/>
	</g>
</g>
<g>
	<g>
		<path d="M38,17.51c0.02,0,0.04-0.01,0.06-0.01c-0.09,0.01-0.18,0.02-0.27,0.04c0.37-0.05,0.73-0.05,1.1,0
			c-0.09-0.01-0.18-0.02-0.27-0.04c0.15,0.02,0.3,0.05,0.45,0.08c0.26,0.06,0.54,0.03,0.77-0.1c0.21-0.12,0.41-0.36,0.46-0.6
			c0.06-0.26,0.05-0.54-0.1-0.77c-0.14-0.22-0.34-0.4-0.6-0.46c-0.35-0.08-0.71-0.13-1.07-0.15c-0.36-0.02-0.72,0.02-1.07,0.07
			c-0.13,0.03-0.24,0.09-0.34,0.18c-0.11,0.07-0.19,0.16-0.26,0.28c-0.13,0.21-0.18,0.53-0.1,0.77c0.08,0.24,0.23,0.48,0.46,0.6
			c0.08,0.03,0.16,0.07,0.24,0.1C37.65,17.56,37.82,17.56,38,17.51L38,17.51z"/>
	</g>
</g>
<g>
	<g>
		<path d="M46.01,19.67c0.09-0.07,0.19-0.12,0.3-0.16c-0.08,0.03-0.16,0.07-0.24,0.1c0.14-0.05,0.27-0.09,0.42-0.11
			c-0.09,0.01-0.18,0.02-0.27,0.04c0.16-0.02,0.31-0.02,0.47,0c-0.09-0.01-0.18-0.02-0.27-0.04c0.17,0.02,0.33,0.06,0.48,0.13
			c-0.08-0.03-0.16-0.07-0.24-0.1c0.13,0.06,0.26,0.13,0.38,0.22c-0.07-0.05-0.13-0.1-0.2-0.16c0.11,0.08,0.2,0.18,0.29,0.28
			c-0.05-0.07-0.1-0.13-0.16-0.2c0.01,0.02,0.03,0.03,0.04,0.05c0.16,0.22,0.33,0.39,0.6,0.46c0.24,0.07,0.56,0.04,0.77-0.1
			c0.21-0.14,0.4-0.34,0.46-0.6c0.06-0.25,0.05-0.56-0.1-0.77c-0.24-0.32-0.49-0.59-0.84-0.8c-0.26-0.16-0.56-0.28-0.87-0.33
			c-0.41-0.07-0.76-0.07-1.17,0c-0.3,0.06-0.61,0.19-0.87,0.36c-0.22,0.15-0.39,0.34-0.46,0.6c-0.07,0.24-0.04,0.56,0.1,0.77
			c0.14,0.21,0.34,0.4,0.6,0.46C45.49,19.83,45.79,19.82,46.01,19.67L46.01,19.67z"/>
	</g>
</g>
<g>
	<g>
		<path d="M39.77,20.74c0.51-0.06,1.03-0.05,1.54,0.01c-0.09-0.01-0.18-0.02-0.27-0.04c0.17,0.02,0.33,0.05,0.5,0.09
			c0.26,0.06,0.53,0.04,0.77-0.1c0.21-0.12,0.41-0.36,0.46-0.6c0.06-0.26,0.05-0.54-0.1-0.77c-0.14-0.21-0.34-0.4-0.6-0.46
			c-0.76-0.16-1.54-0.23-2.31-0.14c-0.14-0.01-0.27,0.02-0.39,0.09c-0.12,0.04-0.23,0.11-0.32,0.21c-0.17,0.17-0.3,0.46-0.29,0.71
			c0.01,0.26,0.1,0.53,0.29,0.71C39.24,20.61,39.51,20.77,39.77,20.74L39.77,20.74z"/>
	</g>
</g>
<g>
	<g>
		<path d="M38.16,23.36c0.14-0.04,0.29-0.07,0.44-0.09c-0.09,0.01-0.18,0.02-0.27,0.04c0.33-0.04,0.65-0.04,0.98,0
			c-0.09-0.01-0.18-0.02-0.27-0.04c0.31,0.04,0.61,0.13,0.9,0.25c-0.08-0.03-0.16-0.07-0.24-0.1c0.11,0.05,0.22,0.1,0.32,0.15
			c0.23,0.13,0.51,0.17,0.77,0.1c0.23-0.06,0.48-0.24,0.6-0.46c0.25-0.46,0.13-1.1-0.36-1.37c-1.04-0.56-2.27-0.72-3.42-0.41
			c-0.51,0.13-0.86,0.72-0.7,1.23C37.09,23.18,37.61,23.5,38.16,23.36L38.16,23.36z"/>
	</g>
</g>
<g>
	<g>
		<path d="M44.36,23.67c0.11-0.08,0.22-0.14,0.35-0.19c-0.08,0.03-0.16,0.07-0.24,0.1c0.17-0.07,0.34-0.12,0.52-0.14
			c-0.09,0.01-0.18,0.02-0.27,0.04c0.19-0.02,0.38-0.02,0.58,0c-0.09-0.01-0.18-0.02-0.27-0.04c0.19,0.03,0.38,0.08,0.56,0.15
			c-0.08-0.03-0.16-0.07-0.24-0.1c0.15,0.07,0.3,0.15,0.43,0.26c-0.07-0.05-0.13-0.1-0.2-0.16c0.07,0.05,0.13,0.11,0.19,0.17
			c0.37,0.37,1.05,0.4,1.41,0c0.37-0.4,0.39-1.01,0-1.41c-0.53-0.54-1.22-0.8-1.95-0.88c-0.63-0.07-1.35,0.11-1.88,0.48
			c-0.22,0.15-0.39,0.34-0.46,0.6c-0.07,0.24-0.04,0.56,0.1,0.77c0.14,0.21,0.34,0.4,0.6,0.46C43.84,23.83,44.14,23.82,44.36,23.67
			L44.36,23.67z"/>
	</g>
</g>
<g>
	<g>
		<path d="M42.54,26.46c0.21-0.02,0.42-0.02,0.63,0.01c-0.09-0.01-0.18-0.02-0.27-0.04c0.24,0.03,0.48,0.1,0.71,0.19
			c-0.08-0.03-0.16-0.07-0.24-0.1c0.22,0.09,0.42,0.21,0.6,0.35c-0.07-0.05-0.13-0.1-0.2-0.16c0.04,0.03,0.07,0.06,0.1,0.08
			c0.21,0.17,0.43,0.29,0.71,0.29c0.25,0,0.54-0.11,0.71-0.29c0.17-0.19,0.3-0.44,0.29-0.71c-0.01-0.25-0.09-0.54-0.29-0.71
			c-0.42-0.35-0.86-0.61-1.38-0.78c-0.43-0.14-0.91-0.2-1.37-0.15c-0.27,0.03-0.51,0.09-0.71,0.29c-0.17,0.17-0.3,0.46-0.29,0.71
			c0.01,0.26,0.1,0.53,0.29,0.71C42.01,26.34,42.28,26.49,42.54,26.46L42.54,26.46z"/>
	</g>
</g>
<g>
	<g>
		<path d="M59.92,7.1c-0.4,1.09-0.8,2.23-0.78,3.41c0.01,1.11,0.42,2.16,0.62,3.24c0.11,0.6,0.11,1.21-0.14,1.77
			c-0.2,0.45-0.49,0.84-0.61,1.32c-0.13,0.52-0.06,1.07-0.03,1.6c0.04,0.62,0.07,1.24,0.11,1.86c0.04,0.64,1.04,0.64,1,0
			c-0.04-0.62-0.07-1.24-0.11-1.86c-0.04-0.61-0.11-1.18,0.15-1.75c0.42-0.92,0.78-1.62,0.67-2.68c-0.11-1.05-0.52-2.03-0.63-3.08
			c-0.13-1.24,0.31-2.43,0.73-3.57C61.11,6.76,60.14,6.5,59.92,7.1L59.92,7.1z"/>
	</g>
</g>
<g>
	<g>
		<path d="M61.63,20.15c1.03,0.06,1.26-1.51,1.37-2.27c0.16-1.06,0.09-2.13-0.03-3.2c-0.26-2.17-0.8-4.43-0.11-6.57
			c0.2-0.61-0.77-0.88-0.96-0.27c-0.59,1.83-0.35,3.73-0.09,5.59c0.13,0.96,0.27,1.92,0.29,2.89c0.01,0.49-0.01,0.98-0.08,1.47
			c-0.02,0.13-0.26,1.36-0.38,1.36C60.99,19.12,60.99,20.12,61.63,20.15L61.63,20.15z"/>
	</g>
</g>
<g>
	<g>
		<path d="M64.12,6.26c-0.13,3.01-0.18,6.03-0.18,9.05c0,0.68,0.01,1.36,0.01,2.04c0.01,0.53,0.13,1.23-0.05,1.71
			c-0.2,0.54-0.09,1.04-0.22,1.6c-0.16,0.72-0.56,1.36-0.94,1.98c-0.33,0.55,0.53,1.05,0.86,0.5c0.35-0.58,0.7-1.18,0.92-1.82
			c0.12-0.34,0.19-0.69,0.21-1.04c0.02-0.26-0.04-0.52,0.04-0.76c0.18-0.53,0.17-0.99,0.17-1.57c-0.01-0.74-0.02-1.47-0.02-2.21
			c-0.01-3.16,0.04-6.33,0.18-9.49C65.15,5.62,64.15,5.62,64.12,6.26L64.12,6.26z"/>
	</g>
</g>
<ellipse class="st6" cx="17.53" cy="15.58" rx="7.7" ry="6.76"/>
<ellipse class="st6" cx="43.33" cy="65.44" rx="4.72" ry="6.76"/>
<ellipse transform="matrix(0.8944 -0.4472 0.4472 0.8944 -12.2384 32.2329)" class="st6" cx="62.15" cy="42.04" rx="1.96" ry="2.62"/>
</svg>
