<?xml version="1.0" encoding="utf-8"?>
<!-- Generator: Adobe Illustrator 25.0.1, SVG Export Plug-In . SVG Version: 6.00 Build 0)  -->
<svg version="1.1" id="Layer_1" xmlns="http://www.w3.org/2000/svg" xmlns:xlink="http://www.w3.org/1999/xlink" x="0px" y="0px"
	 viewBox="0 0 213.7 238.49" style="enable-background:new 0 0 213.7 238.49;" xml:space="preserve">
<style type="text/css">
	.st0{fill:#ADFFA4;}
	.st1{fill:#FFB7C4;}
	.st2{fill:#FFBC88;}
	.st3{fill:#E7FFAE;}
</style>
<g>
	<path class="st0" d="M199.6,219.71c0,3.41-3.59,6.19-8,6.19H23.08c-4.41,0-8-2.78-8-6.19V21.16c0-3.41,3.59-6.19,8-6.19H191.6
		c4.41,0,8,2.78,8,6.19V219.71z"/>
	<path class="st1" d="M19.08,21.16c0-1.68,1.83-3.1,4-3.1H191.6c2.17,0,4,1.42,4,3.1v198.55c0,1.68-1.83,3.1-4,3.1H23.08
		c-2.17,0-4-1.42-4-3.1V21.16 M11.08,21.16v198.55c0,5.11,5.4,9.29,12,9.29H191.6c6.6,0,12-4.18,12-9.29V21.16
		c0-5.11-5.4-9.29-12-9.29H23.08C16.48,11.87,11.08,16.05,11.08,21.16L11.08,21.16z"/>
</g>
<g>
	<path class="st2" d="M175.46,198.35c0,3.41-3.59,6.19-8,6.19H48.37c-4.41,0-8-2.78-8-6.19V42.96c0-3.41,3.59-6.19,8-6.19h119.1
		c4.41,0,8,2.78,8,6.19L175.46,198.35L175.46,198.35z"/>
	<path class="st3" d="M44.37,42.96c0-1.68,1.83-3.1,4-3.1h119.1c2.17,0,4,1.42,4,3.1v155.39c0,1.68-1.83,3.1-4,3.1H48.37
		c-2.17,0-4-1.42-4-3.1V42.96 M36.37,42.96v155.39c0,5.11,5.4,9.29,12,9.29h119.1c6.6,0,12-4.18,12-9.29V42.96
		c0-5.11-5.4-9.29-12-9.29H48.37C41.77,33.67,36.37,37.85,36.37,42.96L36.37,42.96z"/>
</g>
<g>
	<g>
		<path d="M73.87,183.59c-2.15-2.19-4.02-4.87-4.47-7.64c-0.17-1.08-0.13-2.35,0.85-3.21c1.11-0.97,2.92-1.18,3.97-2.26
			c2.46-2.54-0.3-5.19-0.95-7.75c-0.36-1.43,0.81-2.56,1.47-3.82c0.63-1.2,0.69-2.43,0.4-3.69c-0.59-2.52-3.2-5.14-2.17-7.75
			c0.56-1.43-2.33-2.04-2.89-0.62c-1,2.55,0.53,4.91,1.57,7.27c0.51,1.15,0.96,2.39,0.48,3.6c-0.55,1.39-1.77,2.51-1.92,4.02
			c-0.16,1.55,0.74,2.92,1.43,4.32c0.6,1.24,1.09,2.73-0.6,3.55c-1.48,0.72-2.96,1.22-3.83,2.47c-0.76,1.09-0.97,2.39-0.84,3.62
			c0.34,3.27,2.37,6.5,4.91,9.08C72.43,185.94,75.04,184.79,73.87,183.59L73.87,183.59z"/>
	</g>
</g>
<g>
	<g>
		<path d="M96.71,177.98c-4.18,0.26-5.28-3.6-5.72-6.05c-0.24-1.34-0.68-3.02,0.31-4.23c0.93-1.14,2.64-1.79,3.74-2.82
			c2.03-1.89,2.98-4.4,2.61-6.84c-0.34-2.24-2.05-5.51-5.53-5.52c-0.12,0-1.03,0.13-0.99,0.15c-0.22-0.12-0.23-0.87-0.26-1.07
			c-0.1-0.77-0.09-1.57,0.03-2.35c0.27-1.63,1.06-3.14,2.24-4.51c1.08-1.25-1.52-2.41-2.59-1.17c-2.26,2.62-3.19,5.85-2.53,8.95
			c0.34,1.58,1.46,2.51,3.59,2.35c1.82-0.13,2.62,1.63,2.95,2.79c0.37,1.3,0.19,2.72-0.44,3.95c-0.71,1.39-1.99,2.27-3.42,3.21
			c-1.58,1.05-2.66,2.25-2.9,3.87c-0.24,1.58,0.16,3.25,0.51,4.82c0.73,3.27,3.42,7.08,8.42,6.77
			C98.62,180.19,98.64,177.86,96.71,177.98L96.71,177.98z"/>
	</g>
</g>
<g>
	<g>
		<path d="M117.25,177.39c-4.1-0.62-6.49-3.63-6.14-6.76c0.37-3.33,3.68-5.41,5.57-8.21c0.9-1.33,1.39-2.79,1.03-4.28
			c-0.39-1.6-1.73-2.88-2.78-4.25c-2.38-3.1-3.27-6.71-2.76-10.29c0.21-1.49-2.79-1.47-3,0c-0.42,2.91,0.05,5.91,1.42,8.64
			c0.67,1.34,1.52,2.58,2.53,3.78c0.94,1.13,1.97,2.32,1.66,3.73c-0.54,2.46-3.46,4.34-4.96,6.46c-1.73,2.44-2.33,5.5-1.07,8.15
			c1.25,2.62,4.13,4.72,7.71,5.26C118.34,179.92,119.14,177.68,117.25,177.39L117.25,177.39z"/>
	</g>
</g>
<g>
	<g>
		<path d="M72.83,127.79c-4.93-3.88-4.75-10.2,0.51-13.86c1.2-0.84,2.63-1.42,3.57-2.46c0.88-0.98,1.23-2.21,1.14-3.39
			c-0.1-1.28-0.59-2.49-1.22-3.67c-0.66-1.22-1.62-2.35-2.18-3.59c-0.72-1.58-0.59-3.38-0.7-5.03c-0.12-1.87-0.24-3.74-0.36-5.61
			c-0.1-1.49-3.1-1.49-3,0c0.21,3.24,0.12,6.6,0.73,9.8c0.53,2.8,3.27,4.99,3.71,7.82c0.19,1.25-0.25,2.29-1.51,3.1
			c-1.37,0.88-2.76,1.61-3.89,2.7c-2.2,2.13-3.48,4.8-3.43,7.54c0.05,3.1,1.72,6.08,4.52,8.28
			C72.07,130.5,74.19,128.85,72.83,127.79L72.83,127.79z"/>
	</g>
</g>
<g>
	<g>
		<path d="M91.42,123.47c1.52-3.37-2.44-6.4-1.9-9.79c0.21-1.32,1.22-2.71,2.98-3.06c1.73-0.34,3.57-0.01,5.09-0.91
			c1.62-0.96,1.63-2.51,1.27-3.93c-0.43-1.7-1.04-3.39-1.73-5.04c-1.41-3.37-3.28-6.62-5.56-9.69c-0.96-1.29-3.55-0.13-2.59,1.17
			c2.19,2.95,3.98,6.05,5.32,9.3c0.64,1.55,1.21,3.14,1.62,4.73c0.13,0.52,0.42,1.32-0.27,1.66c-0.62,0.32-1.67,0.23-2.37,0.28
			c-3.67,0.25-6.26,2.29-6.73,5.13c-0.27,1.62,0.16,3.24,0.82,4.77c0.66,1.51,1.86,3.14,1.13,4.75
			C87.89,124.27,90.79,124.87,91.42,123.47L91.42,123.47z"/>
	</g>
</g>
<g>
	<g>
		<path d="M75.29,73.36c-1.07-2.52-4.13-5.14-3.35-7.94c0.41-1.47,1.66-1.56,3.15-2.22c1.62-0.73,2.17-2.08,1.7-3.45
			c-0.45-1.29-1.61-2.35-2.16-3.6c-0.5-1.15-0.56-2.36-0.65-3.55c-0.18-2.38-0.42-4.94-2.92-6.59c-1.46-0.97-3.59,0.67-2.12,1.64
			c2.26,1.49,1.93,4.06,2.14,6.14c0.13,1.22,0.34,2.44,0.95,3.58c0.34,0.63,0.79,1.22,1.2,1.82c0.29,0.42,0.9,1.11,0.74,1.61
			c-0.17,0.54-1.19,0.66-1.79,0.87c-0.71,0.26-1.33,0.62-1.84,1.08c-0.99,0.91-1.42,2.07-1.5,3.24c-0.2,2.98,2.41,5.29,3.55,7.98
			C73,75.39,75.9,74.79,75.29,73.36L75.29,73.36z"/>
	</g>
</g>
<g>
	<g>
		<path d="M94.9,83.5c-0.22-1.49-0.59-2.94-1.27-4.35c-0.3-0.63-0.65-1.26-1.04-1.87c-0.36-0.56-0.87-1.1-1.12-1.7
			c-0.42-0.99,0.52-1.69,1.39-2.31c1-0.72,2.12-1.34,2.98-2.17c2.14-2.04,2.26-4.74,1.86-7.23c-0.47-2.9-1.56-5.68-3.15-8.33
			c-0.81-1.35-3.4-0.18-2.59,1.17c1.52,2.53,2.58,5.32,2.87,8.11c0.13,1.2,0.13,2.45-0.41,3.59c-0.49,1.05-1.51,1.75-2.57,2.45
			c-1.94,1.3-4.06,2.84-3.38,5.04c0.36,1.19,1.4,2.22,2.01,3.34c0.73,1.35,1.21,2.79,1.42,4.24C92.11,84.96,95.12,84.98,94.9,83.5
			L94.9,83.5z"/>
	</g>
</g>
<g>
	<g>
		<path d="M110.16,132.01c-1.21-3.29-1.28-6.76-0.12-10.06c1.1-3.14,3.85-5.85,4.5-9.08c0.3-1.49,0.04-2.97-0.96-4.29
			c-0.85-1.12-2.36-2.05-2.89-3.31c-0.28-0.67,0.04-1.27,0.37-1.89c0.43-0.81,0.8-1.57,0.96-2.44c0.3-1.65-0.06-3.21-0.92-4.72
			c-0.77-1.36-3.36-0.19-2.59,1.17c0.89,1.57,0.77,3.26-0.04,4.82c-0.75,1.44-1.25,2.69-0.41,4.2c0.66,1.17,1.86,2.05,2.74,3.11
			c1.12,1.34,0.99,2.76,0.38,4.23c-0.64,1.55-1.71,2.97-2.56,4.45c-0.83,1.43-1.48,2.91-1.87,4.45c-0.85,3.31-0.68,6.73,0.52,9.98
			C107.79,134.06,110.69,133.45,110.16,132.01L110.16,132.01z"/>
	</g>
</g>
<g>
	<g>
		<path d="M116.2,81.56c-3.37-1.04-2.78-4.61-1.56-6.6c1.63-2.66,4.29-4.85,5.61-7.63c1.4-2.95,0.71-6.12-0.07-9.12
			c-0.88-3.38-1.79-6.74-2.68-10.12c-0.39-1.46-3.28-0.84-2.89,0.62c0.95,3.61,1.96,7.21,2.86,10.82c0.41,1.64,0.73,3.31,0.55,4.98
			c-0.19,1.68-1.12,3.17-2.25,4.59c-2.11,2.66-4.81,5.2-5.12,8.44c-0.26,2.66,1.51,5.26,4.75,6.26
			C117.2,84.36,117.98,82.1,116.2,81.56L116.2,81.56z"/>
	</g>
</g>
<g>
	<g>
		<path d="M136.35,180.93c2.36-1.62,3.46-4.13,3.21-6.54c-0.29-2.83-2.08-5.18-4.06-7.49c-0.93-1.08-1.91-2.26-1.65-3.61
			c0.28-1.46,1.34-2.88,1.95-4.27c1.24-2.82,2.05-5.74,2.84-8.66c0.44-1.64,0.89-3.28,1.32-4.92c0.35-1.31,0.63-2.76-0.49-3.91
			c-1.15-1.18-3.76-0.02-2.59,1.17c0.58,0.6,0.41,1.25,0.23,1.94c-0.21,0.82-0.44,1.64-0.66,2.46c-0.47,1.76-0.93,3.51-1.43,5.26
			s-1.06,3.48-1.75,5.19c-0.66,1.6-1.71,3.14-2.22,4.78c-1.08,3.42,2.25,5.73,4.1,8.52c1.78,2.7,2.29,6.25-0.92,8.44
			C132.77,180.28,134.9,181.91,136.35,180.93L136.35,180.93z"/>
	</g>
</g>
<g>
	<g>
		<path d="M132.31,129.74c0,0.14-0.66-0.46-0.75-0.67c-0.28-0.7-0.19-1.53-0.04-2.24c0.32-1.53,1.25-3,2.61-4.13
			c1.38-1.15,3.33-1.63,4.72-2.73c1.61-1.28,1.42-2.98,0.8-4.57c-1.36-3.5-3.98-6.67-4.18-10.39c-0.2-3.61,0.87-7.29-0.8-10.78
			c-0.67-1.39-3.57-0.79-2.89,0.62c1.52,3.17,0.57,6.53,0.68,9.82c0.11,3.46,1.92,6.41,3.5,9.58c0.58,1.15,2.02,3.26,0.51,4.27
			c-0.64,0.43-1.46,0.68-2.15,1.04c-0.79,0.4-1.53,0.87-2.18,1.4c-2.54,2.04-4.1,5.03-3.67,7.88c0.22,1.45,1.23,3,3.29,3.2
			c1.79,0.16,3.6-0.81,3.55-2.28C135.26,128.25,132.26,128.25,132.31,129.74L132.31,129.74z"/>
	</g>
</g>
<g>
	<g>
		<path d="M140.02,79.05c-0.96-2.31-1.99-4.68-2.17-7.14c-0.18-2.36,0.65-4.57,1.55-6.81c0.9-2.22,1.61-4.44,1.87-6.76
			c0.27-2.42,0.15-4.85,0.03-7.29c-0.07-1.49-3.07-1.49-3,0c0.12,2.42,0.24,4.86-0.03,7.29c-0.28,2.48-1.24,4.79-2.17,7.15
			c-0.89,2.27-1.48,4.57-1.2,6.94c0.3,2.48,1.24,4.85,2.22,7.22C137.73,81.08,140.62,80.47,140.02,79.05L140.02,79.05z"/>
	</g>
</g>
<g>
	<g>
		<path d="M156.95,173.03c-4.2-4.37-7.34-10.07-2.77-15.02c0.96-1.04,1.96-2.04,2.49-3.26c0.59-1.38,0.32-2.83-0.03-4.23
			c-0.8-3.18-1.68-6.35-2.52-9.52c-0.39-1.46-3.28-0.84-2.89,0.62c0.84,3.17,1.72,6.34,2.52,9.52c0.39,1.56,0.35,2.83-0.78,4.19
			c-0.94,1.13-2.1,2.13-2.82,3.37c-3.15,5.37,0,11.11,4.21,15.5C155.49,175.38,158.1,174.23,156.95,173.03L156.95,173.03z"/>
	</g>
</g>
<g>
	<g>
		<path d="M151.7,126.79c-2.65-2.4-3.77-5.83-2.74-8.91c0.29-0.86,0.72-1.33,1.73-1.75c0.86-0.36,1.76-0.63,2.51-1.12
			c1.5-1,2.02-2.55,1.86-4.03c-0.19-1.78-1.41-3.35-1.7-5.11c-0.31-1.9,0.55-3.78,1.09-5.6c0.86-2.86,1.07-6.23-1.9-8.43
			c-1.4-1.03-3.52,0.61-2.12,1.64c3.14,2.31,0.99,6.21,0.28,8.94c-0.48,1.84-0.53,3.62,0.18,5.43c0.56,1.44,1.77,3.2,0.98,4.72
			c-0.69,1.32-3.22,1.52-4.43,2.54c-1.39,1.16-1.72,3-1.83,4.52c-0.22,3.22,1.28,6.36,3.96,8.8
			C150.84,129.57,152.95,127.92,151.7,126.79L151.7,126.79z"/>
	</g>
</g>
<g>
	<g>
		<path d="M154.41,71.57c0.88,0.17,1.19,0.13,0.92-0.1c-0.06-0.07-0.11-0.14-0.16-0.21c-0.08-0.32-0.12-0.62-0.16-0.94
			c-0.07-0.77-0.12-1.54-0.09-2.31c0.06-1.49,0.48-2.89,1.72-4.06c0.6-0.57,1.22-1.08,1.58-1.77c0.42-0.81,0.34-1.62,0.11-2.45
			c-0.49-1.85-1.2-3.69-1.83-5.5c-0.49-1.45-3.39-0.83-2.89,0.62c0.39,1.15,0.78,2.3,1.16,3.45c0.3,0.91,1.17,2.35,0.55,3.23
			c-0.51,0.74-1.41,1.29-1.96,2.03c-0.6,0.81-0.99,1.7-1.19,2.62c-0.37,1.7-0.52,3.83,0.03,5.53c0.44,1.35,2.73,3.03,4.33,1.54
			C157.76,72.08,155.65,70.42,154.41,71.57L154.41,71.57z"/>
	</g>
</g>
<g>
	<g>
		<path d="M63.21,131.71c2.16,3.62,4.98,6.98,8.33,10.02c0.34,0.3,0.98,0.4,1.46,0.3c0.91-0.2,1.48-0.84,1.43-1.57
			c-0.05-0.87-0.85-1.38-1.91-1.48c-0.81-0.08-1.5,0.59-1.5,1.16c0,0.69,0.69,1.08,1.5,1.16c0.04,0,0.07,0.01,0.11,0.01
			c-0.25-0.05-0.5-0.11-0.76-0.15c-0.78-0.27-0.31-1.22,0.33-1.36c0.49,0.1,0.97,0.2,1.46,0.3c-3.18-2.88-5.81-6.11-7.86-9.55
			c-0.34-0.57-1.4-0.71-2.05-0.42C62.99,130.47,62.87,131.14,63.21,131.71L63.21,131.71z"/>
	</g>
</g>
<g>
	<g>
		<path d="M65.19,74.87c1.58,0.89,2.96,1.72,4.48,2.69c1.51,0.97,2.98,1.97,4.41,3.01c0.57,0.42,1.56,0.47,2.12,0
			c0.54-0.45,0.61-1.2,0-1.64c-2.99-2.18-6.17-4.2-9.49-6.07c-0.64-0.36-1.7-0.1-2.05,0.42C64.24,73.89,64.51,74.5,65.19,74.87
			L65.19,74.87z"/>
	</g>
</g>
<g>
	<g>
		<path d="M98.72,132.26c2.5,2.5,5.7,4.59,9.29,6.1c0.69,0.29,1.67,0.15,2.05-0.42c0.37-0.54,0.2-1.28-0.54-1.59
			c-0.86-0.36-1.7-0.76-2.5-1.18c-0.39-0.21-0.78-0.43-1.16-0.65c0.17,0.1-0.08-0.05-0.11-0.07c-0.1-0.06-0.2-0.12-0.29-0.18
			c-0.19-0.12-0.39-0.25-0.58-0.37c-1.49-0.98-2.84-2.09-4.03-3.29c-0.48-0.48-1.62-0.43-2.12,0
			C98.12,131.13,98.21,131.75,98.72,132.26L98.72,132.26z"/>
	</g>
</g>
<g>
	<g>
		<path d="M106.84,84.57c1.75,2.64,4.22,5.01,7.2,6.88c0.61,0.38,1.53,0.5,2.12,0c0.5-0.43,0.65-1.23,0-1.64
			c-1.42-0.9-2.73-1.9-3.89-3c-0.06-0.05-0.12-0.12-0.18-0.18c0.01,0.01-0.24-0.23-0.15-0.15s-0.15-0.15-0.15-0.15
			c-0.06-0.06-0.11-0.12-0.17-0.18c-0.27-0.29-0.53-0.58-0.78-0.87c-0.51-0.61-0.98-1.24-1.41-1.89c-0.36-0.54-1.4-0.74-2.05-0.42
			C106.67,83.33,106.46,83.99,106.84,84.57L106.84,84.57z"/>
	</g>
</g>
<g>
	<g>
		<path d="M143.77,135.05c2.63,1.11,5.27,2.21,7.9,3.32c0.69,0.29,1.67,0.15,2.05-0.42c0.37-0.54,0.2-1.28-0.54-1.59
			c-2.63-1.11-5.27-2.21-7.9-3.32c-0.69-0.29-1.67-0.15-2.05,0.42C142.87,134,143.04,134.74,143.77,135.05L143.77,135.05z"/>
	</g>
</g>
<g>
	<g>
		<path d="M145.99,81.78c0.68,0.29,1.35,0.6,2,0.93c0.32,0.16,0.63,0.33,0.93,0.5c0.15,0.09,0.3,0.17,0.46,0.26
			c0.32,0.19-0.14-0.09,0.05,0.03c0.08,0.05,0.17,0.1,0.25,0.15c1.21,0.76,2.34,1.59,3.37,2.5c0.52,0.46,1.6,0.44,2.12,0
			c0.58-0.49,0.55-1.15,0-1.64c-2.16-1.91-4.78-3.52-7.66-4.74c-0.69-0.29-1.67-0.15-2.05,0.42
			C145.09,80.74,145.26,81.47,145.99,81.78L145.99,81.78z"/>
	</g>
</g>
<g>
	<g>
		<path d="M94.27,191.72c-1.31-2.71-2.96-5.32-4.95-7.77c-0.43-0.53-1.34-0.74-2.05-0.42c-0.68,0.31-0.97,1.05-0.54,1.59
			c1.87,2.29,3.45,4.75,4.65,7.22c0.27,0.57,1.03,1.01,1.85,0.81C93.94,192.97,94.57,192.33,94.27,191.72L94.27,191.72z"/>
	</g>
</g>
<g>
	<g>
		<path d="M136.65,190.54c-0.69-0.97-1.34-1.97-1.93-2.97c-0.07-0.12-0.14-0.25-0.21-0.36c-0.02-0.04-0.21-0.38-0.11-0.2
			c-0.13-0.25-0.26-0.5-0.39-0.74c-0.27-0.53-0.53-1.08-0.77-1.62c-0.26-0.57-1.04-1.01-1.85-0.81c-0.73,0.19-1.32,0.81-1.05,1.43
			c1,2.23,2.24,4.39,3.71,6.46c0.38,0.53,1.38,0.75,2.05,0.42C136.79,191.78,137.04,191.1,136.65,190.54L136.65,190.54z"/>
	</g>
</g>
</svg>
