<?xml version="1.0" encoding="utf-8"?>
<!-- Generator: Adobe Illustrator 25.0.1, SVG Export Plug-In . SVG Version: 6.00 Build 0)  -->
<svg version="1.1" id="Layer_1" xmlns="http://www.w3.org/2000/svg" xmlns:xlink="http://www.w3.org/1999/xlink" x="0px" y="0px"
	 viewBox="0 0 297.7 281.03" style="enable-background:new 0 0 297.7 281.03;" xml:space="preserve">
<style type="text/css">
	.st0{fill:#CFFF3E;}
	.st1{fill:#FFB7C4;}
	.st2{fill:#76EAFF;}
	.st3{fill:#82CDFF;}
</style>
<g>
	<path class="st0" d="M22.69,255.31c-4.99,0-9.05-4.06-9.05-9.05V26.87c0-4.99,4.06-9.05,9.05-9.05H276c4.99,0,9.05,4.06,9.05,9.05
		v219.39c0,4.99-4.06,9.05-9.05,9.05H22.69z"/>
	<path class="st1" d="M276,22.34c2.45,0,4.53,2.07,4.53,4.53v219.39c0,2.45-2.07,4.53-4.53,4.53H22.69c-2.45,0-4.53-2.07-4.53-4.53
		V26.87c0-2.45,2.07-4.53,4.53-4.53H276 M276,13.29H22.69c-7.47,0-13.58,6.11-13.58,13.58v219.39c0,7.47,6.11,13.58,13.58,13.58H276
		c7.47,0,13.58-6.11,13.58-13.58V26.87C289.57,19.4,283.46,13.29,276,13.29L276,13.29z"/>
</g>
<g>
	<polygon class="st0" points="40.73,60.75 32.77,58.04 39.76,53.37 39.87,44.96 46.47,50.17 54.5,47.68 51.6,55.56 56.45,62.43 
		48.05,62.1 43.02,68.84 	"/>
	<path class="st1" d="M44.27,54.2l1.27,1l1.54-0.48l-0.56,1.52l0.93,1.32l-1.61-0.06l-0.97,1.29l-0.44-1.55l-1.53-0.52l1.34-0.9
		L44.27,54.2 M35.47,35.73l-0.2,15.2l-12.63,8.45l14.39,4.89l4.13,14.63l9.1-12.18l15.19,0.59L56.67,54.9l5.26-14.26l-14.52,4.5
		L35.47,35.73L35.47,35.73z"/>
</g>
<g>
	<polygon class="st0" points="104.51,76.57 102.69,74.93 105.1,74.48 106.09,72.25 107.26,74.4 109.7,74.65 108.01,76.43 
		108.52,78.82 106.31,77.77 104.2,79 	"/>
	<polygon class="st1" points="105.69,62.03 101.93,70.47 92.85,72.16 99.72,78.34 98.52,87.5 106.52,82.88 114.86,86.85 
		112.94,77.81 119.29,71.11 110.1,70.14 105.69,62.03 	"/>
</g>
<g>
	<polygon class="st0" points="165.14,101.51 164.62,101.35 165.07,101.03 165.06,100.48 165.5,100.81 166.02,100.63 165.84,101.15 
		166.17,101.59 165.62,101.59 165.31,102.03 	"/>
	<polygon class="st1" points="160.41,91.37 160.51,98.71 154.52,102.95 161.53,105.13 163.71,112.14 167.95,106.14 175.29,106.23 
		170.9,100.35 173.25,93.4 166.3,95.76 160.41,91.37 	"/>
</g>
<g>
	<polygon class="st0" points="50.49,166.73 50.5,166.73 50.49,166.74 	"/>
	<polygon class="st1" points="47.7,156.89 46.47,163.57 40.27,166.35 46.24,169.58 46.97,176.34 51.89,171.66 58.54,173.06 
		55.61,166.93 58.99,161.04 52.26,161.93 47.7,156.89 	"/>
</g>
<g>
	<polygon class="st0" points="153.9,185.48 152.11,186.36 152.5,184.4 151.11,182.97 153.09,182.74 154.03,180.98 154.86,182.79 
		156.82,183.13 155.36,184.48 155.64,186.45 	"/>
	<polygon class="st1" points="154.32,170.75 150.21,178.52 141.48,179.53 147.6,185.84 145.87,194.46 153.76,190.59 161.41,194.9 
		160.17,186.2 166.64,180.25 157.98,178.74 154.32,170.75 	"/>
</g>
<g>
	<polygon class="st0" points="217.08,187.09 214.06,188.57 214.73,185.26 212.38,182.84 215.73,182.46 217.31,179.48 218.71,182.54 
		222.03,183.13 219.55,185.41 220.02,188.75 	"/>
	<polygon class="st1" points="217.62,169.26 212.85,178.23 202.75,179.39 209.82,186.7 207.8,196.66 216.93,192.2 225.78,197.2 
		224.36,187.13 231.85,180.26 221.84,178.5 217.62,169.26 	"/>
</g>
<g>
	<polygon class="st0" points="235.55,105.24 231.46,103.85 228,106.44 228.06,102.12 224.53,99.63 228.66,98.34 229.94,94.22 
		232.43,97.75 236.75,97.69 234.17,101.15 	"/>
	<polygon class="st1" points="229.94,94.22 228.66,98.34 224.53,99.63 228.06,102.12 228,106.44 231.46,103.85 235.55,105.24 
		234.17,101.15 236.75,97.69 232.43,97.75 229.94,94.22 	"/>
</g>
<g>
	<polygon class="st0" points="192.45,52.94 189.39,50.2 185.39,51.16 187.06,47.4 184.91,43.9 189,44.32 191.67,41.19 192.53,45.21 
		196.33,46.79 192.77,48.84 	"/>
	<polygon class="st1" points="191.67,41.19 189,44.32 184.91,43.9 187.06,47.4 185.39,51.16 189.39,50.2 192.45,52.94 192.77,48.84 
		196.33,46.79 192.53,45.21 191.67,41.19 	"/>
</g>
<g>
	<polygon class="st0" points="96.47,131.1 90.51,129.37 85.69,133.29 85.5,127.08 80.28,123.72 86.13,121.62 87.71,115.61 
		91.52,120.53 97.72,120.18 94.22,125.31 	"/>
	<polygon class="st1" points="87.71,115.61 86.13,121.62 80.28,123.72 85.5,127.08 85.69,133.29 90.51,129.37 96.47,131.1 
		94.22,125.31 97.72,120.18 91.52,120.53 87.71,115.61 	"/>
</g>
<g>
	<polygon class="st0" points="85.92,193.66 84.51,192.37 86.39,192.04 87.18,190.3 88.08,191.98 89.98,192.19 88.66,193.57 
		89.04,195.44 87.32,194.61 85.66,195.55 	"/>
	<polygon class="st1" points="86.85,180.07 83.25,188 74.69,189.53 81.11,195.4 79.92,204.02 87.49,199.72 95.32,203.52 
		93.57,194.99 99.6,188.72 90.95,187.75 86.85,180.07 	"/>
</g>
<g>
	<polygon class="st0" points="131.38,132.49 126.6,133.92 128.37,129.26 125.54,125.15 130.52,125.4 133.55,121.43 134.86,126.25 
		139.56,127.9 135.39,130.63 135.27,135.62 	"/>
	<polygon class="st1" points="135.52,111.39 128.37,120.76 116.6,120.18 123.3,129.87 119.11,140.88 130.4,137.51 139.57,144.9 
		139.85,133.12 149.72,126.67 138.6,122.77 135.52,111.39 	"/>
</g>
<g>
	<polygon class="st0" points="212.53,137.09 210.13,134.86 213.36,134.31 214.75,131.33 216.27,134.24 219.53,134.64 217.23,136.99 
		217.86,140.21 214.92,138.75 212.05,140.34 	"/>
	<polygon class="st1" points="214.52,121.11 210.26,130.24 200.33,131.92 207.7,138.78 206.23,148.75 215.03,143.86 224.06,148.34 
		222.13,138.46 229.18,131.26 219.18,130.04 214.52,121.11 	"/>
</g>
<g>
	<polygon class="st0" points="172.8,214.52 171.95,214.8 172.25,213.96 171.72,213.24 172.61,213.26 173.13,212.54 173.38,213.39 
		174.23,213.66 173.5,214.17 173.51,215.06 	"/>
	<polygon class="st1" points="174.8,202.45 170.32,208.69 162.64,208.53 167.19,214.72 164.67,221.98 171.96,219.57 178.08,224.21 
		178.04,216.53 184.34,212.14 177.03,209.8 174.8,202.45 	"/>
</g>
<g>
	<polygon class="st0" points="241.87,58.69 237.46,54.91 231.84,56.41 234.07,51.04 230.91,46.16 236.7,46.62 240.36,42.11 
		241.72,47.76 247.14,49.85 242.18,52.88 	"/>
	<polygon class="st1" points="240.36,42.11 236.7,46.62 230.91,46.16 234.07,51.04 231.84,56.41 237.46,54.91 241.87,58.69 
		242.18,52.88 247.14,49.85 241.72,47.76 240.36,42.11 	"/>
</g>
<g>
	<polygon class="st0" points="122.45,42.88 120.8,42.2 122.35,41.31 122.49,39.53 123.81,40.72 125.55,40.31 124.82,41.94 
		125.75,43.46 123.98,43.27 122.82,44.63 	"/>
	<polygon class="st1" points="118.7,30.03 118.02,38.57 110.59,42.86 118.52,46.15 120.3,54.54 125.87,48.02 134.4,48.92 
		129.93,41.6 133.42,33.77 125.08,35.76 118.7,30.03 	"/>
</g>
<g>
	<polygon class="st0" points="45.34,101.09 44.12,100.03 45.7,99.71 46.32,98.22 47.12,99.62 48.73,99.75 47.65,100.95 
		48.02,102.52 46.54,101.86 45.17,102.69 	"/>
	<polygon class="st1" points="45.7,88.01 42.45,95.76 34.22,97.47 40.58,102.96 39.67,111.31 46.85,106.96 54.52,110.41 
		52.6,102.23 58.25,96.01 49.87,95.31 45.7,88.01 	"/>
</g>
<g>
	<polygon class="st0" points="40.65,212.51 39.49,213 39.8,211.78 38.97,210.83 40.23,210.75 40.88,209.67 41.34,210.84 
		42.57,211.12 41.6,211.93 41.71,213.18 	"/>
	<polygon class="st1" points="41.69,199.48 37.56,206.39 29.53,206.91 34.83,212.97 32.84,220.77 40.24,217.61 47.05,221.91 
		46.32,213.89 52.52,208.75 44.67,206.96 41.69,199.48 	"/>
</g>
<g>
	<polygon class="st0" points="118.42,225.79 115.2,224.2 118.42,222.62 118.94,219.06 121.45,221.64 124.98,221.03 123.31,224.21 
		124.98,227.39 121.44,226.78 118.94,229.35 	"/>
	<polygon class="st1" points="115.79,209.34 114.29,219.61 104.98,224.2 114.28,228.8 115.77,239.07 123.02,231.64 133.25,233.4 
		128.43,224.21 133.26,215.02 123.03,216.77 115.79,209.34 	"/>
</g>
<g>
	<polygon class="st0" points="232.4,228.63 229.33,227.23 232.31,225.65 232.69,222.3 235.11,224.65 238.42,223.98 236.94,227 
		238.59,229.94 235.26,229.47 232.98,231.95 	"/>
	<polygon class="st1" points="229.24,212.67 228.08,222.77 219.11,227.54 228.35,231.76 230.11,241.77 236.98,234.28 247.05,235.7 
		242.05,226.85 246.51,217.72 236.55,219.74 229.24,212.67 	"/>
</g>
<g>
	<polygon class="st0" points="264.29,163.86 259.01,161.79 254.3,164.96 254.65,159.3 250.17,155.8 255.67,154.38 257.61,149.05 
		260.66,153.83 266.33,154.03 262.72,158.41 	"/>
	<polygon class="st1" points="257.61,149.05 255.67,154.38 250.17,155.8 254.65,159.3 254.3,164.96 259.01,161.79 264.29,163.86 
		262.72,158.41 266.33,154.03 260.66,153.83 257.61,149.05 	"/>
</g>
<g>
	<polygon class="st2" points="180.59,75.53 174.29,72.26 180.72,69.25 181.88,62.25 186.73,67.43 193.75,66.38 190.32,72.59 
		193.5,78.94 186.52,77.6 181.46,82.58 	"/>
	<path class="st1" d="M184.84,72.04l0.21,0.22l0.3-0.05l-0.15,0.27l0.14,0.28l-0.3-0.06l-0.22,0.22l-0.04-0.31l-0.27-0.14l0.28-0.13
		L184.84,72.04 M178.93,52.46l-2.28,13.7l-12.58,5.89l12.33,6.4l1.71,13.79l9.9-9.75l13.64,2.63l-6.21-12.43l6.72-12.16l-13.74,2.06
		L178.93,52.46L178.93,52.46z"/>
</g>
<g>
	<polygon class="st2" points="136.7,70.76 134.49,68.87 131.68,69.62 132.8,66.93 131.22,64.49 134.11,64.72 135.95,62.47 
		136.62,65.29 139.34,66.34 136.86,67.86 	"/>
	<polygon class="st1" points="135.95,62.47 134.11,64.72 131.22,64.49 132.8,66.93 131.68,69.62 134.49,68.87 136.7,70.76 
		136.86,67.86 139.34,66.34 136.62,65.29 135.95,62.47 	"/>
</g>
<g>
	<polygon class="st2" points="244.75,77.66 241.68,75.76 238.39,77.21 239.24,73.71 236.85,71.03 240.44,70.76 242.25,67.65 
		243.62,70.98 247.13,71.75 244.39,74.07 	"/>
	<polygon class="st3" points="242.25,67.65 240.44,70.76 236.85,71.03 239.24,73.71 238.39,77.21 241.68,75.76 244.75,77.66 
		244.39,74.07 247.13,71.75 243.62,70.98 242.25,67.65 	"/>
</g>
<g>
	<polygon class="st2" points="245.9,127.08 241.64,125.35 237.8,127.88 238.13,123.3 234.54,120.43 239,119.32 240.62,115.02 
		243.05,118.92 247.64,119.13 244.68,122.65 	"/>
	<polygon class="st3" points="240.62,115.02 239,119.32 234.54,120.43 238.13,123.3 237.8,127.88 241.64,125.35 245.9,127.08 
		244.68,122.65 247.64,119.13 243.05,118.92 240.62,115.02 	"/>
</g>
<g>
	<polygon class="st2" points="163.71,145.47 158.6,144.59 154.97,148.31 154.23,143.17 149.57,140.87 154.23,138.57 154.98,133.44 
		158.6,137.16 163.72,136.28 161.3,140.88 	"/>
	<polygon class="st3" points="154.98,133.44 154.23,138.57 149.57,140.87 154.23,143.17 154.97,148.31 158.6,144.59 163.71,145.47 
		161.3,140.88 163.72,136.28 158.6,137.16 154.98,133.44 	"/>
</g>
<g>
	<polygon class="st2" points="53.37,135.7 50.13,135.17 47.86,137.54 47.36,134.3 44.4,132.87 47.33,131.39 47.78,128.14 
		50.09,130.47 53.32,129.89 51.82,132.81 	"/>
	<polygon class="st3" points="47.78,128.14 47.33,131.39 44.4,132.87 47.36,134.3 47.86,137.54 50.13,135.17 53.37,135.7 
		51.82,132.81 53.32,129.89 50.09,130.47 47.78,128.14 	"/>
</g>
<g>
	<polygon class="st2" points="90.72,49.49 85.09,50.15 82.43,55.16 80.07,50 74.48,49.03 78.66,45.18 77.86,39.57 82.8,42.35 
		87.9,39.86 86.78,45.42 	"/>
	<polygon class="st3" points="77.86,39.57 78.66,45.18 74.48,49.03 80.07,50 82.43,55.16 85.09,50.15 90.72,49.49 86.78,45.42 
		87.9,39.86 82.8,42.35 77.86,39.57 	"/>
</g>
<g>
	<polygon class="st2" points="115.44,175.36 111.34,174.82 108.58,177.89 107.83,173.83 104.05,172.16 107.68,170.18 108.11,166.08 
		111.1,168.92 115.14,168.05 113.37,171.78 	"/>
	<polygon class="st3" points="108.11,166.08 107.68,170.18 104.05,172.16 107.83,173.83 108.58,177.89 111.34,174.82 115.44,175.36 
		113.37,171.78 115.14,168.05 111.1,168.92 108.11,166.08 	"/>
</g>
<g>
	<polygon class="st2" points="79.23,225.36 74.62,225.5 72.13,229.38 70.56,225.04 66.1,223.87 69.75,221.05 69.48,216.44 
		73.3,219.03 77.59,217.36 76.31,221.79 	"/>
	<polygon class="st3" points="69.48,216.44 69.75,221.05 66.1,223.87 70.56,225.04 72.13,229.38 74.62,225.5 79.23,225.36 
		76.31,221.79 77.59,217.36 73.3,219.03 69.48,216.44 	"/>
</g>
<g>
	<polygon class="st2" points="177.51,239.72 171.02,240.37 167.87,246.09 165.25,240.12 158.84,238.89 163.71,234.55 162.9,228.08 
		168.53,231.37 174.43,228.6 173.04,234.97 	"/>
	<polygon class="st3" points="162.9,228.08 163.71,234.55 158.84,238.89 165.25,240.12 167.87,246.09 171.02,240.37 177.51,239.72 
		173.04,234.97 174.43,228.6 168.53,231.37 162.9,228.08 	"/>
</g>
<g>
	<polygon class="st2" points="264.86,199.49 260.08,200.15 257.91,204.46 255.81,200.12 251.03,199.39 254.52,196.05 253.74,191.28 
		257.99,193.56 262.28,191.35 261.43,196.1 	"/>
	<polygon class="st3" points="253.74,191.28 254.52,196.05 251.03,199.39 255.81,200.12 257.91,204.46 260.08,200.15 264.86,199.49 
		261.43,196.1 262.28,191.35 257.99,193.56 253.74,191.28 	"/>
</g>
<g>
	<polygon class="st2" points="193.02,163.29 189.44,162.93 187.11,165.67 186.35,162.16 183.02,160.79 186.13,158.98 186.39,155.39 
		189.08,157.78 192.58,156.93 191.13,160.22 	"/>
	<polygon class="st3" points="186.39,155.39 186.13,158.98 183.02,160.79 186.35,162.16 187.11,165.67 189.44,162.93 193.02,163.29 
		191.13,160.22 192.58,156.93 189.08,157.78 186.39,155.39 	"/>
</g>
<g>
	<polygon class="st2" points="267.74,36.85 264.83,37.01 263.32,39.49 262.27,36.77 259.44,36.1 261.7,34.26 261.47,31.37 
		263.91,32.95 266.6,31.83 265.85,34.64 	"/>
	<polygon class="st3" points="261.47,31.37 261.7,34.26 259.44,36.1 262.27,36.77 263.32,39.49 264.83,37.01 267.74,36.85 
		265.85,34.64 266.6,31.83 263.91,32.95 261.47,31.37 	"/>
</g>
<g>
	<polygon class="st2" points="160.26,37.43 156.68,37.92 155.05,41.15 153.47,37.89 149.89,37.35 152.51,34.84 151.92,31.27 
		155.11,32.98 158.33,31.31 157.69,34.88 	"/>
	<polygon class="st3" points="151.92,31.27 152.51,34.84 149.89,37.35 153.47,37.89 155.05,41.15 156.68,37.92 160.26,37.43 
		157.69,34.88 158.33,31.31 155.11,32.98 151.92,31.27 	"/>
</g>
<g>
	<polygon class="st2" points="138.43,90.87 135.52,91.03 134.01,93.51 132.96,90.8 130.13,90.12 132.39,88.29 132.16,85.39 
		134.6,86.97 137.29,85.86 136.54,88.66 	"/>
	<polygon class="st3" points="132.16,85.39 132.39,88.29 130.13,90.12 132.96,90.8 134.01,93.51 135.52,91.03 138.43,90.87 
		136.54,88.66 137.29,85.86 134.6,86.97 132.16,85.39 	"/>
</g>
<g>
	<polygon class="st2" points="264.86,97.2 261.11,96.49 258.41,99.19 257.91,95.4 254.52,93.66 257.97,92.02 258.57,88.25 
		261.19,91.03 264.96,90.44 263.14,93.79 	"/>
	<polygon class="st3" points="258.57,88.25 257.97,92.02 254.52,93.66 257.91,95.4 258.41,99.19 261.11,96.49 264.86,97.2 
		263.14,93.79 264.96,90.44 261.19,91.03 258.57,88.25 	"/>
</g>
<g>
	<g>
		<path d="M124.68,113.14c9.29-14.99,17.85-30.39,25.67-46.18c-2.88,0-5.76,0-8.63,0c8.92,17.05,20.03,32.36,31.11,48.05
			c3.68,5.21,12.36,0.22,8.63-5.05c-11.08-15.69-22.19-30.99-31.11-48.05c-1.68-3.2-6.99-3.32-8.63,0
			c-7.83,15.8-16.39,31.2-25.67,46.18C112.65,113.58,121.29,118.61,124.68,113.14L124.68,113.14z"/>
	</g>
</g>
<g>
	<g>
		<path d="M120.13,104.33c-19.13,2.49-38.25,4.98-57.38,7.47c-4.72,0.61-7.05,6.45-2.52,9.32c15.19,9.61,25.21,25.15,38.85,36.61
			c4.9,4.11,12.01-2.92,7.07-7.07c-14.34-12.05-24.87-28.05-40.87-38.17c-0.84,3.11-1.68,6.21-2.52,9.32
			c19.13-2.49,38.25-4.98,57.38-7.47C126.42,113.51,126.5,103.5,120.13,104.33L120.13,104.33z"/>
	</g>
</g>
<g>
	<g>
		<path d="M97.92,151.24c-9.97,16.18-19.12,32.84-27.43,49.93c-2,4.12,1.27,8.09,5.65,7.35c26.64-4.53,49.47-19.78,70.52-35.92
			c5.04-3.86,0.06-12.55-5.05-8.63c-20.41,15.65-42.28,30.51-68.13,34.91c1.88,2.45,3.76,4.9,5.65,7.34
			c8.31-17.09,17.46-33.75,27.43-49.93C109.94,150.79,101.29,145.76,97.92,151.24L97.92,151.24z"/>
	</g>
</g>
<g>
	<g>
		<path d="M137.64,173.25c13.25,15.09,29.01,27.76,46.56,37.51c2.62,1.45,6.73,0.28,7.34-2.99c3.3-17.51,3.62-35.05,1.08-52.68
			c-1.16,2.05-2.33,4.1-3.49,6.15c18.59-7.09,35.3-17.91,49.17-32.2c2.77-2.86,1.28-7.08-2.21-8.36
			c-21.6-7.89-43.87-13.21-66.66-16.23c-6.36-0.84-6.3,9.17,0,10c21.85,2.89,43.3,8.31,64,15.87c-0.74-2.79-1.47-5.57-2.21-8.36
			c-12.63,13.01-27.8,23.17-44.76,29.63c-2.77,1.06-3.91,3.24-3.49,6.15c2.26,15.73,1.86,31.76-1.08,47.36
			c2.45-1,4.9-1.99,7.35-2.99c-16.87-9.37-31.8-21.45-44.53-35.95C140.45,161.34,133.4,168.43,137.64,173.25L137.64,173.25z"/>
	</g>
</g>
<g>
	<g>
		<path d="M154.24,45.47c0.07-2.69,0.61-5.35,1.76-7.8c1.15-2.44,0.68-5.39-1.79-6.84c-2.17-1.27-5.68-0.66-6.84,1.79
			c-1.93,4.09-3.02,8.31-3.13,12.85C144.08,51.91,154.08,51.9,154.24,45.47L154.24,45.47z"/>
	</g>
</g>
<g>
	<g>
		<path d="M48.52,108.56c-6.28-1.82-12.76-2.67-19.29-2.54c-6.43,0.13-6.45,10.13,0,10c5.7-0.12,11.15,0.59,16.63,2.18
			C52.06,120,54.7,110.35,48.52,108.56L48.52,108.56z"/>
	</g>
</g>
<g>
	<g>
		<path d="M248.21,131.67c6.71-0.76,13.41-1.52,20.12-2.28c6.32-0.72,6.39-10.72,0-10c-6.71,0.76-13.41,1.52-20.12,2.28
			C241.89,122.39,241.82,132.4,248.21,131.67L248.21,131.67z"/>
	</g>
</g>
<g>
	<g>
		<path d="M187.76,225.77c2.3,4.5,4.6,9,6.9,13.5c2.93,5.73,11.56,0.68,8.63-5.05c-2.3-4.5-4.6-9-6.9-13.5
			C193.47,214.99,184.84,220.04,187.76,225.77L187.76,225.77z"/>
	</g>
</g>
<g>
	<g>
		<path d="M50.93,236.31c6.52-4.35,12.41-9.48,17.49-15.45c4.15-4.88-2.89-11.98-7.07-7.07c-4.53,5.33-9.65,10-15.46,13.89
			C40.56,231.24,45.56,239.9,50.93,236.31L50.93,236.31z"/>
	</g>
</g>
</svg>
