<?xml version="1.0" encoding="utf-8"?>
<!-- Generator: Adobe Illustrator 25.0.1, SVG Export Plug-In . SVG Version: 6.00 Build 0)  -->
<svg version="1.1" id="Layer_1" xmlns="http://www.w3.org/2000/svg" xmlns:xlink="http://www.w3.org/1999/xlink" x="0px" y="0px"
	 viewBox="0 0 345.4 306.32" style="enable-background:new 0 0 345.4 306.32;" xml:space="preserve">
<style type="text/css">
	.st0{fill:#EBFFE6;}
	.st1{fill:#FF8563;}
	.st2{fill:#9BFFBD;}
	.st3{fill:#D1FFBA;}
	.st4{fill:#01A700;}
</style>
<g>
	<polygon class="st0" points="23.56,156.94 97.21,23.68 249.43,20.84 328.01,151.25 254.36,284.5 102.13,287.34 	"/>
	<path class="st1" d="M243.84,30.95l72.62,120.52L248.4,274.61l-140.68,2.63L35.1,156.72l68.06-123.15L243.84,30.95 M255.02,10.73
		L91.25,13.79L12.01,157.15l84.53,140.3l163.77-3.06l79.23-143.36L255.02,10.73L255.02,10.73z"/>
</g>
<g>
	<polygon class="st2" points="89.35,177.32 110.67,90.5 196.52,65.54 261.06,127.41 239.75,214.24 153.89,239.2 	"/>
	<path class="st3" d="M194.87,72.27l59.54,57.08l-19.66,80.1l-79.2,23.02l-59.54-57.08l19.66-80.1L194.87,72.27 M198.17,58.81
		L105.67,85.7L82.7,179.26l69.54,66.67l92.51-26.89l22.96-93.56L198.17,58.81L198.17,58.81z"/>
</g>
<g>
	<g>
		<path class="st4" d="M177.08,103.46c2.77,0.5,4.52,3.4,3.59,6.08c0.96,0,1.93,0,2.89,0c-0.83-3.85-3.83-6.67-7.37-8.12
			c-4.05-1.66-8.52-1.25-12.57,0.2c-4.46,1.6-8.65,4.14-12.55,6.8c-3.69,2.52-7.13,5.45-9.68,9.15c-2.76,4-4.17,8.77-5.09,13.5
			c-0.84,4.25-1.29,8.59-1.34,12.92c-0.11,8.73,1.35,17.51,4.24,25.74c3.27,9.31,8.33,17.92,14.98,25.22
			c0.7,0.77,1.83,0.44,2.36-0.3c1.4-1.99,3.26-3.52,5.43-4.61c0.91-0.46,0.91-1.68,0.3-2.36c-8.14-9.1-12.37-21.39-11.83-33.57
			c0.51-11.65,5.75-22.69,14.06-30.81c4.55-4.45,9.97-7.99,15.93-10.25c1.79-0.68,1.01-3.58-0.8-2.89
			c-11.4,4.32-21.01,12.86-26.68,23.65c-5.97,11.35-7.08,24.71-3.41,36.97c2.1,7.03,5.72,13.54,10.61,19.01
			c0.1-0.79,0.2-1.57,0.3-2.36c-2.64,1.33-4.81,3.28-6.51,5.69c0.79-0.1,1.57-0.2,2.36-0.3c-10.81-11.87-17.23-27.53-18.21-43.53
			c-0.5-8.11,0.19-16.68,2.94-24.38c2.99-8.37,10.15-13.44,17.59-17.65c4.09-2.31,8.95-4.61,13.79-3.83
			c3.77,0.6,7.42,2.99,8.26,6.89c0.33,1.54,2.44,1.3,2.89,0c1.42-4.11-1.4-8.99-5.69-9.77
			C175.99,100.23,175.18,103.12,177.08,103.46L177.08,103.46z"/>
	</g>
</g>
<g>
	<g>
		<path class="st4" d="M194.32,111.01c-5.79,1.31-10.34,5.58-13.92,10.11c-3.68,4.65-6.53,9.89-8.42,15.52
			c-3.81,11.31-3.42,23.78,1.11,34.82c2.51,6.13,6.14,11.72,10.78,16.46c0.97,1,3.11-0.02,2.51-1.46c-1.41-3.37,2.46-6.19,5.53-6.08
			c1.23,0.04,2.07-1.72,1.06-2.56c-6.51-5.41-10.44-13.46-11.15-21.86c-0.36-4.2,0.03-8.43,1.27-12.46
			c1.4-4.55,3.95-8.53,7.12-12.04c2.06-2.28,4.3-4.39,6.61-6.41c2.28-2,4.73-3.9,7.57-5.05c1.41-0.57,1.42-2.33,0-2.89
			c-6.01-2.38-12.32-3.8-18.77-4.31c-1.92-0.15-1.92,2.85,0,3c6.17,0.49,12.21,1.93,17.97,4.21c0-0.96,0-1.93,0-2.89
			c-5.33,2.14-9.71,6.28-13.69,10.31c-3.78,3.83-7.02,8.14-8.98,13.19c-3.35,8.65-2.82,18.6,0.83,27.05
			c2.04,4.72,5.14,8.99,9.1,12.28c0.35-0.85,0.71-1.71,1.06-2.56c-4.85-0.17-10.59,4.7-8.42,9.88c0.84-0.49,1.67-0.97,2.51-1.46
			c-7.65-7.82-12.55-18.31-13.47-29.24c-0.93-11.04,2.18-22.22,8.51-31.3c3.43-4.91,8.03-9.98,14.09-11.36
			C197,113.47,196.2,110.58,194.32,111.01L194.32,111.01z"/>
	</g>
</g>
<g>
	<g>
		<path class="st4" d="M220.21,124.55c-4.45-2.03-9.45-0.13-12.46,3.49c-3.24,3.9-4.95,9.23-6.24,14.05
			c-1.5,5.62-1.69,11.23-0.58,16.94c0.97,4.98,2.42,10.07,4.28,14.8c1.76,4.49,4.34,8.85,8.81,11.06c0.25-0.93,0.5-1.86,0.76-2.8
			c0.59-0.01-0.06,0.22,0.16-0.04c0.21-0.24-0.02-0.12,0.38-0.38c0.58-0.37,1.49-0.36,2.15-0.43c1.98-0.21,3.96-0.41,5.93-0.61
			c1.71-0.18,2-2.31,0.4-2.95c-6.79-2.68-9.43-10.46-9.65-17.17c-0.12-3.83,0.21-7.75,0.89-11.52c0.58-3.19,1.54-6.52,3.84-8.92
			c2.51-2.61,6.33-3.75,7.95-7.22c0.33-0.7,0.24-1.66-0.54-2.05c-2.86-1.44-5.6-3.12-8.14-5.08c-0.6-0.46-1.18-0.94-1.75-1.43
			c-0.54-0.46-1.13-1.21-1.83-1.42c-1.33-0.38-2.54,0.94-2.85,2.08c-0.49,1.87,2.4,2.67,2.89,0.8c-0.02,0-0.03,0.01-0.05,0.01
			c-0.49-0.13-0.97-0.26-1.46-0.39c3.52,3.18,7.42,5.87,11.66,8c-0.18-0.68-0.36-1.37-0.54-2.05c-1.5,3.21-5.44,4.34-7.73,6.89
			c-2.49,2.76-3.71,6.37-4.36,9.97c-1.44,7.92-2.02,17.06,1.97,24.35c1.99,3.63,5.02,6.51,8.88,8.04c0.13-0.98,0.27-1.96,0.4-2.95
			c-1.98,0.2-3.96,0.41-5.93,0.61c-1.49,0.16-3.05,0.28-4.26,1.25c-2.04,1.65-1.45,5.66,1.57,5.59c1.4-0.03,2.15-2.11,0.76-2.8
			c-3.38-1.67-5.46-4.75-6.95-8.12c-1.72-3.87-2.84-8.11-3.9-12.2c-1.27-4.91-1.98-9.91-1.17-14.97c0.74-4.61,2.21-9.38,4.31-13.57
			c1.89-3.78,6.13-8.47,10.88-6.31C220.44,127.93,221.97,125.35,220.21,124.55L220.21,124.55z"/>
	</g>
</g>
<g>
	<g>
		<path class="st4" d="M159.67,89.6c-8.86,0.46-17.32,3.8-24.23,9.33c-7.03,5.64-11.88,13.53-14.17,22.22
			c-2.4,9.12-2.09,18.71-0.58,27.95c1.57,9.64,4.29,19.43,8.16,28.41c4.57,10.6,12.89,18.53,21.25,26.19
			c1.42,1.3,3.55-0.81,2.12-2.12c-6.99-6.4-14.17-12.96-18.76-21.39c-2.43-4.46-4.05-9.32-5.56-14.15
			c-1.34-4.29-2.52-8.63-3.44-13.02c-3.56-16.97-3.06-36.42,10.12-49.31c6.69-6.54,15.73-10.61,25.09-11.09
			C161.59,92.5,161.6,89.5,159.67,89.6L159.67,89.6z"/>
	</g>
</g>
<g>
	<g>
		<path class="st4" d="M182.49,93.41c1.4-0.41,2.81-0.77,4.24-1.06c0.71-0.14,1.43-0.27,2.15-0.38c0.17-0.03,0.33-0.05,0.5-0.07
			c0.54-0.08-0.28,0.03,0.27-0.04c0.39-0.05,0.78-0.09,1.17-0.13c-0.48-0.63-0.96-1.27-1.45-1.9c-0.23,1.13-0.57,2.52-0.19,3.66
			c0.48,1.43,2.06,1.67,3.13,0.75c0.45-0.39,0.83-0.96,0.98-1.54c0.18-0.72-0.04-1.56-0.72-1.93c-0.61-0.34-1.25-0.26-1.85,0.04
			c-0.5,0.25-0.93,0.64-1.35,1c-0.71,0.62-1.37,1.3-2.01,1.99c-0.54,0.57-0.61,1.56,0,2.12c0.58,0.54,1.55,0.61,2.12,0
			c0.52-0.55,1.04-1.09,1.59-1.6c0.18-0.17,0.37-0.34,0.56-0.5c0.07-0.06,0.15-0.12,0.22-0.19c0.19-0.16-0.32,0.23-0.12,0.1
			c0.04-0.03,0.08-0.06,0.12-0.09c0.1-0.07,0.2-0.13,0.31-0.19c0.31-0.19-0.42,0.12-0.09,0.04c-0.45,0.1-0.92-0.01-1.29-0.35
			c-0.28-0.26-0.41-0.64-0.41-0.97c0,0.21,0.04-0.31,0.05-0.31c0.01,0-0.05,0.17-0.05,0.18c0-0.03,0.23-0.45,0.1-0.25
			c-0.02,0.04-0.04,0.08-0.06,0.11c-0.04,0.07-0.09,0.13-0.13,0.2c0.24-0.41,0.2-0.26,0.05-0.09c-0.23,0.26,0.22-0.14,0.13-0.09
			c-0.3,0.17,0.36-0.11,0.16-0.05c-0.18,0.05,0.5-0.04,0.31-0.04c0.22,0,0.41,0.04,0.65,0.18c-0.17-0.1,0.36,0.32,0.22,0.17
			c0.03,0.03,0.29,0.41,0.17,0.2c0.26,0.46,0.13,0.35,0.09,0.17c-0.08-0.3,0.02,0.37,0.02,0.18c0-0.18-0.02-0.36-0.01-0.54
			c0.01-0.13,0.02-0.26,0.03-0.38c0-0.05,0.01-0.1,0.02-0.14c0.04-0.36-0.03,0.17-0.01,0.05c0.06-0.36,0.12-0.72,0.19-1.08
			c0.18-0.86-0.41-2.01-1.45-1.9c-3.09,0.32-6.14,0.9-9.12,1.79c-0.75,0.22-1.3,1.06-1.05,1.85
			C180.89,93.13,181.68,93.65,182.49,93.41L182.49,93.41z"/>
	</g>
</g>
<g>
	<g>
		<path class="st4" d="M196.12,104.28c1.57,0.61,3.18-0.03,4.59-0.72c0.32-0.16,0.65-0.32,0.97-0.47c0.06-0.03,0.46-0.2,0.23-0.1
			c0.2-0.08,0.39-0.15,0.59-0.21c0.15-0.04,0.31-0.08,0.46-0.11c-0.29,0.06,0.1,0,0.2,0c0.06,0,0.43,0.03,0.27,0.01
			c0.27,0.04,0.54,0.09,0.8,0.14c0.64,0.12,1.28,0.25,1.9,0.46c0.07,0.02,0.24,0.05,0.29,0.11c-0.22-0.22-0.22-0.08-0.03,0.01
			c0.07,0.03,0.29,0.2,0.05,0.01c-0.29-0.23,0.13,0.22-0.09-0.1c-0.17-0.25-0.06-0.08-0.03-0.01c-0.22-0.41-0.14-0.37-0.11-0.25
			c0.03,0.12,0,0.25-0.03-0.29c0.02,0.38,0.12-0.31,0.02-0.06c-0.09,0.24-0.18,0.48-0.27,0.71c-0.37,0.91-0.46,1.89-0.21,2.85
			c0.5,1.86,3.39,1.07,2.89-0.8c-0.01-0.02-0.05-0.3-0.07-0.31c0.03,0.01,0.01,0.4,0.03,0.18c0-0.05-0.01-0.1-0.01-0.14
			c0-0.08,0.01-0.16,0.01-0.24c0-0.28-0.09,0.38,0,0.05c0.08-0.3,0.17-0.59,0.3-0.89c0.32-0.77,0.47-1.56,0.05-2.34
			c-0.54-0.98-1.77-1.36-2.79-1.6c-0.89-0.22-1.84-0.42-2.75-0.48c-0.81-0.05-1.64,0.17-2.39,0.47c-0.48,0.19-0.94,0.41-1.4,0.64
			c-0.17,0.08-0.34,0.17-0.52,0.25c-0.09,0.04-0.17,0.08-0.26,0.12c-0.02,0.01-0.44,0.18-0.15,0.07c-0.17,0.07-0.34,0.13-0.51,0.18
			c-0.08,0.03-0.17,0.05-0.25,0.07c0,0-0.39,0.07-0.18,0.04c0.2-0.03-0.07,0-0.12,0c-0.11,0-0.21,0-0.32-0.01
			c0.3,0.02,0.09,0.02,0.02-0.01c-0.13-0.04-0.25-0.08-0.38-0.13c-0.75-0.3-1.65,0.32-1.85,1.05
			C194.84,103.28,195.36,103.98,196.12,104.28L196.12,104.28z"/>
	</g>
</g>
<g>
	<g>
		<path class="st4" d="M222.16,117.64c0.57-0.15,1.14-0.28,1.73-0.38c0.15-0.02,0.29-0.05,0.44-0.07c-0.29,0.04,0.13-0.02,0.19-0.02
			c0.32-0.04,0.64-0.06,0.95-0.08c1.2-0.07,2.41-0.03,3.6,0.13c-0.48-0.37-0.96-0.73-1.45-1.1c0.16,0.49,0.3,0.99,0.41,1.49
			c0.05,0.23,0.09,0.46,0.12,0.69c-0.05-0.32,0.01,0.13,0.01,0.16c0.01,0.12,0.02,0.23,0.03,0.35c0.03,0.49,0.04,0.99,0.02,1.48
			c-0.01,0.23-0.03,0.47-0.05,0.7c-0.04,0.46,0.05-0.29-0.02,0.16c-0.02,0.14-0.05,0.28-0.07,0.42c-0.14,0.77,0.21,1.65,1.05,1.85
			c0.74,0.17,1.69-0.22,1.85-1.05c0.43-2.35,0.32-4.77-0.44-7.05c-0.23-0.7-0.75-1.01-1.45-1.1c-2.57-0.33-5.2-0.13-7.7,0.54
			c-0.76,0.2-1.3,1.08-1.05,1.85C220.57,117.37,221.35,117.86,222.16,117.64L222.16,117.64z"/>
	</g>
</g>
<g>
	<g>
		<path class="st4" d="M234.61,146.79c0.46-1.03,0.36-2.05-0.49-2.85c-0.96-0.9-2.35-0.73-3.42-0.13c-1.84,1.02-3.32,2.84-4.27,4.68
			c-2.38,4.6-2.03,9.82-1.44,14.81c0.26,2.17,0.78,4.24,3.19,4.82c1.89,0.46,4.07,0.23,5.87-0.47c1.81-0.71,3.41-1.94,4.21-3.75
			c1.07-2.38,0.49-4.96-0.27-7.34c-0.93-2.88-1.8-5.82-2.9-8.64c-0.78-2-2.03-4.15-4.34-4.52c-0.81-0.13-1.6,0.21-1.85,1.05
			c-0.2,0.71,0.25,1.72,1.05,1.85c1.21,0.19,1.77,1.27,2.21,2.33c0.68,1.63,1.15,3.37,1.71,5.04c0.6,1.81,1.3,3.61,1.74,5.46
			c0.36,1.48,0.45,3.13-0.59,4.36c-0.79,0.94-1.99,1.44-3.16,1.69c-0.84,0.18-2.8,0.49-3.47-0.21c-0.38-0.4-0.37-1.37-0.43-1.88
			c-0.11-0.97-0.22-1.94-0.3-2.92c-0.15-1.87-0.22-3.76,0.01-5.63c0.21-1.73,0.72-3.46,1.59-4.98c0.4-0.71,0.87-1.37,1.45-1.95
			c0.26-0.27,0.54-0.53,0.84-0.76c0.17-0.13,0.36-0.23,0.53-0.36c0.08-0.06,0.17-0.11,0.26-0.14c0.44-0.14,0.33-0.49-0.32-1.06
			C231.24,147.03,233.82,148.55,234.61,146.79L234.61,146.79z"/>
	</g>
</g>
<g>
	<g>
		<path class="st4" d="M216.82,191.53c2.76,0.66,5.62,0.93,8.46,0.76c1.19-0.07,1.79-1.2,1.3-2.26c-0.18-0.38,0.08,0.27-0.05-0.12
			c-0.03-0.1-0.07-0.2-0.1-0.31c-0.03-0.1-0.06-0.21-0.08-0.31c-0.01-0.06-0.05-0.46-0.03-0.11c-0.01-0.22-0.03-0.43-0.03-0.65
			c0-0.13,0.01-0.26,0.02-0.39c0.02-0.29-0.04,0.12,0.01-0.05c0.06-0.21,0.09-0.42,0.15-0.63c0.03-0.1,0.07-0.21,0.1-0.31
			c0.14-0.38-0.14,0.24,0.06-0.12c0.1-0.19,0.21-0.37,0.33-0.56c0.21-0.34-0.19,0.19,0.08-0.11c0.09-0.1,0.17-0.19,0.26-0.29
			c0.55-0.56,0.6-1.57,0-2.12c-0.59-0.54-1.54-0.6-2.12,0c-1.97,2.02-2.39,5.06-1.2,7.59c0.43-0.75,0.86-1.5,1.3-2.26
			c-1.32,0.08-2.65,0.07-3.97-0.04c-0.65-0.05-1.12-0.11-1.66-0.2c-0.68-0.11-1.36-0.25-2.03-0.41c-0.76-0.18-1.66,0.24-1.85,1.05
			C215.59,190.46,216,191.33,216.82,191.53L216.82,191.53z"/>
	</g>
</g>
<g>
	<g>
		<path class="st4" d="M185.44,192.76c2.7,1.74,6.08,3.62,9.32,2.2c2.56-1.12,4.44-4.42,2.78-7.01c-0.44-0.68-1.33-0.96-2.05-0.54
			c-0.68,0.4-0.98,1.37-0.54,2.05c0.07,0.11,0.13,0.22,0.19,0.33c-0.16-0.29-0.01,0.03,0.01,0.1c0.09,0.25,0.03-0.13,0.01,0.01
			c-0.01,0.09-0.02,0.27,0,0.36c0.04,0.14,0.07-0.24,0,0.02c-0.03,0.12-0.05,0.24-0.09,0.35c-0.03,0.08-0.19,0.39-0.03,0.1
			c-0.05,0.09-0.1,0.19-0.15,0.28c-0.05,0.09-0.11,0.18-0.17,0.27c-0.18,0.28,0.13-0.11-0.09,0.11c-0.19,0.19-0.36,0.38-0.57,0.55
			c0.17-0.13,0.03-0.02-0.07,0.04c-0.09,0.06-0.19,0.12-0.28,0.17c-0.11,0.06-0.23,0.13-0.35,0.18c0.3-0.13-0.1,0.02-0.13,0.03
			c-0.1,0.03-0.22,0.04-0.32,0.08c-0.11,0.02-0.08,0.02,0.08,0c-0.08,0.01-0.17,0.02-0.26,0.02c-0.31,0.02-0.62,0.01-0.93-0.01
			c0.2,0.02-0.27-0.04-0.27-0.04c-0.14-0.03-0.27-0.06-0.41-0.09c-0.3-0.08-0.6-0.18-0.89-0.28c-0.4-0.14-1.03-0.47-1.52-0.75
			c-0.61-0.34-1.2-0.72-1.78-1.1c-0.68-0.44-1.66-0.14-2.05,0.54C184.47,191.44,184.75,192.32,185.44,192.76L185.44,192.76z"/>
	</g>
</g>
<g>
	<g>
		<path class="st4" d="M158.42,202.79c0.46-0.17,0.71-0.23,1.05-0.25c0.16-0.01,0.33-0.01,0.49,0c0.07,0,0.59,0.06,0.43,0.04
			c0.81,0.13,1.59,0.38,2.36,0.64c1.62,0.54,3.33,1.19,5.07,1.06c1.9-0.15,3.63-1.13,4.48-2.87c0.82-1.69,0.87-3.71-0.14-5.34
			c-1.02-1.64-3.61-0.13-2.59,1.51c0.23,0.37,0.24,0.39,0.33,0.81c0.06,0.29,0.02-0.09,0.03,0.23c0,0.16,0,0.32-0.01,0.48
			c-0.01,0.14-0.07,0.39-0.18,0.7c-0.04,0.11-0.23,0.47-0.34,0.61c-0.3,0.4-0.69,0.65-1.19,0.78c-0.1,0.03-0.21,0.05-0.32,0.07
			c0.11-0.01,0.1-0.01,0,0c-0.16,0.02-0.32,0.02-0.49,0.02c-0.43,0-0.5-0.01-0.84-0.07c-2.96-0.55-5.89-2.47-8.96-1.32
			c-0.76,0.28-1.28,1.01-1.05,1.85C156.77,202.47,157.65,203.08,158.42,202.79L158.42,202.79z"/>
	</g>
</g>
<g>
	<g>
		<path class="st4" d="M171.4,191.1c-0.44,0.62-0.84,1.26-1.2,1.94c-0.38,0.74-0.75,1.51-1,2.3c-0.37,1.16-0.01,2.63,1.29,3
			c1.21,0.35,2.55-0.42,2.55-1.76c0-0.78-0.69-1.54-1.5-1.5c-0.81,0.04-1.5,0.66-1.5,1.5c0,0.02,0,0.03,0,0.05
			c0.02-0.13,0.04-0.27,0.05-0.4c0,0.03-0.01,0.06-0.02,0.08c0.05-0.12,0.1-0.24,0.15-0.36c-0.01,0.03-0.02,0.05-0.04,0.07
			c0.08-0.1,0.16-0.2,0.23-0.3c-0.02,0.02-0.04,0.04-0.06,0.06c0.1-0.08,0.2-0.16,0.3-0.23c-0.02,0.02-0.05,0.03-0.07,0.04
			c0.12-0.05,0.24-0.1,0.36-0.15c-0.06,0.02-0.11,0.04-0.18,0.05c0.13-0.02,0.27-0.04,0.4-0.05c-0.05,0-0.1,0-0.14,0
			c0.13,0.02,0.27,0.04,0.4,0.05c-0.05-0.01-0.09-0.02-0.14-0.04c0.12,0.05,0.24,0.1,0.36,0.15c-0.05-0.02-0.08-0.04-0.13-0.07
			c0.1,0.08,0.2,0.16,0.3,0.23c-0.03-0.02-0.05-0.04-0.07-0.07c0.08,0.1,0.16,0.2,0.23,0.3c-0.04-0.05-0.07-0.11-0.09-0.17
			c0.05,0.12,0.1,0.24,0.15,0.36c-0.02-0.07-0.04-0.14-0.05-0.21c0.02,0.13,0.04,0.27,0.05,0.4c-0.01-0.1,0-0.2,0.01-0.3
			c-0.02,0.13-0.04,0.27-0.05,0.4c0.07-0.38,0.23-0.74,0.38-1.09c-0.05,0.12-0.1,0.24-0.15,0.36c0.47-1.1,1.06-2.15,1.76-3.13
			c0.21-0.3,0.25-0.81,0.15-1.16c-0.1-0.35-0.36-0.72-0.69-0.9c-0.35-0.18-0.77-0.28-1.16-0.15
			C171.91,190.54,171.64,190.77,171.4,191.1L171.4,191.1z"/>
	</g>
</g>
</svg>
