<?xml version="1.0" encoding="utf-8"?>
<!-- Generator: Adobe Illustrator 25.0.1, SVG Export Plug-In . SVG Version: 6.00 Build 0)  -->
<svg version="1.1" id="Layer_1" xmlns="http://www.w3.org/2000/svg" xmlns:xlink="http://www.w3.org/1999/xlink" x="0px" y="0px"
	 viewBox="0 0 63.97 67.66" style="enable-background:new 0 0 63.97 67.66;" xml:space="preserve">
<style type="text/css">
	.st0{fill:#FFEBB1;}
	.st1{fill:#060028;}
	.st2{fill:#887FFF;}
	.st3{fill:#37FFB4;}
</style>
<g>
	<ellipse class="st0" cx="31.94" cy="33.8" rx="30.99" ry="31.1"/>
	<path class="st1" d="M1.13,33.8c0-17.08,13.81-30.97,30.81-30.97S62.75,16.73,62.75,33.8S48.93,64.77,31.94,64.77
		S1.13,50.88,1.13,33.8 M0.76,33.8c0,17.24,13.96,31.21,31.18,31.21S63.11,51.04,63.11,33.8S49.14,2.58,31.94,2.58
		C14.72,2.58,0.76,16.56,0.76,33.8L0.76,33.8z"/>
</g>
<g>
	<ellipse class="st2" cx="31.41" cy="33.8" rx="20.54" ry="20.64"/>
	<path class="st3" d="M11.78,33.8c0-5.43,2.11-10.52,5.96-14.34c3.7-3.67,8.55-5.69,13.66-5.69s9.96,2.02,13.66,5.69
		c3.84,3.81,5.96,8.9,5.96,14.34c0,5.44-2.11,10.52-5.96,14.34c-3.7,3.67-8.55,5.69-13.66,5.69s-9.96-2.02-13.66-5.69
		C13.91,44.32,11.78,39.23,11.78,33.8 M9.97,33.8c0,11.74,9.6,21.26,21.45,21.26s21.45-9.52,21.45-21.26s-9.6-21.26-21.45-21.26
		S9.97,22.06,9.97,33.8L9.97,33.8z"/>
</g>
<g>
	<g>
		<path d="M28,60.33c-0.33,0.02-0.65-0.09-0.77-0.31c-0.09-0.14-0.03-0.33,0.01-0.47c0.06-0.2,0.11-0.4,0.13-0.6
			c0.09-0.72-0.23-1.48-0.84-2.08c-0.17-0.16-0.48-0.24-0.75-0.13c-0.24,0.1-0.37,0.34-0.2,0.51c0.33,0.33,0.54,0.67,0.64,1.06
			c0.1,0.38,0.03,0.74-0.07,1.12c-0.11,0.44-0.09,0.86,0.35,1.22c0.35,0.29,0.92,0.45,1.48,0.42c0.3-0.02,0.54-0.16,0.54-0.37
			C28.54,60.51,28.29,60.32,28,60.33L28,60.33z"/>
	</g>
</g>
<g>
	<g>
		<path d="M21.4,56.74c-0.43-0.06-0.62-0.27-0.74-0.58c-0.14-0.37-0.1-0.73-0.07-1.11c0.09-0.77-0.01-1.78-1.19-2.16
			c-0.27-0.09-0.6-0.05-0.75,0.13c-0.14,0.16-0.07,0.42,0.2,0.51c0.99,0.32,0.62,1.35,0.62,1.97c-0.01,0.77,0.35,1.79,1.66,1.96
			c0.28,0.04,0.6-0.06,0.67-0.26C21.85,57.01,21.7,56.77,21.4,56.74L21.4,56.74z"/>
	</g>
</g>
<g>
	<g>
		<path d="M14.3,52.03c-0.77-0.69-0.5-1.64-0.41-2.44c0.1-0.87,0.09-1.79-0.88-2.46c-0.5-0.34-1.26,0.18-0.77,0.52
			c0.85,0.58,0.61,1.51,0.52,2.25c-0.1,0.85-0.18,1.78,0.6,2.5c0.18,0.16,0.47,0.24,0.75,0.13C14.34,52.45,14.47,52.19,14.3,52.03
			L14.3,52.03z"/>
	</g>
</g>
<g>
	<g>
		<path d="M34.41,60.9c-0.04-0.22-0.16-0.4-0.35-0.57c-0.14-0.13-0.33-0.22-0.48-0.35c-0.3-0.23-0.21-0.6-0.14-0.9
			c0.09-0.36,0.14-0.7,0.03-1.06c-0.13-0.39-0.48-0.66-1.01-0.81c-0.27-0.08-0.6,0.08-0.67,0.26c-0.09,0.21,0.1,0.39,0.38,0.45
			c-0.06-0.02,0.06,0.03,0.03,0.01c-0.03-0.01,0.07,0.05,0.07,0.05c0.01,0.01,0.06,0.05,0.03,0.02c0.03,0.03,0.06,0.06,0.07,0.09
			c0.01,0.02,0.04,0.08,0.06,0.13c0.03,0.08,0.03,0.08,0.04,0.15c0.03,0.32-0.1,0.61-0.14,0.93c-0.06,0.35,0,0.72,0.3,1.01
			c0.13,0.13,0.3,0.24,0.47,0.36c0.06,0.04,0.16,0.11,0.17,0.13c0.03,0.02,0.04,0.05,0.07,0.07c-0.03-0.04,0.03,0.06,0.01,0.01
			c0.04,0.2,0.23,0.37,0.54,0.37C34.12,61.27,34.45,61.1,34.41,60.9L34.41,60.9z"/>
	</g>
</g>
<g>
	<g>
		<path d="M40.39,12.15c-0.11-0.48-0.24-0.95-0.35-1.43c-0.06-0.21-0.17-0.46-0.11-0.68c0.04-0.21,0.24-0.41,0.34-0.62
			c0.43-0.87,0.03-1.8-0.37-2.64c-0.21-0.45-1.28-0.26-1.05,0.2c0.2,0.42,0.43,0.87,0.5,1.32c0.07,0.47-0.09,0.85-0.33,1.28
			c-0.26,0.44-0.11,0.88,0,1.34c0.11,0.48,0.24,0.95,0.35,1.43C39.46,12.83,40.51,12.63,40.39,12.15L40.39,12.15z"/>
	</g>
</g>
<g>
	<g>
		<path d="M36.44,10.49c-0.45-0.2-0.44-0.67-0.34-0.99c0.16-0.48,0.47-0.93,0.54-1.43c0.13-0.94-0.75-1.88-0.37-2.81
			c0.18-0.46-0.87-0.66-1.05-0.2c-0.45,1.12,0.65,2.19,0.24,3.29c-0.2,0.51-0.54,1-0.51,1.55c0.03,0.5,0.31,0.94,0.94,1.22
			C36.46,11.39,37.02,10.75,36.44,10.49L36.44,10.49z"/>
	</g>
</g>
<g>
	<g>
		<path d="M33.23,10.13c-0.35-0.15-0.6-0.4-0.65-0.69c-0.07-0.39,0.27-0.76,0.44-1.11c0.4-0.78,0.45-1.62,0.23-2.43
			c-0.13-0.47-1.18-0.27-1.05,0.2c0.11,0.41,0.13,0.85,0.04,1.27c-0.1,0.45-0.34,0.86-0.57,1.28c-0.43,0.79-0.07,1.65,1.01,2.11
			C33.27,11.03,33.83,10.39,33.23,10.13L33.23,10.13z"/>
	</g>
</g>
<g>
	<g>
		<path d="M11.1,18.94c0,0.05,0,0.1,0,0.14c0,0.05,0.01,0.1,0.04,0.14c0.03,0.05,0.06,0.09,0.11,0.12c0.06,0.04,0.11,0.06,0.17,0.08
			c0.07,0.02,0.13,0.04,0.21,0.03c0.04-0.01,0.1-0.01,0.14-0.01c0.09-0.02,0.17-0.05,0.24-0.1c0.03-0.03,0.06-0.05,0.09-0.08
			c0.06-0.06,0.07-0.13,0.07-0.19c0-0.05,0-0.1,0-0.14c0-0.05-0.01-0.1-0.04-0.14c-0.03-0.05-0.06-0.09-0.11-0.12
			c-0.06-0.04-0.11-0.06-0.17-0.08c-0.07-0.02-0.13-0.04-0.21-0.03c-0.04,0.01-0.1,0.01-0.14,0.01c-0.09,0.02-0.17,0.05-0.24,0.1
			c-0.03,0.03-0.06,0.05-0.09,0.08C11.12,18.81,11.1,18.88,11.1,18.94L11.1,18.94z"/>
	</g>
</g>
<g>
	<g>
		<path d="M9.1,16.38L9.1,16.38C9.1,16.39,9.1,16.39,9.1,16.38c-0.01,0.01-0.06,0.1-0.06,0.1c-0.01,0.04-0.03,0.07-0.03,0.11
			c0,0.02,0,0.02,0.01,0.05c0-0.02,0,0.04,0.01,0.05c0,0.01,0.04,0.08,0.06,0.09c0.01,0.02,0.03,0.02,0.04,0.04
			c-0.01-0.01,0.03,0.03,0.04,0.04l0,0L9.3,16.9c0,0,0.01,0,0.01,0.01c0.01,0,0.13,0.04,0.13,0.04l0,0c0,0,0,0,0.01,0
			c0,0,0,0,0.01,0l0,0c0.03,0.01,0.11,0.01,0.14,0.01c0.03,0,0.07-0.01,0.1-0.01s0.07,0,0.1-0.01c0.01-0.01,0.11-0.03,0.13-0.04l0,0
			c0,0,0,0,0.01,0c0,0,0,0,0.01,0c0.01,0,0.1-0.06,0.11-0.06l0,0l0,0l0,0l0.09-0.08c0,0,0,0,0-0.01c0.01-0.01,0.09-0.14,0.03-0.05
			c-0.04,0.06,0.03-0.03,0.03-0.05c0,0,0,0,0-0.01l0.01-0.1l0,0c0,0,0,0,0-0.01l-0.01-0.1c0,0,0,0,0-0.01c0,0,0,0,0-0.01
			c0-0.01-0.06-0.08-0.06-0.09l0,0c0,0,0-0.01-0.01-0.01l0,0c-0.03-0.03-0.06-0.05-0.09-0.08l0,0c0,0,0,0-0.01-0.01l0,0
			c-0.01-0.01-0.1-0.06-0.11-0.06c0,0,0,0-0.01,0l0,0c-0.03-0.01-0.1-0.03-0.13-0.04c-0.01,0-0.01,0-0.01,0
			c-0.03,0-0.09-0.01-0.07-0.01c0,0-0.06-0.01-0.07-0.01H9.63H9.61c-0.06,0-0.1,0.01-0.16,0.02c-0.01,0-0.01,0-0.03,0
			c-0.06,0.01-0.1,0.03-0.16,0.04c-0.01,0-0.01,0.01-0.03,0.01c0,0-0.01,0-0.01,0.01c-0.04,0.02-0.09,0.04-0.11,0.06
			c0.03,0.02,0.03,0.03,0.01,0.03l0,0c-0.03,0.02-0.06,0.06-0.09,0.08c0,0,0,0.01-0.01,0.01v0.01c0,0,0,0,0,0.01
			c-0.01,0.03-0.04,0.07-0.06,0.09c0,0.01-0.01,0.01-0.01,0.02c-0.01,0.04-0.01,0.07-0.03,0.11c0,0.01,0,0.01,0,0.02
			c0,0.02,0.01,0.04,0.01,0.06c0,0.02,0.01,0.04,0.01,0.06c0,0.01,0.01,0.02,0.01,0.03c0.01,0.02,0.03,0.04,0.04,0.06
			c0.01,0.02,0.03,0.04,0.04,0.06c0.01,0.01,0.01,0.02,0.03,0.03c0.01,0.02,0.03,0.04,0.06,0.05c0.03,0.04,0.09,0.08,0.14,0.11
			c0.06,0.03,0.11,0.06,0.18,0.07c0.07,0.02,0.14,0.02,0.21,0.01c0.07,0,0.14-0.02,0.2-0.05c0.04-0.02,0.07-0.04,0.11-0.06
			c0.07-0.05,0.11-0.11,0.14-0.16c0.01-0.03,0.01-0.07,0.01-0.1c0-0.07-0.03-0.13-0.07-0.19c-0.03-0.03-0.06-0.06-0.07-0.09
			c0.01,0.03,0.04,0.06,0.06,0.09c-0.01-0.02-0.01-0.03-0.03-0.05c0.01,0.03,0.01,0.07,0.01,0.1c0-0.01,0-0.02,0-0.04
			c-0.01,0.03-0.01,0.07-0.01,0.1c0-0.01,0-0.02,0.01-0.03c-0.01,0.03-0.04,0.06-0.06,0.09c0-0.01,0.01-0.01,0.01-0.02
			c-0.03,0.03-0.06,0.05-0.09,0.08c0.01-0.01,0.01-0.01,0.03-0.02c-0.04,0.02-0.07,0.04-0.11,0.06c0.01-0.01,0.03-0.01,0.04-0.02
			c-0.04,0.01-0.09,0.03-0.13,0.04c0.01,0,0.03-0.01,0.04-0.01c-0.04,0.01-0.1,0.01-0.14,0.01c0.01,0,0.03,0,0.03,0
			c-0.04-0.01-0.1-0.01-0.14-0.01c0.01,0,0.01,0,0.03,0.01c-0.04-0.01-0.09-0.03-0.13-0.04c0.01,0,0.01,0.01,0.01,0.01
			c-0.04-0.02-0.07-0.04-0.11-0.06l0.01,0.01c-0.03-0.03-0.06-0.05-0.09-0.08c0,0.01,0.01,0.01,0.01,0.01
			c-0.01-0.03-0.04-0.06-0.06-0.09v0.01c-0.01-0.03-0.01-0.07-0.01-0.1v0.01c0.01-0.03,0.01-0.07,0.01-0.1v0.01
			c0.01-0.03,0.04-0.06,0.06-0.09v0.01c0.03-0.03,0.06-0.05,0.09-0.08l-0.01,0.01c0.04-0.02,0.07-0.04,0.11-0.06l-0.01,0.01
			c0.04-0.01,0.09-0.03,0.13-0.04c-0.01,0-0.01,0.01-0.03,0.01c0.04-0.01,0.1-0.01,0.14-0.01c-0.01,0-0.03,0-0.03,0
			c0.04,0.01,0.1,0.01,0.14,0.01c-0.01,0-0.01,0-0.01,0c0.04,0.01,0.09,0.03,0.13,0.04c0,0-0.01,0-0.01-0.01
			c0.04,0.02,0.07,0.04,0.11,0.06c0,0,0,0-0.01-0.01c0.03,0.03,0.06,0.05,0.09,0.08l0,0c0.01,0.03,0.04,0.06,0.06,0.09
			c0,0,0,0,0-0.01c0.01,0.03,0.01,0.07,0.01,0.1c0,0,0,0,0-0.01c-0.01,0.03-0.01,0.07-0.01,0.1v-0.01
			c-0.01,0.03-0.04,0.06-0.06,0.09c0,0,0-0.01,0.01-0.01c0.04-0.04,0.06-0.09,0.07-0.13s0.01-0.1-0.01-0.14
			c-0.01-0.05-0.06-0.09-0.1-0.13s-0.09-0.07-0.16-0.1c-0.04-0.01-0.09-0.03-0.13-0.04c-0.1-0.02-0.2-0.02-0.3,0
			c-0.04,0.01-0.09,0.03-0.13,0.04C9.22,16.28,9.16,16.32,9.1,16.38L9.1,16.38z"/>
	</g>
</g>
<g>
	<g>
		<path d="M9.17,19.17c0-0.01,0.01-0.01,0.01-0.02c0,0,0,0,0-0.01c0.01-0.03,0.01-0.08,0.03-0.11c0-0.01,0-0.01,0-0.01
			c0-0.05-0.01-0.09-0.03-0.13c-0.01-0.01-0.03-0.03-0.04-0.05c-0.01-0.02-0.03-0.04-0.03-0.05S9.1,18.78,9.1,18.77
			c-0.03-0.03-0.06-0.06-0.09-0.08L9,18.68c-0.01-0.01-0.01-0.01-0.03-0.02c-0.04-0.03-0.09-0.05-0.13-0.07
			c-0.01-0.01-0.01-0.01-0.03-0.01c-0.06-0.02-0.11-0.04-0.18-0.05c-0.01,0-0.01,0-0.03-0.01c-0.03,0-0.06-0.01-0.09-0.01
			c-0.03,0-0.06-0.01-0.09-0.01c-0.07,0-0.13,0.01-0.2,0.02c-0.06,0.01-0.13,0.03-0.16,0.04c-0.01,0-0.01,0.01-0.03,0.01l0,0
			c-0.04,0.02-0.09,0.04-0.11,0.06l-0.01,0.01c-0.04,0.03-0.07,0.06-0.1,0.1c-0.04,0.04-0.06,0.09-0.07,0.13
			c-0.03,0.06-0.03,0.11,0,0.15c0.01,0.05,0.06,0.09,0.1,0.13c0.04,0.04,0.09,0.07,0.16,0.1c0.04,0.01,0.09,0.03,0.13,0.04
			c0.1,0.02,0.2,0.02,0.3,0c0.04-0.01,0.09-0.03,0.13-0.04c0.09-0.03,0.14-0.08,0.2-0.13l0.01-0.01c-0.03,0.03-0.06,0.05-0.09,0.08
			c0.01-0.01,0.01-0.01,0.03-0.02c-0.04,0.02-0.07,0.04-0.11,0.06c0.01-0.01,0.03-0.01,0.03-0.02c-0.04,0.01-0.09,0.03-0.13,0.04
			c0.01,0,0.03-0.01,0.04-0.01c-0.04,0.01-0.1,0.01-0.14,0.01c0.01,0,0.03,0,0.06,0c-0.04-0.01-0.1-0.01-0.14-0.01
			c0.03,0,0.04,0.01,0.07,0.01c-0.04-0.01-0.09-0.03-0.13-0.04c0.03,0.01,0.04,0.02,0.06,0.03c-0.04-0.02-0.07-0.04-0.11-0.06
			c0.01,0.01,0.03,0.02,0.04,0.03c-0.03-0.03-0.06-0.05-0.09-0.08c0.01,0.01,0.01,0.02,0.03,0.03c-0.01-0.03-0.04-0.06-0.06-0.09
			c0,0.01,0.01,0.02,0.01,0.03c-0.01-0.03-0.01-0.07-0.01-0.1c0,0.01,0,0.02,0,0.03c0.01-0.03,0.01-0.07,0.01-0.1
			c0,0.01-0.01,0.02-0.01,0.03c-0.03,0.05-0.03,0.1-0.01,0.14c0,0.05,0.03,0.1,0.07,0.13c0.03,0.04,0.09,0.08,0.14,0.11
			c0.04,0.03,0.1,0.05,0.17,0.07c0.04,0.01,0.1,0.01,0.14,0.01c0.1,0,0.18-0.02,0.28-0.05c0.04-0.02,0.07-0.04,0.11-0.06
			C9.1,19.28,9.16,19.22,9.17,19.17L9.17,19.17z"/>
	</g>
</g>
<g>
	<g>
		<path d="M10.11,22.36c-0.01-0.1-0.03-0.19-0.04-0.28c0-0.05-0.01-0.1-0.04-0.14s-0.06-0.09-0.11-0.12
			c-0.06-0.04-0.11-0.06-0.17-0.08c-0.07-0.02-0.13-0.04-0.21-0.03c-0.04,0.01-0.1,0.01-0.14,0.01c-0.09,0.02-0.17,0.05-0.24,0.1
			c-0.03,0.03-0.06,0.05-0.09,0.08C9,21.95,8.99,22.02,8.99,22.09c0.01,0.1,0.03,0.19,0.04,0.28c0,0.05,0.01,0.1,0.04,0.14
			c0.03,0.05,0.06,0.09,0.11,0.12c0.06,0.04,0.11,0.06,0.17,0.08c0.07,0.02,0.13,0.04,0.21,0.03c0.04-0.01,0.1-0.01,0.14-0.01
			c0.09-0.02,0.17-0.05,0.24-0.1c0.03-0.03,0.06-0.05,0.09-0.08C10.08,22.48,10.11,22.41,10.11,22.36L10.11,22.36z"/>
	</g>
</g>
<g>
	<g>
		<path d="M6.59,21.19c0.04-0.04,0.09-0.07,0.13-0.09c-0.04,0.02-0.07,0.04-0.11,0.06c0.06-0.03,0.1-0.05,0.17-0.07
			c-0.04,0.01-0.09,0.03-0.13,0.04c0.07-0.02,0.16-0.04,0.24-0.04c-0.04,0.01-0.1,0.01-0.14,0.01c0.09-0.01,0.17-0.01,0.24,0
			c-0.04-0.01-0.1-0.01-0.14-0.01c0.09,0.01,0.17,0.02,0.26,0.05c-0.04-0.01-0.09-0.03-0.13-0.04c0.07,0.02,0.13,0.04,0.18,0.07
			c-0.04-0.02-0.07-0.04-0.11-0.06c0.06,0.03,0.1,0.06,0.13,0.09c-0.03-0.03-0.06-0.05-0.09-0.08c0.04,0.03,0.07,0.07,0.09,0.11
			c-0.01-0.03-0.04-0.06-0.06-0.09c0.03,0.04,0.04,0.09,0.06,0.13c-0.01-0.03-0.01-0.07-0.01-0.1c0.01,0.05,0.01,0.09,0,0.13
			c0.01-0.03,0.01-0.07,0.01-0.1c-0.01,0.06-0.04,0.12-0.07,0.16c0.01-0.03,0.04-0.06,0.06-0.09c-0.03,0.05-0.07,0.1-0.13,0.14
			c0.03-0.03,0.06-0.05,0.09-0.08c-0.06,0.04-0.1,0.08-0.17,0.12c0.04-0.02,0.07-0.04,0.11-0.06C7,21.45,6.95,21.47,6.89,21.49
			c0.04-0.01,0.09-0.03,0.13-0.04c-0.06,0.02-0.13,0.03-0.2,0.04c0.04-0.01,0.1-0.01,0.14-0.01c-0.06,0.01-0.11,0.01-0.17,0
			c0.04,0.01,0.1,0.01,0.14,0.01c-0.07-0.01-0.13-0.02-0.2-0.04c0.04,0.01,0.09,0.03,0.13,0.04c-0.07-0.02-0.13-0.04-0.18-0.07
			c0.04,0.02,0.07,0.04,0.11,0.06c-0.07-0.04-0.13-0.08-0.18-0.12c0.03,0.03,0.06,0.05,0.09,0.08c-0.06-0.05-0.1-0.1-0.13-0.14
			c0.01,0.03,0.04,0.06,0.06,0.09c-0.03-0.05-0.06-0.11-0.07-0.16c0.01,0.03,0.01,0.07,0.01,0.1c-0.01-0.04-0.01-0.09,0-0.13
			c-0.01,0.03-0.01,0.07-0.01,0.1c0.01-0.05,0.03-0.09,0.04-0.13c-0.33,0.03-0.67,0.06-0.99,0.09c0.1,0.11,0.21,0.2,0.33,0.31
			c0.09,0.08,0.18,0.14,0.33,0.17c0.13,0.03,0.31,0.01,0.43-0.04c0.11-0.05,0.21-0.13,0.26-0.22c0.03-0.09,0.03-0.2-0.06-0.29
			c-0.1-0.11-0.21-0.2-0.33-0.31c-0.13-0.13-0.31-0.2-0.54-0.17c-0.1,0.01-0.18,0.03-0.26,0.08c-0.1,0.05-0.16,0.12-0.2,0.19
			c-0.1,0.16-0.1,0.37-0.03,0.54c0.07,0.17,0.21,0.34,0.4,0.45c0.18,0.13,0.43,0.22,0.68,0.25c0.31,0.04,0.61,0.01,0.88-0.1
			c0.45-0.17,0.75-0.53,0.74-0.88c-0.01-0.21-0.11-0.4-0.31-0.55c-0.16-0.13-0.38-0.22-0.62-0.27c-0.24-0.08-0.52-0.08-0.79-0.03
			c-0.26,0.04-0.52,0.14-0.68,0.29c-0.1,0.08-0.16,0.15-0.16,0.26c0,0.09,0.06,0.2,0.16,0.26c0.11,0.06,0.24,0.11,0.38,0.11
			C6.34,21.3,6.49,21.27,6.59,21.19L6.59,21.19z"/>
	</g>
</g>
<g>
	<g>
		<path d="M5.87,23.24c0,0.01-0.01,0.02-0.01,0.02c0.03-0.03,0.04-0.06,0.06-0.09c-0.01,0.01-0.01,0.03-0.03,0.04
			c0.03-0.03,0.06-0.05,0.09-0.08c-0.01,0.01-0.03,0.02-0.04,0.03c0.04-0.02,0.07-0.04,0.11-0.06c-0.01,0.01-0.03,0.02-0.06,0.02
			c0.04-0.01,0.09-0.03,0.13-0.04c-0.03,0.01-0.06,0.01-0.07,0.02c0.04-0.01,0.1-0.01,0.14-0.01c-0.04,0-0.07,0-0.11,0
			c0.04,0.01,0.1,0.01,0.14,0.01C6.17,23.1,6.14,23.1,6.1,23.09c0.04,0.01,0.09,0.03,0.13,0.04c-0.03-0.01-0.06-0.02-0.09-0.04
			c0.04,0.02,0.07,0.04,0.11,0.06c-0.03-0.01-0.04-0.03-0.06-0.04c0.03,0.03,0.06,0.05,0.09,0.08c-0.01-0.01-0.03-0.02-0.03-0.04
			c0.03,0.03,0.04,0.06,0.06,0.09c0-0.01-0.01-0.03-0.01-0.04c0.01,0.03,0.01,0.07,0.01,0.1c0-0.01,0-0.03,0-0.04
			c-0.01,0.03-0.01,0.07-0.01,0.1c0-0.01,0.01-0.02,0.01-0.04c-0.01,0.03-0.04,0.06-0.06,0.09c0.01-0.01,0.01-0.03,0.03-0.04
			c-0.03,0.03-0.06,0.05-0.09,0.08c0.01-0.01,0.03-0.02,0.04-0.03c-0.04,0.02-0.07,0.04-0.11,0.06c0.01-0.01,0.03-0.02,0.06-0.02
			c-0.04,0.01-0.09,0.03-0.13,0.04c0.03-0.01,0.06-0.01,0.07-0.02c-0.04,0.01-0.1,0.01-0.14,0.01c0.04,0,0.07,0,0.11,0
			c-0.04-0.01-0.1-0.01-0.14-0.01c0.04,0.01,0.07,0.01,0.11,0.02c-0.04-0.01-0.09-0.03-0.13-0.04c0.03,0.01,0.06,0.02,0.09,0.04
			c-0.04-0.02-0.07-0.04-0.11-0.06c0.03,0.01,0.04,0.03,0.06,0.04c-0.03-0.03-0.06-0.05-0.09-0.08c0.01,0.01,0.03,0.02,0.03,0.04
			c-0.01-0.03-0.04-0.06-0.06-0.09c0.01,0.01,0.01,0.03,0.01,0.04c-0.01-0.03-0.01-0.07-0.01-0.1c0,0.01,0,0.03,0,0.04
			c0.01-0.03,0.01-0.07,0.01-0.1C5.88,23.23,5.88,23.24,5.87,23.24c-0.03,0.05-0.03,0.1-0.01,0.14c0,0.05,0.03,0.1,0.07,0.13
			c0.03,0.04,0.09,0.08,0.14,0.11c0.06,0.03,0.11,0.06,0.18,0.07c0.06,0.01,0.1,0.02,0.14,0.02c0.1,0,0.18-0.02,0.28-0.05
			c0.11-0.05,0.21-0.13,0.26-0.22c0.06-0.13,0.03-0.28-0.07-0.4c-0.03-0.04-0.07-0.07-0.1-0.1c-0.01-0.01-0.03-0.02-0.03-0.03
			c-0.06-0.04-0.11-0.07-0.18-0.1c-0.16-0.06-0.28-0.08-0.45-0.09c-0.07-0.01-0.17,0.01-0.24,0.02c-0.01,0-0.03,0.01-0.04,0.01
			c-0.06,0.01-0.11,0.03-0.17,0.05c-0.07,0.02-0.13,0.06-0.18,0.1c-0.09,0.07-0.14,0.13-0.18,0.21c-0.01,0.01-0.01,0.02-0.01,0.03
			c-0.01,0.04-0.01,0.08-0.03,0.12c0,0.01,0,0.01,0,0.02c0,0.02,0.01,0.05,0.01,0.07s0.01,0.04,0.01,0.07
			c0.01,0.04,0.04,0.08,0.07,0.12c0.03,0.05,0.09,0.09,0.13,0.13c0.01,0.01,0.03,0.01,0.03,0.02c0.04,0.03,0.1,0.06,0.16,0.08
			c0.07,0.03,0.14,0.05,0.21,0.07c0.07,0.02,0.16,0.02,0.24,0.03c0.04,0,0.07,0,0.11,0c0.06-0.01,0.13-0.01,0.2-0.02
			c0.06-0.01,0.11-0.03,0.17-0.05c0.07-0.02,0.13-0.06,0.18-0.1c0.09-0.07,0.16-0.13,0.18-0.22c0.03-0.05,0.03-0.1,0.01-0.14
			c0-0.05-0.03-0.1-0.07-0.13c-0.03-0.04-0.09-0.08-0.14-0.11c-0.06-0.03-0.11-0.06-0.18-0.07C6.52,23,6.47,23,6.42,23
			c-0.1,0-0.18,0.02-0.28,0.05C6.01,23.08,5.91,23.15,5.87,23.24L5.87,23.24z"/>
	</g>
</g>
<g>
	<g>
		<path d="M11.63,15.55c0.06,0.06,0.11,0.11,0.17,0.16c0.03,0.04,0.09,0.08,0.14,0.11c0.04,0.03,0.11,0.06,0.18,0.07
			c0.07,0.02,0.14,0.02,0.21,0.01c0.07,0,0.14-0.02,0.2-0.05c0.04-0.02,0.07-0.04,0.11-0.06c0.07-0.05,0.11-0.11,0.14-0.16
			c0.01-0.03,0.01-0.07,0.01-0.1c0-0.07-0.03-0.13-0.07-0.19c-0.06-0.06-0.11-0.11-0.17-0.16c-0.03-0.04-0.09-0.08-0.14-0.11
			c-0.06-0.03-0.11-0.06-0.18-0.07c-0.07-0.02-0.14-0.02-0.21-0.01c-0.07,0-0.14,0.02-0.2,0.05c-0.04,0.02-0.07,0.04-0.11,0.06
			c-0.07,0.05-0.11,0.11-0.14,0.16c-0.01,0.04-0.01,0.07-0.01,0.11C11.56,15.43,11.57,15.5,11.63,15.55L11.63,15.55z"/>
	</g>
</g>
<g>
	<g>
		<path d="M13.13,16.65c0.13,0.1,0.27,0.19,0.41,0.29c0.06,0.04,0.11,0.06,0.17,0.08c0.07,0.02,0.13,0.04,0.21,0.03
			c0.07,0,0.14-0.01,0.21-0.03c0.07-0.02,0.13-0.04,0.17-0.08c0.03-0.03,0.06-0.05,0.09-0.08c0.06-0.06,0.07-0.13,0.07-0.19
			c-0.01-0.03-0.01-0.07-0.01-0.1c-0.03-0.06-0.07-0.12-0.14-0.16c-0.13-0.1-0.27-0.19-0.41-0.29c-0.06-0.04-0.11-0.06-0.17-0.08
			c-0.07-0.02-0.13-0.04-0.21-0.03c-0.07,0-0.14,0.01-0.21,0.03c-0.07,0.02-0.13,0.04-0.17,0.08c-0.03,0.03-0.06,0.05-0.09,0.08
			c-0.06,0.06-0.07,0.13-0.07,0.19c0.01,0.03,0.01,0.07,0.01,0.1C13.02,16.55,13.06,16.6,13.13,16.65L13.13,16.65z"/>
	</g>
</g>
<g>
	<g>
		<path d="M14.18,13.8c0.33-0.11,0.58-0.35,0.65-0.59c0.04-0.14,0.04-0.28-0.01-0.42c-0.06-0.13-0.16-0.26-0.3-0.37
			c-0.1-0.07-0.26-0.11-0.38-0.11s-0.3,0.04-0.38,0.11c-0.2,0.15-0.21,0.38,0,0.52c0.01,0.01,0.03,0.02,0.04,0.04
			c-0.03-0.03-0.06-0.05-0.09-0.08c0.03,0.03,0.06,0.06,0.09,0.1c-0.01-0.03-0.04-0.06-0.06-0.09c0.03,0.04,0.04,0.08,0.06,0.13
			c-0.01-0.03-0.01-0.07-0.01-0.1c0.01,0.05,0.01,0.1,0,0.14c0.01-0.03,0.01-0.07,0.01-0.1c-0.01,0.05-0.03,0.1-0.06,0.14
			c0.01-0.03,0.04-0.06,0.06-0.09c-0.03,0.05-0.06,0.09-0.1,0.13c0.03-0.03,0.06-0.05,0.09-0.08c-0.03,0.03-0.07,0.06-0.11,0.08
			c0.04-0.02,0.07-0.04,0.11-0.06c-0.04,0.02-0.09,0.04-0.13,0.05c-0.11,0.04-0.21,0.14-0.26,0.22c-0.04,0.09-0.01,0.21,0.06,0.29
			c0.07,0.08,0.18,0.14,0.33,0.17c0.04,0.01,0.1,0.01,0.14,0.01C14.01,13.86,14.11,13.84,14.18,13.8L14.18,13.8z"/>
	</g>
</g>
<g>
	<g>
		<path d="M12.24,17.63c0.07-0.05,0.13-0.1,0.2-0.14c0.06-0.04,0.09-0.08,0.11-0.12c0.03-0.05,0.06-0.09,0.04-0.14
			c0-0.05-0.01-0.1-0.04-0.14c-0.03-0.05-0.06-0.09-0.11-0.12c-0.04-0.02-0.07-0.04-0.11-0.06c-0.09-0.04-0.18-0.05-0.28-0.05
			c-0.04,0.01-0.1,0.01-0.14,0.01c-0.09,0.02-0.17,0.05-0.24,0.1c-0.07,0.05-0.13,0.1-0.2,0.14c-0.06,0.04-0.09,0.08-0.11,0.12
			c-0.03,0.05-0.06,0.09-0.04,0.14c0,0.05,0.01,0.1,0.04,0.14c0.03,0.05,0.06,0.09,0.11,0.12c0.04,0.02,0.07,0.04,0.11,0.06
			c0.09,0.04,0.18,0.05,0.28,0.05c0.04-0.01,0.1-0.01,0.14-0.01C12.08,17.72,12.17,17.68,12.24,17.63L12.24,17.63z"/>
	</g>
</g>
<g>
	<g>
		<path d="M9.87,25.6c0.01-0.14,0.01-0.31-0.06-0.44c-0.06-0.11-0.13-0.21-0.26-0.29c-0.06-0.04-0.11-0.07-0.18-0.1
			c-0.11-0.05-0.21-0.06-0.34-0.07c-0.24-0.02-0.52,0.07-0.69,0.19c-0.13,0.1-0.21,0.21-0.21,0.34c0,0.13,0.07,0.25,0.21,0.35
			c0.1,0.07,0.26,0.12,0.38,0.11c0.04-0.01,0.1-0.01,0.14-0.01c0.09-0.02,0.17-0.05,0.24-0.1c0.13-0.08,0.23-0.19,0.27-0.3
			c0.04-0.12,0.04-0.24,0-0.36c-0.07-0.23-0.35-0.43-0.69-0.49c-0.11-0.02-0.24-0.02-0.35,0.02c-0.1,0.03-0.21,0.08-0.26,0.15
			c-0.09,0.13-0.13,0.24-0.14,0.39C7.91,25.1,7.94,25.2,8,25.3c0.11,0.22,0.33,0.42,0.62,0.54c0.13,0.05,0.28,0.07,0.43,0.04
			c0.13-0.03,0.27-0.09,0.33-0.17c0.07-0.09,0.1-0.19,0.06-0.29c-0.04-0.09-0.13-0.17-0.26-0.22c-0.03-0.03-0.06-0.04-0.1-0.06
			c0.04,0.02,0.07,0.04,0.11,0.06c-0.06-0.03-0.1-0.06-0.14-0.1c0.03,0.03,0.06,0.05,0.09,0.08c-0.04-0.04-0.09-0.09-0.11-0.13
			c0.01,0.03,0.04,0.06,0.06,0.09c-0.03-0.05-0.06-0.11-0.06-0.15c0.01,0.03,0.01,0.07,0.01,0.1c-0.01-0.05-0.01-0.1,0-0.14
			c-0.01,0.03-0.01,0.07-0.01,0.1c0.01-0.04,0.03-0.09,0.04-0.13C9.05,24.93,9.02,24.96,9,24.99c0-0.01,0.01-0.01,0.01-0.02
			c-0.2,0.06-0.41,0.12-0.61,0.17c0.01,0,0.03,0.01,0.06,0.01c-0.04-0.01-0.09-0.03-0.13-0.04c0.03,0.01,0.06,0.02,0.09,0.04
			c-0.04-0.02-0.07-0.04-0.11-0.06c0.03,0.02,0.06,0.03,0.07,0.05c-0.03-0.03-0.06-0.05-0.09-0.08c0.03,0.02,0.04,0.05,0.07,0.08
			c-0.01-0.03-0.04-0.06-0.06-0.09c0.01,0.03,0.03,0.06,0.04,0.1c-0.01-0.03-0.01-0.07-0.01-0.1c0.01,0.03,0.01,0.07,0,0.1
			c0.01-0.03,0.01-0.07,0.01-0.1c-0.01,0.03-0.01,0.05-0.03,0.08c0.01-0.03,0.04-0.06,0.06-0.09c-0.01,0.02-0.03,0.04-0.06,0.06
			c0.03-0.03,0.06-0.05,0.09-0.08c-0.01,0.02-0.04,0.03-0.06,0.04c0.26,0,0.51,0,0.77,0C9.1,25.06,9.1,25.06,9.1,25.06
			c0.03,0.03,0.06,0.05,0.09,0.08c-0.01-0.01-0.01-0.02-0.03-0.03c0.01,0.03,0.04,0.06,0.06,0.09c0-0.01-0.01-0.02-0.01-0.03
			c0.01,0.03,0.01,0.07,0.01,0.1c0-0.01,0-0.02,0-0.03C9.2,25.26,9.2,25.3,9.2,25.33c0-0.01,0.01-0.02,0.01-0.03
			c-0.01,0.03-0.04,0.06-0.06,0.09c0.01-0.02,0.03-0.03,0.03-0.04c-0.03,0.03-0.06,0.05-0.09,0.08c0.01-0.02,0.04-0.03,0.06-0.04
			c-0.04,0.02-0.07,0.04-0.11,0.06c0.03-0.01,0.06-0.03,0.09-0.04C9.09,25.41,9.05,25.43,9,25.44c0.03-0.01,0.06-0.01,0.09-0.02
			c-0.04,0.01-0.1,0.01-0.14,0.01c0.03,0,0.06,0,0.09,0c-0.04-0.01-0.1-0.01-0.14-0.01c0.03,0,0.04,0.01,0.06,0.01
			c-0.04-0.01-0.09-0.03-0.13-0.04c0.01,0.01,0.03,0.01,0.04,0.02c-0.04-0.02-0.07-0.04-0.11-0.06c0.03,0.02,0.06,0.04,0.09,0.06
			c-0.03-0.03-0.06-0.05-0.09-0.08c0.03,0.02,0.04,0.04,0.06,0.07c-0.01-0.03-0.04-0.06-0.06-0.09c0.03,0.04,0.04,0.08,0.04,0.12
			c-0.01-0.03-0.01-0.07-0.01-0.1c0.01,0.09,0.01,0.17,0,0.26s0.07,0.2,0.16,0.26c0.1,0.07,0.26,0.12,0.38,0.11
			c0.14-0.01,0.28-0.04,0.38-0.11C9.81,25.78,9.86,25.69,9.87,25.6L9.87,25.6z"/>
	</g>
</g>
<g>
	<g>
		<path d="M6.18,27.21c0.1-0.12,0.14-0.24,0.16-0.37c0.01-0.07-0.01-0.13-0.03-0.19c0-0.05-0.01-0.09-0.04-0.12
			c-0.07-0.13-0.16-0.23-0.3-0.33c-0.13-0.1-0.3-0.15-0.48-0.2c-0.13-0.03-0.31-0.01-0.43,0.04c-0.11,0.05-0.23,0.13-0.26,0.22
			c-0.03,0.1-0.03,0.2,0.06,0.29c0.09,0.09,0.18,0.13,0.33,0.17c0.01,0,0.03,0.01,0.03,0.01c-0.04-0.01-0.09-0.03-0.13-0.04
			c0.04,0.02,0.09,0.03,0.13,0.05c-0.04-0.02-0.07-0.04-0.11-0.06c0.04,0.02,0.09,0.05,0.11,0.08c-0.03-0.03-0.06-0.05-0.09-0.08
			c0.04,0.04,0.07,0.07,0.1,0.12c-0.01-0.03-0.04-0.06-0.06-0.09c0.03,0.04,0.04,0.08,0.06,0.13c-0.01-0.03-0.01-0.07-0.01-0.1
			c0.01,0.04,0.01,0.09,0,0.13c0.01-0.03,0.01-0.07,0.01-0.1c-0.01,0.04-0.03,0.07-0.04,0.11c0.01-0.03,0.04-0.06,0.06-0.09
			c-0.01,0.02-0.03,0.04-0.04,0.05c-0.07,0.08-0.09,0.19-0.06,0.29c0.04,0.09,0.13,0.17,0.26,0.22c0.13,0.05,0.28,0.07,0.43,0.04
			C5.98,27.34,6.11,27.28,6.18,27.21L6.18,27.21z"/>
	</g>
</g>
<g>
	<g>
		<path d="M16.14,14.15c-0.03,0.09-0.04,0.17-0.03,0.26c0.01,0.06,0.01,0.12,0.04,0.17c0.03,0.06,0.06,0.12,0.1,0.16
			c0.06,0.08,0.13,0.14,0.21,0.21c0.04,0.03,0.1,0.06,0.14,0.09c0.06,0.03,0.1,0.06,0.17,0.08c0.04,0.01,0.09,0.03,0.13,0.04
			c0.04,0.01,0.1,0.01,0.14,0.01c0.04-0.01,0.1-0.01,0.14-0.01c0.07-0.01,0.13-0.04,0.18-0.07c0.04-0.02,0.07-0.04,0.1-0.07
			c0.03-0.02,0.06-0.05,0.07-0.08c0.03-0.03,0.04-0.06,0.04-0.1c0.01-0.05,0.01-0.1-0.01-0.14c-0.04-0.13-0.11-0.25-0.2-0.36
			c-0.13-0.15-0.35-0.29-0.61-0.33c-0.27-0.05-0.57,0-0.75,0.14c-0.16,0.12-0.26,0.26-0.24,0.42c0.01,0.13,0.07,0.24,0.2,0.33
			c0.07,0.05,0.13,0.08,0.21,0.1c0.03,0.01,0.06,0.02,0.1,0.03c0.06,0.01,0.11,0.02,0.18,0.02c0.14,0,0.28-0.04,0.38-0.11
			c0.1-0.07,0.17-0.17,0.16-0.26c-0.01-0.1-0.06-0.19-0.16-0.26c-0.1-0.07-0.24-0.11-0.38-0.11c-0.01,0-0.01,0-0.03,0
			c0.04,0.01,0.1,0.01,0.14,0.01c-0.01,0-0.03,0-0.04-0.01c0.04,0.01,0.09,0.03,0.13,0.04c-0.01,0-0.01-0.01-0.03-0.01
			c0.04,0.02,0.07,0.04,0.11,0.06c-0.01-0.01-0.01-0.01-0.03-0.02c0.03,0.03,0.06,0.05,0.09,0.08c-0.01-0.01-0.01-0.01-0.01-0.02
			c0.01,0.03,0.04,0.06,0.06,0.09c-0.01-0.01-0.01-0.02-0.01-0.03c0.01,0.03,0.01,0.07,0.01,0.1c0-0.02,0-0.03,0-0.05
			c-0.01,0.03-0.01,0.07-0.01,0.1c0-0.02,0.01-0.05,0.03-0.07c-0.01,0.03-0.04,0.06-0.06,0.09c0.01-0.02,0.03-0.04,0.04-0.06
			c-0.03,0.03-0.06,0.05-0.09,0.08c0.01-0.02,0.03-0.03,0.06-0.04c-0.04,0.02-0.07,0.04-0.11,0.06c0.01-0.01,0.03-0.02,0.04-0.02
			c-0.04,0.01-0.09,0.03-0.13,0.04c0.01-0.01,0.03-0.01,0.06-0.01c-0.04,0.01-0.1,0.01-0.14,0.01c0.01,0,0.03,0,0.06,0
			c-0.04-0.01-0.1-0.01-0.14-0.01c0.03,0,0.06,0.01,0.09,0.02c-0.04-0.01-0.09-0.03-0.13-0.04c0.03,0.01,0.06,0.02,0.09,0.04
			c-0.04-0.02-0.07-0.04-0.11-0.06c0.04,0.02,0.07,0.04,0.1,0.07c-0.03-0.03-0.06-0.05-0.09-0.08c0.04,0.04,0.07,0.08,0.1,0.13
			c-0.01-0.03-0.04-0.06-0.06-0.09c0.04,0.06,0.07,0.13,0.09,0.19c0.27-0.13,0.54-0.28,0.79-0.41c-0.04-0.01-0.07-0.03-0.1-0.05
			c0.04,0.02,0.07,0.04,0.11,0.06c-0.04-0.03-0.09-0.06-0.13-0.09c0.03,0.03,0.06,0.05,0.09,0.08c-0.04-0.04-0.07-0.08-0.1-0.12
			c0.01,0.03,0.04,0.06,0.06,0.09c-0.03-0.05-0.04-0.09-0.06-0.13c0.01,0.03,0.01,0.07,0.01,0.1c-0.01-0.04-0.01-0.09,0-0.13
			c-0.01,0.03-0.01,0.07-0.01,0.1c0-0.02,0.01-0.03,0.01-0.05c0.03-0.1,0.01-0.2-0.06-0.29c-0.07-0.08-0.2-0.15-0.33-0.17
			c-0.14-0.02-0.3-0.02-0.43,0.04C16.28,13.98,16.18,14.05,16.14,14.15L16.14,14.15z"/>
	</g>
</g>
<g>
	<g>
		<path d="M17.98,11.5c0.04-0.07,0.04-0.17,0-0.24c-0.01-0.04-0.04-0.08-0.07-0.11c-0.09-0.08-0.1-0.1-0.21-0.14
			C17.69,11,17.67,11,17.67,11c-0.04-0.02-0.1-0.03-0.14-0.04c-0.01,0-0.01,0-0.03-0.01c-0.06-0.01-0.11-0.02-0.18-0.02
			c-0.01,0-0.03,0-0.04,0c-0.06,0-0.11,0.01-0.17,0.02c-0.01,0-0.01,0-0.03,0c-0.01,0-0.01,0-0.01,0.01
			C17,10.97,16.96,10.99,16.9,11c-0.07,0.02-0.13,0.05-0.17,0.09c-0.09,0.07-0.16,0.13-0.17,0.23c-0.01,0.04-0.03,0.1-0.01,0.14
			c0.01,0.05,0.01,0.1,0.03,0.14c0.01,0.02,0.03,0.05,0.04,0.07c0.01,0.02,0.03,0.05,0.04,0.07c0.01,0.02,0.03,0.04,0.04,0.05
			c0.06,0.06,0.13,0.12,0.2,0.17c0.06,0.04,0.11,0.06,0.17,0.08c0.07,0.02,0.13,0.04,0.21,0.03c0.07,0,0.14-0.01,0.21-0.03
			c0.07-0.02,0.13-0.04,0.17-0.08c0.03-0.03,0.06-0.05,0.09-0.08c0.06-0.06,0.07-0.13,0.07-0.19c-0.01-0.03-0.01-0.07-0.01-0.1
			c-0.03-0.06-0.07-0.12-0.14-0.16c-0.03-0.02-0.06-0.04-0.07-0.06c0.03,0.03,0.06,0.05,0.09,0.08c-0.04-0.04-0.07-0.07-0.1-0.12
			c0.01,0.03,0.04,0.06,0.06,0.09c-0.01-0.02-0.03-0.04-0.03-0.07c0.01,0.03,0.01,0.07,0.01,0.1c0-0.02,0-0.03,0-0.05
			c-0.01,0.03-0.01,0.07-0.01,0.1c0-0.02,0.01-0.03,0.01-0.04c-0.01,0.03-0.04,0.06-0.06,0.09c0-0.01,0.01-0.02,0.01-0.02
			c-0.03,0.03-0.06,0.05-0.09,0.08c0.01-0.01,0.01-0.01,0.03-0.02c-0.04,0.02-0.07,0.04-0.11,0.06c0.01-0.01,0.03-0.01,0.04-0.02
			c-0.04,0.01-0.09,0.03-0.13,0.04c0.01-0.01,0.04-0.01,0.06-0.01c-0.04,0.01-0.1,0.01-0.14,0.01c0.03,0,0.04,0,0.07,0
			c-0.03,0-0.09,0-0.13-0.01c0.01,0.01,0.03,0.01,0.04,0.01c-0.04-0.01-0.09-0.03-0.13-0.04c0.01,0,0.03,0.01,0.03,0.01
			c-0.04-0.02-0.07-0.04-0.11-0.06c0.01,0.01,0.01,0.01,0.01,0.01c-0.03-0.03-0.06-0.05-0.09-0.08c0,0.01,0.01,0.01,0.01,0.01
			c-0.01-0.03-0.04-0.06-0.06-0.09c0,0.01,0,0.01,0.01,0.02c-0.01-0.03-0.01-0.07-0.01-0.1c0,0.01,0,0.01,0,0.02
			c0.01-0.03,0.01-0.07,0.01-0.1c0,0.01,0,0.01-0.01,0.02c-0.03,0.05-0.03,0.1-0.01,0.14c0,0.05,0.03,0.1,0.07,0.13
			c0.03,0.04,0.09,0.08,0.14,0.11c0.06,0.03,0.11,0.06,0.18,0.07c0.04,0.01,0.1,0.01,0.14,0.01c0.1,0,0.18-0.02,0.28-0.05
			c0.04-0.02,0.07-0.04,0.11-0.06C17.91,11.62,17.95,11.56,17.98,11.5L17.98,11.5z"/>
	</g>
</g>
<g>
	<g>
		<path d="M15.23,9.77c0.17-0.07,0.33-0.13,0.47-0.22c0.06-0.04,0.1-0.08,0.14-0.12c0.04-0.04,0.07-0.09,0.1-0.13
			c0.03-0.05,0.03-0.1,0.04-0.14C16,9.11,15.97,9.05,15.95,9c-0.04-0.12-0.16-0.21-0.3-0.28s-0.33-0.07-0.5-0.04
			C15.09,8.69,15,8.72,14.95,8.75c-0.11,0.06-0.18,0.1-0.26,0.17c-0.11,0.13-0.11,0.29-0.01,0.41c0.06,0.06,0.13,0.12,0.21,0.14
			c0.1,0.04,0.2,0.05,0.33,0.06c0.07,0,0.14-0.01,0.21-0.03c0.07-0.02,0.13-0.04,0.17-0.08c0.06-0.04,0.09-0.08,0.11-0.12
			c0.03-0.05,0.06-0.09,0.04-0.14c-0.01-0.03-0.01-0.07-0.01-0.1c-0.03-0.06-0.07-0.12-0.14-0.16c-0.04-0.02-0.07-0.04-0.11-0.06
			C15.4,8.82,15.3,8.81,15.2,8.81h-0.01c0.04,0.01,0.1,0.01,0.14,0.01c-0.01,0-0.01,0-0.03-0.01c0.04,0.01,0.09,0.03,0.13,0.04
			c0,0-0.01,0-0.01-0.01c0.04,0.02,0.07,0.04,0.11,0.06c0,0,0,0-0.01-0.01c0.03,0.03,0.06,0.05,0.09,0.08V8.95
			c0.01,0.03,0.04,0.06,0.06,0.09V9.03c0.01,0.03,0.01,0.07,0.01,0.1V9.12c0,0.04,0,0.08,0,0.11c0-0.01,0-0.01,0.01-0.02
			c-0.01,0.03-0.04,0.06-0.06,0.09c0-0.01,0.01-0.02,0.03-0.02c-0.03,0.03-0.06,0.05-0.09,0.08c0.01-0.01,0.03-0.02,0.04-0.03
			c-0.04,0.02-0.07,0.04-0.11,0.06c0.01-0.01,0.04-0.02,0.06-0.02c-0.04,0.01-0.09,0.03-0.13,0.04c0.01-0.01,0.03-0.01,0.04-0.01
			c-0.04,0.01-0.1,0.01-0.14,0.01c0.01,0,0.01,0,0.03,0c-0.04-0.01-0.1-0.01-0.14-0.01c0.01,0,0.01,0,0.03,0.01
			c-0.04-0.01-0.09-0.03-0.13-0.04c0.01,0,0.01,0.01,0.01,0.01c-0.04-0.02-0.07-0.04-0.11-0.06c0.01,0,0.01,0.01,0.01,0.01
			C15,9.29,14.98,9.27,14.95,9.24c0,0.01,0.01,0.01,0.01,0.02c-0.01-0.03-0.04-0.06-0.06-0.09c0.01,0.01,0.01,0.03,0.01,0.04
			c-0.01-0.03-0.01-0.07-0.01-0.1c0,0.01,0,0.03,0,0.04c0.01-0.03,0.01-0.07,0.01-0.1c0,0.02-0.01,0.03-0.03,0.05
			c0.01-0.03,0.04-0.06,0.06-0.09c-0.01,0.02-0.03,0.04-0.04,0.06c0.03-0.03,0.06-0.05,0.09-0.08c-0.04,0.03-0.09,0.06-0.13,0.09
			c0.04-0.02,0.07-0.04,0.11-0.06c-0.09,0.05-0.18,0.08-0.28,0.12c-0.06,0.02-0.11,0.06-0.16,0.1c-0.04,0.04-0.09,0.08-0.1,0.13
			c-0.03,0.05-0.03,0.1-0.01,0.14c0,0.05,0.03,0.1,0.07,0.13c0.07,0.07,0.18,0.14,0.33,0.16c0.04,0.01,0.1,0.01,0.14,0.01
			C15.05,9.82,15.15,9.81,15.23,9.77L15.23,9.77z"/>
	</g>
</g>
<g>
	<g>
		<path d="M38.52,57.73c0.01,0.01,0.01,0.03,0.01,0.04c-0.01-0.03-0.01-0.07-0.01-0.1C38.52,57.68,38.52,57.7,38.52,57.73
			c0-0.04,0.01-0.08,0.01-0.11c0,0.02-0.01,0.04-0.03,0.05c0.01-0.03,0.04-0.06,0.06-0.09c-0.01,0.02-0.03,0.05-0.06,0.07
			c0.03-0.03,0.06-0.05,0.09-0.08c-0.03,0.02-0.04,0.03-0.07,0.05c0.04-0.02,0.07-0.04,0.11-0.06c-0.03,0.01-0.06,0.03-0.09,0.03
			c0.04-0.01,0.09-0.03,0.13-0.04c-0.03,0.01-0.06,0.01-0.07,0.02c0.04-0.01,0.1-0.01,0.14-0.01c-0.03,0-0.06,0-0.09,0
			c0.04,0.01,0.1,0.01,0.14,0.01c-0.01,0-0.01,0-0.03-0.01c-0.17-0.03-0.34-0.01-0.48,0.07c-0.13,0.07-0.23,0.17-0.21,0.29
			c0.01,0.15,0.07,0.3,0.18,0.43s0.27,0.23,0.45,0.32c0.16,0.07,0.4,0.08,0.55,0c0.1-0.05,0.17-0.09,0.23-0.15
			c0.04-0.04,0.06-0.08,0.09-0.13c0.04-0.1,0.03-0.19,0-0.29c-0.03-0.07-0.07-0.13-0.11-0.19c-0.04-0.04-0.07-0.08-0.1-0.13
			c0.01,0.03,0.04,0.06,0.06,0.09c-0.01-0.02-0.03-0.04-0.03-0.07c0.01,0.03,0.01,0.07,0.01,0.1c0-0.02,0-0.03,0-0.04
			c-0.01,0.03-0.01,0.07-0.01,0.1c0-0.01,0.01-0.02,0.01-0.03c-0.01,0.03-0.04,0.06-0.06,0.09c0.01-0.01,0.01-0.02,0.03-0.03
			c-0.03,0.03-0.06,0.05-0.09,0.08l0.01-0.01c-0.04,0.02-0.07,0.04-0.11,0.06c0.01,0,0.01-0.01,0.03-0.01
			c-0.04,0.01-0.09,0.03-0.13,0.04h0.01c-0.04,0.01-0.1,0.01-0.14,0.01c0.01,0,0.03,0,0.03,0c-0.04-0.01-0.1-0.01-0.14-0.01
			c0.01,0,0.03,0.01,0.03,0.01c-0.04-0.01-0.09-0.03-0.13-0.04c0.01,0.01,0.03,0.01,0.04,0.02c-0.04-0.02-0.07-0.04-0.11-0.06
			c0.01,0.01,0.03,0.01,0.03,0.02c-0.03-0.03-0.06-0.05-0.09-0.08c0,0.01,0.01,0.01,0.01,0.01c-0.01-0.03-0.04-0.06-0.06-0.09
			c0,0.01,0,0.01,0.01,0.01c-0.01-0.03-0.01-0.07-0.01-0.1v0.01c0.01-0.03,0.01-0.07,0.01-0.1v0.01c0.01-0.03,0.04-0.06,0.06-0.09
			c0,0,0,0.01-0.01,0.01c0.03-0.03,0.06-0.05,0.09-0.08l-0.01,0.01c0.04-0.02,0.07-0.04,0.11-0.06l-0.01,0.01
			c0.04-0.01,0.09-0.03,0.13-0.04h-0.01c-0.13,0.03-0.26,0.09-0.33,0.17c-0.07,0.08-0.1,0.2-0.06,0.29
			c0.04,0.09,0.13,0.17,0.26,0.22c0.13,0.05,0.28,0.07,0.43,0.04c0.11-0.03,0.18-0.05,0.27-0.11c0.07-0.05,0.13-0.12,0.16-0.17
			c0.04-0.11,0.01-0.23-0.07-0.33c-0.16-0.17-0.47-0.27-0.77-0.22c-0.17,0.03-0.31,0.11-0.38,0.2c-0.1,0.12-0.11,0.25-0.07,0.38
			c0.03,0.07,0.07,0.13,0.11,0.2c0.03,0.04,0.07,0.08,0.1,0.12c-0.01-0.03-0.04-0.06-0.06-0.09c0.01,0.03,0.03,0.05,0.03,0.08
			c-0.01-0.03-0.01-0.07-0.01-0.1c0,0.02,0,0.04,0,0.06c0.01-0.03,0.01-0.07,0.01-0.1c0,0.01-0.01,0.02-0.01,0.03
			c0.01-0.03,0.04-0.06,0.06-0.09c0,0.01-0.01,0.02-0.01,0.02c0.03-0.03,0.06-0.05,0.09-0.08c-0.01,0.01-0.01,0.01-0.03,0.02
			c0.04-0.02,0.07-0.04,0.11-0.06c0,0-0.01,0-0.01,0.01c0.18,0,0.37,0,0.55,0c-0.01-0.01-0.04-0.02-0.06-0.03
			c0.04,0.02,0.07,0.04,0.11,0.06c-0.06-0.03-0.1-0.06-0.14-0.11c0.03,0.03,0.06,0.05,0.09,0.08c-0.04-0.04-0.07-0.08-0.1-0.13
			c0.01,0.03,0.04,0.06,0.06,0.09c-0.03-0.05-0.04-0.09-0.06-0.13c0.01,0.03,0.01,0.07,0.01,0.1c0-0.02,0-0.03,0-0.05
			c-0.23,0.12-0.47,0.24-0.69,0.36c0.3,0.05,0.64-0.01,0.85-0.16c0.21-0.15,0.33-0.38,0.21-0.58c-0.04-0.09-0.13-0.17-0.26-0.22
			c-0.11-0.05-0.3-0.07-0.43-0.04s-0.26,0.09-0.33,0.17C38.51,57.52,38.46,57.63,38.52,57.73L38.52,57.73z"/>
	</g>
</g>
<g>
	<g>
		<path d="M40.09,55.9c0.23,0.19,0.44,0.38,0.67,0.57c0.06,0.04,0.11,0.06,0.17,0.08c0.07,0.02,0.13,0.04,0.21,0.03
			c0.14-0.01,0.3-0.04,0.38-0.11c0.11-0.09,0.17-0.16,0.24-0.27c0.04-0.07,0.06-0.15,0.07-0.23c0.01-0.15-0.04-0.31-0.14-0.45
			c-0.04-0.07-0.11-0.13-0.2-0.18c-0.07-0.06-0.17-0.11-0.27-0.14c-0.16-0.06-0.31-0.08-0.48-0.05c-0.1,0.02-0.21,0.06-0.3,0.12
			c-0.13,0.09-0.2,0.2-0.21,0.34c0,0.05,0.01,0.11,0.03,0.14s0.04,0.1,0.09,0.13c0.06,0.07,0.14,0.13,0.24,0.16
			c0.04,0.02,0.1,0.04,0.16,0.05c0.04,0.01,0.11,0.02,0.16,0.02c0.01,0,0.01,0,0.03,0c0.07,0,0.14-0.01,0.21-0.03
			c0.07-0.02,0.13-0.04,0.17-0.08c0.1-0.07,0.17-0.17,0.16-0.26c-0.01-0.1-0.06-0.19-0.16-0.26c-0.1-0.06-0.24-0.12-0.38-0.11
			c-0.01,0-0.03,0-0.04,0c0.04,0.01,0.1,0.01,0.14,0.01c-0.01,0-0.01,0-0.03-0.01c0.04,0.01,0.09,0.03,0.13,0.04
			c-0.01,0-0.01-0.01-0.03-0.01c0.04,0.02,0.07,0.04,0.11,0.06c-0.01-0.01-0.03-0.01-0.03-0.02c0.03,0.03,0.06,0.05,0.09,0.08
			c-0.01-0.01-0.01-0.02-0.03-0.03c0.01,0.03,0.04,0.06,0.06,0.09c-0.01-0.01-0.01-0.02-0.01-0.04c0.01,0.03,0.01,0.07,0.01,0.1
			c0-0.02,0-0.03,0-0.04c-0.01,0.03-0.01,0.07-0.01,0.1c0-0.01,0.01-0.02,0.01-0.03c-0.01,0.03-0.04,0.06-0.06,0.09
			c0.01-0.01,0.01-0.02,0.03-0.03c-0.03,0.03-0.06,0.05-0.09,0.08c0-0.01,0.01-0.01,0.01-0.01c-0.04,0.02-0.07,0.04-0.11,0.06
			c0.01-0.01,0.01-0.01,0.03-0.01c-0.04,0.01-0.09,0.03-0.13,0.04c0.01,0,0.01,0,0.03-0.01c-0.04,0.01-0.1,0.01-0.14,0.01h0.01
			c-0.09-0.02-0.18-0.04-0.28-0.05c0.04,0.01,0.09,0.03,0.11,0.05c-0.04-0.02-0.07-0.04-0.11-0.06c0.04,0.02,0.09,0.05,0.11,0.08
			c-0.03-0.03-0.06-0.05-0.09-0.08c0.04,0.03,0.07,0.07,0.09,0.11c-0.01-0.03-0.04-0.06-0.06-0.09c0.03,0.04,0.04,0.09,0.06,0.13
			c-0.01-0.03-0.01-0.07-0.01-0.1c0.01,0.05,0.01,0.09,0,0.13c0.01-0.03,0.01-0.07,0.01-0.1c-0.01,0.04-0.03,0.08-0.04,0.12
			c0.01-0.03,0.04-0.06,0.06-0.09c-0.03,0.03-0.04,0.06-0.07,0.09c0.03-0.03,0.06-0.05,0.09-0.08c0,0.01-0.01,0.01-0.01,0.01
			c0.26,0,0.51,0,0.77,0c-0.23-0.19-0.44-0.38-0.67-0.57c-0.09-0.07-0.26-0.11-0.38-0.11s-0.3,0.04-0.38,0.11
			c-0.1,0.07-0.17,0.16-0.16,0.26c0.01,0.03,0.01,0.07,0.01,0.1C39.98,55.81,40.02,55.86,40.09,55.9L40.09,55.9z"/>
	</g>
</g>
<g>
	<g>
		<path d="M43.5,58.7c0.04-0.09,0.07-0.19,0.07-0.29s-0.01-0.2-0.06-0.3c-0.04-0.09-0.1-0.18-0.18-0.26
			c-0.06-0.05-0.11-0.11-0.17-0.14c-0.07-0.05-0.14-0.09-0.21-0.13c-0.06-0.03-0.13-0.04-0.2-0.05c-0.07-0.01-0.14-0.01-0.21,0.01
			c-0.04,0.01-0.09,0.03-0.13,0.04c-0.09,0.03-0.14,0.08-0.2,0.13c-0.16,0.15-0.18,0.35-0.13,0.52c0.06,0.17,0.23,0.33,0.45,0.42
			c0.11,0.05,0.28,0.06,0.43,0.04c0.13-0.03,0.27-0.09,0.33-0.17c0.07-0.09,0.1-0.19,0.06-0.29s-0.13-0.16-0.26-0.22
			c-0.01-0.01-0.03-0.01-0.03-0.02c0.04,0.02,0.07,0.04,0.11,0.06c-0.03-0.02-0.06-0.03-0.07-0.05c0.03,0.03,0.06,0.05,0.09,0.08
			c-0.03-0.02-0.04-0.05-0.07-0.08c0.01,0.03,0.04,0.06,0.06,0.09c-0.01-0.03-0.03-0.06-0.03-0.09c0.01,0.03,0.01,0.07,0.01,0.1
			c0-0.03,0-0.06,0-0.09c-0.01,0.03-0.01,0.07-0.01,0.1c0.01-0.03,0.01-0.05,0.03-0.08c-0.01,0.03-0.04,0.06-0.06,0.09
			c0.01-0.02,0.03-0.04,0.04-0.05c-0.24,0.05-0.5,0.09-0.75,0.13c0.01,0.01,0.01,0.01,0.03,0.01c-0.04-0.02-0.07-0.04-0.11-0.06
			c0.06,0.03,0.1,0.07,0.16,0.11c-0.03-0.03-0.06-0.05-0.09-0.08c0.04,0.04,0.09,0.09,0.11,0.13c-0.01-0.03-0.04-0.06-0.06-0.09
			c0.03,0.05,0.06,0.11,0.07,0.15c-0.01-0.03-0.01-0.07-0.01-0.1c0.01,0.06,0.01,0.11,0,0.16c0.01-0.03,0.01-0.07,0.01-0.1
			c-0.01,0.04-0.03,0.08-0.04,0.13c-0.04,0.09-0.01,0.21,0.06,0.29c0.07,0.08,0.2,0.15,0.33,0.17c0.14,0.02,0.3,0.02,0.43-0.04
			c0.04-0.02,0.07-0.04,0.11-0.06C43.43,58.81,43.47,58.77,43.5,58.7L43.5,58.7z"/>
	</g>
</g>
<g>
	<g>
		<path d="M44.95,55.61c-0.11,0.01-0.2,0.01-0.31,0.06c-0.04,0.02-0.1,0.04-0.13,0.07c-0.03,0.02-0.07,0.06-0.09,0.08
			c-0.01,0.02-0.04,0.07-0.06,0.1s-0.03,0.08-0.03,0.11c0,0.04,0.01,0.08,0.01,0.11c0.01,0.03,0.03,0.04,0.04,0.07
			c0.01,0.02,0.03,0.05,0.04,0.07c0.07,0.08,0.14,0.12,0.24,0.16c0.04,0.02,0.11,0.04,0.16,0.05h0.01c0.03,0.01,0.09,0.01,0.09,0.01
			c-0.01,0,0.06,0.01,0.09,0.01c0.01,0,0.01,0,0.01,0c0.06,0,0.11-0.01,0.16-0.02c0.04-0.01,0.1-0.03,0.14-0.04
			c0.04-0.02,0.09-0.04,0.13-0.07c0.01-0.01,0.01-0.01,0.01-0.01c0.03-0.03,0.07-0.06,0.1-0.09c0.01-0.02,0.03-0.04,0.04-0.06
			c0.01-0.02,0.03-0.04,0.04-0.07c0.01-0.04,0.01-0.08,0.03-0.12c0-0.01,0-0.01,0-0.02c0-0.04-0.01-0.08-0.03-0.12
			c0-0.01,0-0.02-0.01-0.03c-0.07-0.15-0.23-0.29-0.44-0.37c-0.04-0.01-0.09-0.03-0.13-0.04c-0.04-0.01-0.1-0.01-0.14-0.01
			c-0.04,0.01-0.1,0.01-0.14,0.01c-0.07,0.01-0.13,0.04-0.18,0.07c-0.04,0.02-0.07,0.04-0.1,0.07c-0.03,0.02-0.06,0.05-0.07,0.08
			c-0.03,0.03-0.04,0.06-0.04,0.1c-0.01,0.05-0.01,0.1,0.01,0.14c0.03,0.09,0.07,0.16,0.13,0.25c0.04,0.06,0.09,0.11,0.13,0.15
			c0.09,0.07,0.16,0.13,0.26,0.19c0.1,0.06,0.2,0.11,0.33,0.14c0.06,0.03,0.13,0.04,0.2,0.05s0.14,0.01,0.21-0.01
			c0.07-0.01,0.13-0.04,0.18-0.07s0.1-0.06,0.14-0.11c0.07-0.09,0.1-0.19,0.06-0.29c-0.01-0.03-0.04-0.06-0.06-0.09
			c-0.04-0.06-0.11-0.1-0.2-0.13c-0.07-0.02-0.14-0.05-0.2-0.08c0.04,0.02,0.07,0.04,0.11,0.06c-0.07-0.04-0.13-0.08-0.18-0.13
			c0.03,0.03,0.06,0.05,0.09,0.08c-0.06-0.05-0.1-0.11-0.13-0.15c0.01,0.03,0.04,0.06,0.06,0.09c-0.03-0.05-0.06-0.11-0.07-0.15
			c-0.27,0.13-0.54,0.28-0.79,0.41c0.03,0.01,0.04,0.02,0.06,0.03c-0.04-0.02-0.07-0.04-0.11-0.06c0.03,0.02,0.06,0.03,0.07,0.05
			c-0.03-0.03-0.06-0.05-0.09-0.08c0.01,0.02,0.03,0.04,0.04,0.05c-0.01-0.03-0.04-0.06-0.06-0.09c0.01,0.02,0.01,0.03,0.01,0.05
			c-0.01-0.03-0.01-0.07-0.01-0.1c0,0.01,0,0.03,0,0.04c0.01-0.03,0.01-0.07,0.01-0.1c0,0.01-0.01,0.02-0.01,0.03
			c0.01-0.03,0.04-0.06,0.06-0.09c-0.01,0.01-0.01,0.02-0.03,0.03c0.03-0.03,0.06-0.05,0.09-0.08c-0.01,0.01-0.01,0.01-0.03,0.02
			c0.04-0.02,0.07-0.04,0.11-0.06c-0.01,0-0.01,0.01-0.03,0.01c0.04-0.01,0.09-0.03,0.13-0.04h-0.01c0.04-0.01,0.1-0.01,0.14-0.01
			c-0.01,0-0.01,0-0.03,0c0.04,0.01,0.1,0.01,0.14,0.01c-0.01,0-0.01,0-0.03-0.01c0.04,0.01,0.09,0.03,0.13,0.04
			c-0.01-0.01-0.03-0.01-0.04-0.02c0.04,0.02,0.07,0.04,0.11,0.06c-0.01-0.01-0.03-0.02-0.04-0.03c0.03,0.03,0.06,0.05,0.09,0.08
			c-0.01-0.01-0.03-0.02-0.03-0.03c0.01,0.03,0.04,0.06,0.06,0.09c0-0.01-0.01-0.01-0.01-0.02c0.01,0.03,0.01,0.07,0.01,0.1
			c0-0.01,0-0.01,0-0.01c-0.01,0.03-0.01,0.07-0.01,0.1v-0.01c-0.01,0.03-0.04,0.06-0.06,0.09c0,0,0-0.01,0.01-0.01
			c-0.03,0.03-0.06,0.05-0.09,0.08l0.01-0.01c-0.04,0.02-0.07,0.04-0.11,0.06c0,0,0.01,0,0.01-0.01c-0.04,0.01-0.09,0.03-0.13,0.04
			c0.01,0,0.01,0,0.03-0.01c-0.04,0.01-0.1,0.01-0.14,0.01c0,0,0,0,0.01,0c0.07,0,0.14-0.01,0.21-0.03
			c0.07-0.02,0.13-0.04,0.17-0.08c0.06-0.04,0.09-0.08,0.11-0.12c0.03-0.05,0.06-0.09,0.04-0.14c-0.01-0.1-0.06-0.19-0.16-0.26
			C45.23,55.66,45.09,55.6,44.95,55.61L44.95,55.61z"/>
	</g>
</g>
<g>
	<g>
		<path d="M45.74,52.48c-0.2,0.23-0.17,0.54,0.06,0.76c0.11,0.11,0.24,0.2,0.43,0.26c0.14,0.05,0.24,0.07,0.41,0.08
			c0.1,0.01,0.2-0.01,0.3-0.02c0.24-0.05,0.4-0.19,0.4-0.36c0-0.1-0.01-0.19-0.04-0.28c-0.03-0.1-0.09-0.18-0.14-0.27
			c-0.04-0.06-0.09-0.12-0.14-0.16c-0.09-0.08-0.17-0.15-0.28-0.21c-0.11-0.06-0.24-0.12-0.38-0.11c-0.13,0.01-0.23,0.03-0.33,0.08
			c-0.09,0.05-0.17,0.12-0.2,0.19c-0.03,0.1-0.03,0.2,0.06,0.29c0.09,0.09,0.16,0.17,0.24,0.27c0.07,0.08,0.18,0.14,0.33,0.17
			c0.13,0.03,0.31,0.01,0.43-0.04c0.11-0.05,0.21-0.13,0.26-0.22c0.03-0.1,0.03-0.2-0.06-0.29c-0.09-0.09-0.16-0.17-0.24-0.27
			c-0.28,0.15-0.57,0.3-0.87,0.45c0.07,0.04,0.13,0.08,0.18,0.13c-0.03-0.03-0.06-0.05-0.09-0.08c0.07,0.06,0.11,0.13,0.17,0.19
			c-0.01-0.03-0.04-0.06-0.06-0.09c0.04,0.07,0.07,0.14,0.09,0.22c-0.01-0.03-0.01-0.07-0.01-0.1c0.01,0.04,0.01,0.09,0.01,0.13
			c0.13-0.12,0.27-0.24,0.4-0.36c-0.01,0-0.04,0.01-0.06,0.01c0.04-0.01,0.1-0.01,0.14-0.01c-0.04,0-0.07,0-0.1,0
			c0.04,0.01,0.1,0.01,0.14,0.01c-0.04-0.01-0.09-0.01-0.11-0.02c0.04,0.01,0.09,0.03,0.13,0.04c-0.04-0.01-0.09-0.03-0.11-0.05
			c0.04,0.02,0.07,0.04,0.11,0.06c-0.04-0.02-0.07-0.05-0.11-0.08c0.03,0.03,0.06,0.05,0.09,0.08c-0.03-0.03-0.06-0.06-0.09-0.1
			c0.01,0.03,0.04,0.06,0.06,0.09c-0.01-0.03-0.03-0.06-0.04-0.09c0.01,0.03,0.01,0.07,0.01,0.1c-0.01-0.03-0.01-0.06,0-0.09
			c-0.01,0.03-0.01,0.07-0.01,0.1c0.01-0.03,0.01-0.05,0.03-0.08c-0.01,0.03-0.04,0.06-0.06,0.09c0.01-0.01,0.01-0.03,0.03-0.04
			c0.07-0.08,0.09-0.19,0.06-0.29c-0.04-0.09-0.13-0.17-0.26-0.22c-0.13-0.05-0.28-0.07-0.43-0.04
			C45.92,52.34,45.81,52.39,45.74,52.48L45.74,52.48z"/>
	</g>
</g>
<g>
	<g>
		<path d="M48.82,51.42c-0.07,0.21-0.03,0.4,0.11,0.6c0.11,0.15,0.31,0.29,0.52,0.38c0.21,0.09,0.48,0.14,0.74,0.13
			c0.3-0.02,0.54-0.09,0.77-0.22c0.18-0.11,0.3-0.25,0.38-0.4c0.09-0.15,0.09-0.32,0.04-0.48c-0.07-0.32-0.48-0.58-0.94-0.65
			c-0.26-0.04-0.52-0.04-0.77,0.02c-0.3,0.07-0.52,0.18-0.69,0.36c-0.07,0.08-0.09,0.2-0.06,0.29c0.04,0.09,0.13,0.18,0.26,0.22
			c0.27,0.1,0.58,0.04,0.75-0.13c0.01-0.01,0.01-0.02,0.03-0.03c-0.03,0.03-0.06,0.05-0.09,0.08c0.04-0.03,0.09-0.06,0.13-0.09
			c-0.04,0.02-0.07,0.04-0.11,0.06c0.04-0.03,0.1-0.05,0.16-0.06c-0.04,0.01-0.09,0.03-0.13,0.04c0.07-0.02,0.14-0.04,0.23-0.04
			c-0.04,0.01-0.1,0.01-0.14,0.01c0.09-0.01,0.16-0.01,0.23,0c-0.04-0.01-0.1-0.01-0.14-0.01c0.07,0.01,0.16,0.02,0.23,0.04
			c-0.04-0.01-0.09-0.03-0.13-0.04c0.06,0.02,0.11,0.04,0.16,0.06c-0.04-0.02-0.07-0.04-0.11-0.06c0.04,0.02,0.09,0.05,0.11,0.08
			c-0.03-0.03-0.06-0.05-0.09-0.08c0.03,0.03,0.06,0.06,0.09,0.1c-0.01-0.03-0.04-0.06-0.06-0.09c0.03,0.04,0.04,0.09,0.06,0.13
			c-0.01-0.03-0.01-0.07-0.01-0.1c0.01,0.05,0.01,0.1,0,0.14c0.01-0.03,0.01-0.07,0.01-0.1c-0.01,0.05-0.03,0.11-0.07,0.15
			c0.01-0.03,0.04-0.06,0.06-0.09c-0.03,0.05-0.07,0.09-0.11,0.13c0.03-0.03,0.06-0.05,0.09-0.08c-0.04,0.04-0.1,0.08-0.16,0.11
			c0.04-0.02,0.07-0.04,0.11-0.06c-0.04,0.03-0.1,0.05-0.16,0.06c0.04-0.01,0.09-0.03,0.13-0.04c-0.06,0.02-0.11,0.03-0.17,0.03
			c0.04-0.01,0.1-0.01,0.14-0.01c-0.06,0.01-0.11,0.01-0.17,0c0.04,0.01,0.1,0.01,0.14,0.01c-0.06-0.01-0.13-0.02-0.18-0.04
			c0.04,0.01,0.09,0.03,0.13,0.04c-0.07-0.02-0.14-0.05-0.2-0.08c0.04,0.02,0.07,0.04,0.11,0.06c-0.06-0.03-0.11-0.07-0.17-0.12
			c0.03,0.03,0.06,0.05,0.09,0.08c-0.04-0.04-0.07-0.08-0.1-0.13c0.01,0.03,0.04,0.06,0.06,0.09c-0.03-0.05-0.04-0.09-0.06-0.13
			c0.01,0.03,0.01,0.07,0.01,0.1c-0.01-0.04-0.01-0.08,0-0.12c-0.01,0.03-0.01,0.07-0.01,0.1c0-0.01,0.01-0.03,0.01-0.04
			c0.03-0.1,0.03-0.2-0.06-0.29c-0.07-0.08-0.2-0.15-0.33-0.17c-0.14-0.02-0.3-0.02-0.43,0.04C48.96,51.25,48.85,51.32,48.82,51.42
			L48.82,51.42z"/>
	</g>
</g>
<g>
	<g>
		<path d="M48.46,55.48c0.21,0.17,0.55,0.31,0.89,0.35c0.18,0.02,0.33,0.01,0.48-0.07c0.14-0.07,0.21-0.17,0.21-0.29
			c0.03-0.53-0.44-1.08-1.13-1.32c-0.11-0.04-0.23-0.06-0.35-0.05c-0.11,0.01-0.24,0.04-0.31,0.11c-0.14,0.13-0.26,0.25-0.33,0.4
			c-0.06,0.12-0.07,0.25-0.06,0.38c0.03,0.28,0.18,0.56,0.5,0.75c0.1,0.07,0.24,0.11,0.38,0.11c0.13,0,0.3-0.04,0.38-0.11
			c0.2-0.14,0.23-0.39,0-0.52c-0.04-0.03-0.09-0.06-0.11-0.09c0.03,0.03,0.06,0.05,0.09,0.08c-0.06-0.05-0.1-0.11-0.14-0.16
			c0.01,0.03,0.04,0.06,0.06,0.09c-0.04-0.06-0.06-0.13-0.07-0.19c0.01,0.03,0.01,0.07,0.01,0.1c-0.01-0.07-0.01-0.14,0-0.21
			c-0.01,0.03-0.01,0.07-0.01,0.1c0.01-0.06,0.04-0.13,0.07-0.18c-0.01,0.03-0.04,0.06-0.06,0.09c0.03-0.06,0.07-0.11,0.13-0.15
			c-0.03,0.03-0.06,0.05-0.09,0.08l0.01-0.01c-0.23,0.02-0.44,0.04-0.67,0.06c0.09,0.03,0.17,0.06,0.24,0.11
			c-0.04-0.02-0.07-0.04-0.11-0.06c0.11,0.06,0.21,0.13,0.3,0.2c-0.03-0.03-0.06-0.05-0.09-0.08c0.09,0.08,0.16,0.15,0.21,0.24
			c-0.01-0.03-0.04-0.06-0.06-0.09c0.06,0.09,0.1,0.18,0.11,0.29c-0.01-0.03-0.01-0.07-0.01-0.1c0.01,0.06,0.01,0.12,0.01,0.17
			c0.23-0.12,0.47-0.24,0.69-0.36c-0.09-0.01-0.17-0.03-0.24-0.05c0.04,0.01,0.09,0.03,0.13,0.04c-0.09-0.03-0.17-0.06-0.24-0.1
			c0.04,0.02,0.07,0.04,0.11,0.06c-0.06-0.03-0.11-0.07-0.17-0.12c-0.09-0.07-0.26-0.11-0.38-0.11s-0.3,0.04-0.38,0.11
			c-0.1,0.07-0.17,0.16-0.16,0.26C48.32,55.32,48.38,55.4,48.46,55.48L48.46,55.48z"/>
	</g>
</g>
<g>
	<g>
		<path d="M46.95,57.58c-0.18,0.17-0.28,0.4-0.28,0.61c0,0.2,0.26,0.38,0.54,0.37c0.27,0,0.54-0.01,0.81-0.01
			c0.13,0,0.24-0.03,0.33-0.08c0.09-0.05,0.18-0.12,0.2-0.19c0.03-0.14,0.04-0.28,0.01-0.42c-0.03-0.14-0.09-0.27-0.17-0.4
			c-0.16-0.23-0.4-0.42-0.71-0.57c-0.11-0.05-0.3-0.06-0.43-0.04c-0.13,0.03-0.26,0.09-0.33,0.17c-0.07,0.09-0.1,0.19-0.06,0.29
			c0.04,0.1,0.13,0.16,0.26,0.22c0.01,0.01,0.04,0.02,0.06,0.03c-0.04-0.02-0.07-0.04-0.11-0.06c0.1,0.06,0.18,0.12,0.27,0.18
			c-0.03-0.03-0.06-0.05-0.09-0.08c0.07,0.07,0.14,0.14,0.2,0.22c-0.01-0.03-0.04-0.06-0.06-0.09c0.06,0.09,0.09,0.17,0.11,0.26
			c-0.01-0.03-0.01-0.07-0.01-0.1c0.01,0.09,0.01,0.17,0,0.26c0.01-0.03,0.01-0.07,0.01-0.1c0,0.01,0,0.01,0,0.02
			c0.17-0.09,0.35-0.18,0.52-0.27c-0.27,0-0.54,0.01-0.81,0.01c0.18,0.13,0.37,0.25,0.54,0.37c0-0.03,0-0.07,0.01-0.1
			c-0.01,0.03-0.01,0.07-0.01,0.1c0.01-0.06,0.04-0.12,0.07-0.17c-0.01,0.03-0.04,0.06-0.06,0.09c0.03-0.05,0.07-0.1,0.11-0.14
			c0.09-0.08,0.09-0.2,0.06-0.29c-0.04-0.09-0.13-0.17-0.26-0.22c-0.13-0.05-0.28-0.07-0.43-0.04
			C47.13,57.45,47.03,57.5,46.95,57.58L46.95,57.58z"/>
	</g>
</g>
<g>
	<g>
		<path d="M49.34,49.55c-0.13,0.08-0.27,0.14-0.4,0.22c0.18-0.03,0.35-0.07,0.52-0.1c-0.01,0-0.01,0-0.03-0.01
			c0.04,0.01,0.09,0.03,0.13,0.04c-0.01,0-0.01-0.01-0.03-0.01c0.04,0.02,0.07,0.04,0.11,0.06c-0.01,0-0.01-0.01-0.01-0.01
			c0.03,0.03,0.06,0.05,0.09,0.08c0-0.01-0.01-0.01-0.01-0.01c0.01,0.03,0.04,0.06,0.06,0.09c0-0.01-0.01-0.02-0.01-0.02
			c0.01,0.03,0.01,0.07,0.01,0.1c0-0.01,0-0.02,0-0.03c-0.01,0.03-0.01,0.07-0.01,0.1c0-0.02,0.01-0.03,0.01-0.04
			c-0.01,0.03-0.04,0.06-0.06,0.09c0.01-0.01,0.01-0.03,0.03-0.04c-0.03,0.03-0.06,0.05-0.09,0.08c0.01-0.01,0.03-0.02,0.04-0.03
			c-0.04,0.02-0.07,0.04-0.11,0.06c0.01-0.01,0.01-0.01,0.03-0.01c-0.04,0.01-0.09,0.03-0.13,0.04c0.01,0,0.01-0.01,0.03-0.01
			c-0.04,0.01-0.1,0.01-0.14,0.01c0.01,0,0.01,0,0.03,0c-0.04-0.01-0.1-0.01-0.14-0.01c0.01,0,0.01,0,0.03,0.01
			c-0.04-0.01-0.09-0.03-0.13-0.04c0.01,0,0.01,0.01,0.03,0.01c-0.04-0.02-0.07-0.04-0.11-0.06c0,0,0,0,0.01,0
			c0.06,0.04,0.11,0.06,0.17,0.08c0.07,0.02,0.13,0.04,0.21,0.03c0.07,0,0.14-0.01,0.21-0.03c0.07-0.02,0.13-0.04,0.17-0.08
			c0.03-0.03,0.06-0.05,0.09-0.08c0.06-0.06,0.07-0.13,0.07-0.19c-0.01-0.03-0.01-0.07-0.01-0.1c-0.03-0.06-0.07-0.12-0.14-0.16
			c-0.11-0.07-0.13-0.07-0.27-0.11c-0.06-0.02-0.11-0.02-0.18-0.02c-0.11,0-0.24,0.02-0.34,0.06c-0.11,0.05-0.17,0.1-0.24,0.16
			c-0.01,0.01-0.01,0.02-0.03,0.02c0,0.01-0.01,0.01-0.01,0.01c-0.03,0.03-0.04,0.07-0.06,0.1c0,0.01-0.01,0.02-0.01,0.03
			c-0.01,0.04-0.03,0.09-0.03,0.13c0,0.08,0.03,0.15,0.09,0.23c0.03,0.03,0.06,0.07,0.1,0.09c0.09,0.06,0.16,0.08,0.27,0.11
			c0.01,0,0.01,0,0.01,0c0.04,0.01,0.2,0.02,0.16,0.02c0.04-0.01,0.1-0.01,0.14-0.01c0.09-0.02,0.17-0.05,0.24-0.1
			c0.03-0.02,0.06-0.03,0.07-0.04c0.11-0.06,0.21-0.13,0.33-0.18c0.06-0.04,0.09-0.08,0.11-0.12c0.03-0.05,0.06-0.09,0.04-0.14
			c0-0.05-0.01-0.1-0.04-0.14c-0.03-0.05-0.06-0.09-0.11-0.12c-0.04-0.02-0.07-0.04-0.11-0.06c-0.09-0.04-0.18-0.05-0.28-0.05
			c-0.04,0.01-0.1,0.01-0.14,0.01C49.48,49.47,49.41,49.5,49.34,49.55L49.34,49.55z"/>
	</g>
</g>
<g>
	<g>
		<path d="M53.21,50.76c-0.06,0.09-0.09,0.14-0.1,0.24c0,0.05,0.01,0.11,0.03,0.15c0.04,0.11,0.13,0.2,0.24,0.27
			c0.27,0.16,0.65,0.22,0.98,0.1c0.16-0.06,0.28-0.19,0.27-0.32c-0.01-0.28-0.04-0.55-0.06-0.83c-0.01-0.1-0.06-0.19-0.16-0.26
			c-0.1-0.07-0.26-0.12-0.38-0.11c-0.14,0.01-0.28,0.04-0.38,0.11c-0.1,0.07-0.17,0.16-0.16,0.26c0.01,0.28,0.04,0.55,0.06,0.83
			c0.09-0.11,0.18-0.21,0.27-0.32c-0.01,0-0.01,0.01-0.03,0.01c0.04-0.01,0.09-0.03,0.13-0.04c-0.03,0.01-0.04,0.01-0.07,0.01
			c0.04-0.01,0.1-0.01,0.14-0.01c-0.03,0-0.04,0-0.07,0c0.04,0.01,0.1,0.01,0.14,0.01c-0.03,0-0.04-0.01-0.07-0.01
			c0.04,0.01,0.09,0.03,0.13,0.04c-0.03-0.01-0.06-0.02-0.09-0.04c0.04,0.02,0.07,0.04,0.11,0.06c-0.03-0.01-0.04-0.03-0.06-0.04
			c0.03,0.03,0.06,0.05,0.09,0.08c-0.01-0.02-0.03-0.03-0.04-0.05c0.01,0.03,0.04,0.06,0.06,0.09c-0.01-0.02-0.01-0.04-0.03-0.05
			c0.01,0.03,0.01,0.07,0.01,0.1c0-0.01,0-0.03,0-0.04c-0.01,0.03-0.01,0.07-0.01,0.1c0-0.01,0.01-0.03,0.01-0.04
			c-0.01,0.03-0.04,0.06-0.06,0.09c0,0,0-0.01,0.01-0.01c0.04-0.04,0.06-0.09,0.07-0.13c0.01-0.05,0.01-0.1-0.01-0.14
			c-0.04-0.09-0.13-0.17-0.26-0.22c-0.13-0.05-0.28-0.07-0.43-0.04C53.43,50.62,53.29,50.68,53.21,50.76L53.21,50.76z"/>
	</g>
</g>
<g>
	<g>
		<path d="M53.34,46.91c-0.07-0.1-0.14-0.19-0.21-0.28c-0.03-0.04-0.09-0.08-0.14-0.11c-0.06-0.03-0.11-0.06-0.18-0.07
			c-0.07-0.02-0.14-0.02-0.21-0.01c-0.07,0-0.14,0.02-0.2,0.05c-0.04,0.02-0.07,0.04-0.11,0.06c-0.07,0.05-0.11,0.11-0.14,0.16
			c-0.01,0.03-0.01,0.07-0.01,0.1c0,0.07,0.03,0.13,0.07,0.19c0.07,0.1,0.14,0.19,0.21,0.28c0.03,0.04,0.09,0.08,0.14,0.11
			c0.06,0.03,0.11,0.06,0.18,0.07c0.07,0.02,0.14,0.02,0.21,0.01c0.07,0,0.14-0.02,0.2-0.05c0.04-0.02,0.07-0.04,0.11-0.06
			c0.07-0.05,0.11-0.11,0.14-0.16c0.01-0.03,0.01-0.07,0.01-0.1C53.43,47.02,53.4,46.96,53.34,46.91L53.34,46.91z"/>
	</g>
</g>
<g>
	<g>
		<path d="M51,45.8c0.17,0.12,0.41,0.21,0.65,0.24c0.16,0.02,0.28,0.03,0.44,0.01c0.16-0.02,0.28-0.04,0.43-0.09
			c0.04-0.02,0.07-0.04,0.11-0.06c0.06-0.04,0.09-0.08,0.11-0.12c0.04-0.08,0.07-0.16,0.03-0.24c-0.13-0.26-0.26-0.52-0.37-0.79
			c-0.04-0.09-0.13-0.17-0.26-0.22c-0.11-0.05-0.3-0.07-0.43-0.04s-0.26,0.09-0.33,0.17c-0.07,0.09-0.1,0.19-0.06,0.29
			c0.13,0.26,0.26,0.52,0.37,0.79c0.09-0.13,0.17-0.28,0.26-0.41c-0.01,0-0.03,0.01-0.03,0.01c0.04-0.01,0.09-0.03,0.13-0.04
			c-0.06,0.02-0.13,0.03-0.2,0.04c0.04-0.01,0.1-0.01,0.14-0.01c-0.07,0.01-0.13,0.01-0.2,0c0.04,0.01,0.1,0.01,0.14,0.01
			c-0.07-0.01-0.13-0.02-0.2-0.04c0.04,0.01,0.09,0.03,0.13,0.04c-0.06-0.02-0.11-0.04-0.17-0.07c0.04,0.02,0.07,0.04,0.11,0.06
			c-0.03-0.02-0.06-0.03-0.07-0.05c-0.1-0.07-0.24-0.11-0.38-0.11c-0.13,0-0.3,0.04-0.38,0.11c-0.1,0.07-0.17,0.16-0.16,0.26
			C50.85,45.63,50.9,45.73,51,45.8L51,45.8z"/>
	</g>
</g>
<g>
	<g>
		<path d="M53.27,43.17c0.21,0.01,0.43,0.01,0.62,0.01c0.07,0,0.14-0.01,0.21-0.03c0.07-0.02,0.13-0.04,0.17-0.08
			c0.06-0.04,0.09-0.08,0.11-0.12c0.03-0.05,0.06-0.09,0.04-0.14c-0.01-0.1-0.06-0.19-0.16-0.26c-0.1-0.07-0.24-0.11-0.38-0.11
			c-0.21-0.01-0.43-0.01-0.62-0.01c-0.07,0-0.14,0.01-0.21,0.03c-0.07,0.02-0.13,0.04-0.17,0.08c-0.06,0.04-0.09,0.08-0.11,0.12
			c-0.03,0.05-0.06,0.09-0.04,0.14c0.01,0.1,0.06,0.19,0.16,0.26C52.99,43.14,53.12,43.17,53.27,43.17L53.27,43.17z"/>
	</g>
</g>
<g>
	<g>
		<path d="M31.85,49.84c-2.77-5.8-5.52-11.6-8.28-17.4c-0.78-1.65-1.57-3.29-2.35-4.94c-0.21-0.45-1.28-0.26-1.05,0.2
			c2.77,5.8,5.52,11.6,8.28,17.4c0.78,1.65,1.57,3.29,2.35,4.94C31.02,50.49,32.07,50.3,31.85,49.84L31.85,49.84z"/>
	</g>
</g>
<g>
	<g>
		<path d="M34.44,48.51c-2.41-5.85-4.81-11.72-7.22-17.58c-0.68-1.66-1.36-3.33-2.04-4.99c-0.18-0.46-1.25-0.26-1.05,0.2
			c2.41,5.85,4.81,11.72,7.22,17.58c0.68,1.66,1.36,3.33,2.04,4.99C33.57,49.16,34.62,48.97,34.44,48.51L34.44,48.51z"/>
	</g>
</g>
<g>
	<g>
		<path d="M36.83,45.3c-1.53-6.18-3.06-12.35-4.6-18.52c-0.44-1.75-0.87-3.49-1.3-5.25c-0.11-0.47-1.16-0.27-1.05,0.2
			c1.53,6.18,3.06,12.35,4.6,18.52c0.44,1.75,0.87,3.49,1.3,5.25C35.9,45.96,36.95,45.77,36.83,45.3L36.83,45.3z"/>
	</g>
</g>
<g>
	<g>
		<path d="M39.06,43.82c-0.3-6.05-0.38-12.09-0.28-18.14c0.03-1.73,0.09-3.46,0.14-5.19c0.01-0.48-1.08-0.48-1.09,0
			c-0.23,6.05-0.24,12.09-0.07,18.15c0.06,1.73,0.11,3.45,0.2,5.18C38,44.3,39.09,44.3,39.06,43.82L39.06,43.82z"/>
	</g>
</g>
<g>
	<g>
		<path d="M42.02,43.06c1.99-4.73,2.44-9.67,3.43-14.53c0.28-1.39,0.62-2.78,1.05-4.15c0.14-0.46-0.91-0.67-1.05-0.2
			c-1.49,4.81-1.82,9.75-3.11,14.59c-0.37,1.38-0.81,2.75-1.38,4.09C40.79,43.32,41.84,43.51,42.02,43.06L42.02,43.06z"/>
	</g>
</g>
<g>
	<g>
		<path d="M28.86,49.97c-2.51-4.02-5.08-8.03-7.72-12.01c-0.75-1.13-1.5-2.26-2.26-3.38c-0.3-0.43-1.23-0.06-0.94,0.38
			c2.67,3.97,5.28,7.96,7.82,11.98c0.72,1.14,1.43,2.28,2.14,3.42c0.11,0.18,0.51,0.22,0.75,0.13
			C28.95,50.38,28.98,50.16,28.86,49.97L28.86,49.97z"/>
	</g>
</g>
<g>
	<g>
		<path d="M25.66,49.84c-1.52-1.66-2.87-3.38-4.03-5.16c-0.11-0.18-0.51-0.22-0.75-0.13c-0.28,0.11-0.31,0.33-0.2,0.51
			c1.16,1.78,2.51,3.51,4.03,5.16C25.07,50.61,26.02,50.24,25.66,49.84L25.66,49.84z"/>
	</g>
</g>
<g>
	<g>
		<path d="M43.36,12.25c-0.07-0.35,0.11-0.66,0.57-0.83c-0.14,0.01-0.28,0.03-0.43,0.04c-0.09-0.02,0.06,0.02,0.06,0.03
			c-0.07-0.03,0.04,0.03,0.06,0.03c0.07,0.05,0.13,0.1,0.2,0.15c0.13,0.11,0.24,0.22,0.4,0.31c0.43,0.25,0.98,0.34,1.52,0.24
			c1.15-0.21,1.55-0.99,1.79-1.7c0.07-0.19-0.09-0.4-0.38-0.45c-0.28-0.05-0.61,0.07-0.67,0.26c-0.13,0.38-0.28,0.88-0.72,1.08
			c-0.13,0.06-0.18,0.08-0.31,0.1c-0.04,0.01-0.07,0.01-0.11,0.02c0.04-0.01,0.04-0.01-0.03,0c0,0-0.17-0.01-0.09,0
			c-0.03,0-0.2-0.05-0.14-0.03c-0.03-0.01-0.07-0.03-0.1-0.04c0.04,0.02,0.03,0.02-0.01-0.01c-0.09-0.06-0.17-0.13-0.26-0.19
			c-0.18-0.15-0.37-0.32-0.64-0.42c-0.23-0.09-0.45-0.13-0.69-0.05c-0.14,0.05-0.28,0.13-0.4,0.2c-0.5,0.31-0.78,0.81-0.69,1.27
			c0.04,0.2,0.23,0.37,0.54,0.37C43.09,12.63,43.4,12.45,43.36,12.25L43.36,12.25z"/>
	</g>
</g>
<g>
	<g>
		<path d="M47.02,14.39c0.01-0.09,0.01-0.16,0.03-0.25c0-0.02,0.01-0.11,0.01-0.09c-0.01,0.04,0.01-0.03,0.01-0.03
			c0.01-0.03,0.01-0.06,0.03-0.1c0.03-0.08,0.06-0.15,0.1-0.24c0,0,0.03-0.06,0.01-0.03c-0.03,0.03,0.01-0.03,0.01-0.03
			c0.03-0.04,0.07-0.08,0.1-0.12c0.04-0.06-0.06,0.04,0,0c0.01-0.01,0.03-0.02,0.04-0.04c0.03-0.02,0.07-0.04,0.1-0.07
			c-0.07,0.05,0.03-0.01,0.06-0.02c0.04-0.02,0.16-0.05,0.06-0.03c0.04-0.01,0.09-0.02,0.13-0.03c0.03-0.01,0.06-0.01,0.09-0.01
			c-0.01,0-0.09,0-0.04,0.01c0.01,0,0.16,0,0.09,0c-0.09,0,0.14,0.03,0.07,0.01c-0.09-0.03,0.11,0.04,0.03,0.01
			c-0.06-0.02,0.06,0.04,0.07,0.05c0.07,0.05,0.13,0.1,0.2,0.14c0.14,0.11,0.3,0.22,0.5,0.29c0.57,0.19,1.22-0.04,1.33-0.46
			c0.06-0.2,0.03-0.4,0.01-0.61c-0.01-0.23-0.03-0.45-0.04-0.68c-0.01-0.19-0.24-0.39-0.54-0.37c-0.28,0.01-0.57,0.16-0.54,0.37
			c0.03,0.37,0.09,0.73,0.06,1.1c0,0.02-0.03,0.08,0,0.03c0.01-0.05,0,0-0.01,0.01c-0.03,0.06,0.04-0.03-0.01,0.02
			c0.01-0.01,0.04-0.03,0.06-0.05c0.04-0.03-0.06,0,0.01-0.01c0.04-0.01,0.07-0.02,0.1-0.02c-0.07,0,0.01,0,0.04,0.01
			c0.07,0.02,0.07,0.02,0,0c-0.09-0.03,0,0,0.01,0.01c-0.01-0.01-0.03-0.02-0.04-0.03c-0.07-0.05-0.14-0.11-0.21-0.15
			c-0.33-0.25-0.74-0.44-1.26-0.4c-0.54,0.04-1.02,0.24-1.32,0.55c-0.35,0.36-0.4,0.81-0.44,1.23c-0.01,0.19,0.27,0.38,0.54,0.37
			C46.78,14.76,46.99,14.6,47.02,14.39L47.02,14.39z"/>
	</g>
</g>
<g>
	<g>
		<path d="M28.9,10.25c0.4-0.46-0.14-0.98-0.84-1.13C27.74,9.05,27.32,9.11,27.03,9c-0.24-0.09-0.31-0.39-0.35-0.54
			c-0.13-0.49,0.06-0.94,0.35-1.37c0.33-0.47,0.6-0.96,0.2-1.45c-0.34-0.41-1.28-0.05-0.94,0.38c0.24,0.31-0.27,0.79-0.44,1.06
			c-0.27,0.45-0.35,0.94-0.26,1.43c0.1,0.45,0.33,0.97,0.99,1.18c0.31,0.1,0.64,0.11,0.96,0.13c0.11,0.01,0.24,0.02,0.33,0.07
			c0.01,0.01,0.03,0.02,0.06,0.03c0.13,0.06-0.04,0.04,0.03-0.04C27.61,10.28,28.55,10.66,28.9,10.25L28.9,10.25z"/>
	</g>
</g>
<g>
	<g>
		<path d="M31.02,6.61c-0.09-0.18-0.16-0.37-0.18-0.56c0.01,0.06-0.01-0.07-0.01-0.07C30.8,5.95,30.8,5.91,30.8,5.86
			c-0.01-0.1-0.01-0.19-0.01-0.29c0-0.38,0.07-0.67,0.24-1.03c0.09-0.18-0.1-0.41-0.38-0.45c-0.3-0.05-0.58,0.06-0.67,0.26
			c-0.37,0.79-0.38,1.67-0.01,2.46c0.09,0.18,0.38,0.32,0.67,0.26C30.9,7.01,31.1,6.8,31.02,6.61L31.02,6.61z"/>
	</g>
</g>
<g>
	<g>
		<path d="M25.78,10.73c-1.02-0.53-1.97-1.29-2.3-2.16c-0.16-0.43,0.01-0.86,0.13-1.28c0.11-0.47,0.13-0.9-0.16-1.34
			c-0.13-0.18-0.52-0.22-0.75-0.13c-0.28,0.11-0.31,0.33-0.2,0.51c0.24,0.39,0.03,0.86-0.07,1.24C22.32,8.06,22.31,8.53,22.55,9
			c0.47,0.89,1.38,1.68,2.47,2.25c0.23,0.13,0.54,0.15,0.77,0C25.98,11.12,26.02,10.84,25.78,10.73L25.78,10.73z"/>
	</g>
</g>
<g>
	<g>
		<path d="M43.31,8.62c-0.07-0.33-0.13-0.66-0.18-0.99c-0.03-0.16-0.04-0.34-0.06-0.5S43,6.78,43.03,6.62
			c-0.01,0.03,0.01-0.04,0.01-0.04v0.01C43,6.63,43,6.63,43.03,6.61c0,0,0.09-0.05,0.03-0.02C43,6.62,43.1,6.57,43.12,6.57
			c0.11-0.05,0.24-0.09,0.37-0.13c0.35-0.14,0.61-0.4,0.47-0.68c-0.09-0.19-0.38-0.32-0.67-0.26c-0.27,0.05-0.47,0.26-0.38,0.45
			c0.03,0.06,0-0.03,0-0.06c0.01-0.04,0.03-0.07,0.06-0.1c0.03-0.03,0.03-0.03,0,0c0.01-0.01,0.03-0.02,0.06-0.03
			c-0.03,0.01-0.04,0.02-0.07,0.03c-0.13,0.05-0.26,0.09-0.38,0.14c-0.43,0.17-0.62,0.43-0.61,0.77c0.03,0.7,0.17,1.41,0.33,2.1
			c0.04,0.2,0.41,0.31,0.67,0.26C43.24,9.02,43.36,8.82,43.31,8.62L43.31,8.62z"/>
	</g>
</g>
<g>
	<g>
		<path d="M7.81,46.91c-0.72-0.8-0.34-1.78,0-2.63c0.38-0.95,0.78-1.99,0.21-2.95c-0.26-0.43-1.32-0.25-1.05,0.2
			c0.58,0.99-0.04,2.02-0.38,3.01c-0.33,0.92-0.47,1.91,0.3,2.75C7.25,47.69,8.18,47.31,7.81,46.91L7.81,46.91z"/>
	</g>
</g>
</svg>
